<?xml version="1.0" encoding="utf-8"?>
<!-- Generator: Adobe Illustrator 27.1.1, SVG Export Plug-In . SVG Version: 6.00 Build 0)  -->
<svg version="1.1" id="Layer_1" xmlns="http://www.w3.org/2000/svg" xmlns:xlink="http://www.w3.org/1999/xlink" x="0px" y="0px"
	 viewBox="0 0 164.3 151.85" style="enable-background:new 0 0 164.3 151.85;" xml:space="preserve">
<style type="text/css">
	.st0{fill:none;}
	.st1{fill:#C6DD7F;}
	.st2{fill:#E9DDB7;}
	.st3{fill:#A6D0E4;}
	.st4{fill:#00427E;}
	.st5{opacity:0.4;fill:#9DDCF9;}
	.st6{fill:#C1272D;}
	.st7{fill:#ED1C24;}
	.st8{fill:#F15A24;}
	.st9{fill:#FF0000;}
	.st10{fill:#F7931E;}
	.st11{fill:url(#Jive);}
	.st12{fill:url(#Alyssa);}
	.st13{fill:#FFFF00;}
	.st14{fill:url(#SVGID_1_);}
</style>
<pattern  x="-878.21" y="-464.44" width="144.13" height="138.36" patternUnits="userSpaceOnUse" id="Alyssa" viewBox="99.96 -216.83 144.13 138.36" style="overflow:visible;">
	<g>
		<rect x="99.96" y="-216.83" class="st0" width="144.13" height="138.36"/>
		<g>
			<path class="st1" d="M311.04-58.31c-11.76-1.38-19.37,0.35-22.65,3.11c-3.02,2.54-4.96,5.41-2.25,11.93
				c2.94,7.09,1.53,14.73-5.54,15.91c-6.22,1.04-10.89-4.84-11.24-12.28c-0.24-5.18-1.9-8.3-5.53-7.61
				c-3.63,0.69-4.63,5.9-3.63,11.76c1.38,8.13,5.54,11.76,6.23,20.23c0.49,6.05-2.94,13.66-12.45,15.04
				c-9.3,1.35-15.91-4.32-16.6-10.55c-0.73-6.59,3.63-10.89,3.11-17.64c-0.52-6.75-4.01-10.17-5.88-17.29
				c-2.77-10.55,1.21-19.02,7.78-22.65c14.75-8.15,22.83,3.64,35.97,1.56c10.9-1.73,23.35-18.16,33.03-19.54
				c8.23-1.17,13.83,4.67,15.04,14.01C327.64-62.98,321.69-57.05,311.04-58.31z M268.84-57.79c0-2.29-1.86-4.15-4.15-4.15
				c-2.29,0-4.15,1.86-4.15,4.15s1.86,4.15,4.15,4.15C266.98-53.64,268.84-55.5,268.84-57.79z M318.3-73.18
				c0-0.96-0.78-1.73-1.73-1.73c-0.96,0-1.73,0.77-1.73,1.73s0.77,1.73,1.73,1.73C317.52-71.45,318.3-72.22,318.3-73.18z"/>
		</g>
		<g>
			<path class="st2" d="M148.8-77.49c0,7.17,4.59,13.81-1,16.33c-8.5,3.83-28-14.33-28-36.17c0-12,8.67-19,17.83-19
				c12.33,0,18,8.17,18,17.5C155.63-89.5,148.8-85.69,148.8-77.49z M143.39-82.86c0-1.15-0.93-2.08-2.07-2.08
				c-1.15,0-2.08,0.93-2.08,2.08c0,1.15,0.93,2.08,2.08,2.08C142.46-80.79,143.39-81.72,143.39-82.86z"/>
			<path class="st3" d="M223.49-54c-7.87,2.74-19.44-15.3-17.67-27.02c1.24-8.23,7.12-13.19,13.09-14.22
				c7.53-1.3,12.9,2.6,13.3,7.24c0.55,6.31-3.63,7.52-4.22,14.96C227.43-65.9,231.68-56.85,223.49-54z M219.71-81.51
				c0-1.43-1.16-2.59-2.59-2.59c-1.43,0-2.59,1.16-2.59,2.59c0,1.43,1.16,2.59,2.59,2.59C218.54-78.91,219.71-80.08,219.71-81.51z"
				/>
			<path class="st2" d="M119.35-76.47c0,1.43-1.16,2.59-2.59,2.59c-1.43,0-2.59-1.16-2.59-2.59s1.16-2.59,2.59-2.59
				C118.19-79.06,119.35-77.9,119.35-76.47z"/>
			<path class="st3" d="M184.57-84.19c0.74,8.1,12.67,7.02,17.9,14.21c10.52,14.47-1.22,46.37-21.63,46.37
				c-11.74,0-24.22-9.72-24.22-29.22c0-15.83,10.17-21.5,8.25-42.17c-1.01-10.83-12.5-20.34-12.5-34.75
				c0-5.92,3.59-13.45,11.55-13.45c7.05,0,10.82,5.95,10.82,12.9c0,6.8-5.38,15.74,1.38,19.05c5.24,2.57,13.21-4.77,19.5-6.75
				c5.19-1.64,12.39,0.22,14.75,8.5c2.53,8.88-3.25,14.75-11.59,16.69C192.47-91.32,183.98-90.63,184.57-84.19z M168.59-114.75
				c0-1.82-1.47-3.29-3.29-3.29c-1.81,0-3.29,1.47-3.29,3.29c0,1.81,1.47,3.29,3.29,3.29C167.12-111.46,168.59-112.93,168.59-114.75
				z M194.57-105.05c1.29,0,2.33-1.04,2.33-2.33c0-1.29-1.04-2.33-2.33-2.33c-1.29,0-2.33,1.04-2.33,2.33
				C192.24-106.1,193.29-105.05,194.57-105.05z M174.59-45.38c0-1.82-1.47-3.29-3.29-3.29c-1.81,0-3.29,1.47-3.29,3.29
				c0,1.81,1.47,3.29,3.29,3.29C173.12-42.1,174.59-43.57,174.59-45.38z"/>
			<path class="st1" d="M166.91-58.31c-11.76-1.38-19.37,0.35-22.65,3.11c-3.02,2.54-4.96,5.41-2.25,11.93
				c2.94,7.09,1.53,14.73-5.54,15.91c-6.22,1.04-10.89-4.84-11.24-12.28c-0.24-5.18-1.9-8.3-5.53-7.61
				c-3.63,0.69-4.63,5.9-3.63,11.76c1.38,8.13,5.54,11.76,6.23,20.23c0.49,6.05-2.94,13.66-12.45,15.04
				c-9.3,1.35-15.91-4.32-16.6-10.55c-0.73-6.59,3.63-10.89,3.11-17.64c-0.52-6.75-4.01-10.17-5.88-17.29
				c-2.77-10.55,1.21-19.02,7.78-22.65c14.75-8.15,22.83,3.64,35.97,1.56c10.9-1.73,23.35-18.16,33.03-19.54
				c8.23-1.17,13.83,4.67,15.04,14.01C183.51-62.98,177.56-57.05,166.91-58.31z M124.71-57.79c0-2.29-1.86-4.15-4.15-4.15
				c-2.29,0-4.15,1.86-4.15,4.15s1.86,4.15,4.15,4.15C122.85-53.64,124.71-55.5,124.71-57.79z M174.17-73.18
				c0-0.96-0.78-1.73-1.73-1.73c-0.96,0-1.73,0.77-1.73,1.73s0.77,1.73,1.73,1.73C173.4-71.45,174.17-72.22,174.17-73.18z"/>
		</g>
		<g>
			<path class="st3" d="M290.28-104.84c0,6.23-4.15,10.72-8.65,11.59c-4.5,0.87-8.32-1.28-12.97,1.21
				c-4.84,2.59-7.09,11.07-16.78,11.07c-7.96,0-15.22-7.96-15.22-18.85c0-20.23,13.14-29.23,25.59-29.23
				C278.87-129.05,290.28-116.43,290.28-104.84z M270.57-119.19c0-2.1-1.7-3.8-3.8-3.8c-2.1,0-3.8,1.7-3.8,3.8
				c0,2.1,1.7,3.8,3.8,3.8C268.87-115.39,270.57-117.09,270.57-119.19z"/>
			<path class="st1" d="M311.04-196.67c-11.76-1.38-19.37,0.35-22.65,3.11c-3.02,2.54-4.96,5.41-2.25,11.93
				c2.94,7.09,1.53,14.73-5.54,15.91c-6.22,1.04-10.89-4.84-11.24-12.28c-0.24-5.18-1.9-8.3-5.53-7.61
				c-3.63,0.69-4.63,5.9-3.63,11.76c1.38,8.13,5.54,11.76,6.23,20.23c0.49,6.05-2.94,13.66-12.45,15.04
				c-9.3,1.35-15.91-4.32-16.6-10.55c-0.73-6.59,3.63-10.89,3.11-17.64c-0.52-6.75-4.01-10.17-5.88-17.29
				c-2.77-10.55,1.21-19.02,7.78-22.65c14.75-8.15,22.83,3.64,35.97,1.56c10.9-1.73,23.35-18.16,33.03-19.54
				c8.23-1.17,13.83,4.67,15.04,14.01C327.64-201.34,321.69-195.42,311.04-196.67z M268.84-196.15c0-2.29-1.86-4.15-4.15-4.15
				c-2.29,0-4.15,1.86-4.15,4.15c0,2.29,1.86,4.15,4.15,4.15C266.98-192,268.84-193.86,268.84-196.15z M318.3-211.54
				c0-0.96-0.78-1.73-1.73-1.73c-0.96,0-1.73,0.77-1.73,1.73c0,0.96,0.77,1.73,1.73,1.73C317.52-209.81,318.3-210.59,318.3-211.54z"
				/>
		</g>
		<g>
			<path class="st3" d="M131.8-133.19c-13.96,1.99-21.17-13.33-17.67-20.33c3.67-7.33,12.12-4.17,19.5-4.17
				c9.67,0,16.37-7.57,20.42-2.25C158.3-154.36,149.04-135.65,131.8-133.19z M132.32-150.67c0-1.24-1.01-2.25-2.25-2.25
				c-1.24,0-2.25,1.01-2.25,2.25c0,1.24,1.01,2.25,2.25,2.25C131.31-148.42,132.32-149.43,132.32-150.67z"/>
			<path class="st2" d="M148.8-215.86c0,7.17,4.59,13.81-1,16.33c-8.5,3.83-28-14.33-28-36.17c0-12,8.67-19,17.83-19
				c12.33,0,18,8.17,18,17.5C155.63-227.86,148.8-224.05,148.8-215.86z M143.39-221.23c0-1.15-0.93-2.08-2.07-2.08
				c-1.15,0-2.08,0.93-2.08,2.08c0,1.15,0.93,2.08,2.08,2.08C142.46-219.15,143.39-220.08,143.39-221.23z"/>
			<path class="st3" d="M146.15-104.84c0,6.23-4.15,10.72-8.65,11.59c-4.5,0.87-8.32-1.28-12.97,1.21
				c-4.84,2.59-7.09,11.07-16.78,11.07c-7.96,0-15.22-7.96-15.22-18.85c0-20.23,13.14-29.23,25.59-29.23
				C134.74-129.05,146.15-116.43,146.15-104.84z M126.44-119.19c0-2.1-1.7-3.8-3.8-3.8c-2.1,0-3.8,1.7-3.8,3.8
				c0,2.1,1.7,3.8,3.8,3.8C124.74-115.39,126.44-117.09,126.44-119.19z"/>
			<path class="st1" d="M145.46-128.53c0,1.34-1.08,2.42-2.42,2.42c-1.34,0-2.42-1.08-2.42-2.42c0-1.34,1.08-2.42,2.42-2.42
				C144.38-130.95,145.46-129.87,145.46-128.53z"/>
			<path class="st3" d="M229.16-147.04c-3.19,4.68,1.04,10.72-1.38,15.22c-2.42,4.5-6.74,5.02-9.86,2.6
				c-3.63-2.83-3.41-6.64-8.3-8.82c-5.53-2.46-17.98,2.25-19.71-7.26c-0.88-4.81,2.38-8.57,7.26-9.68
				c6.05-1.38,9.35-0.18,15.39-3.11c6.05-2.94,11.24-8.99,22.14-12.11c10.41-2.97,16.07,1.56,16.6,5.88
				C252.34-155.86,234.17-154.38,229.16-147.04z M226.91-154.47c0-1.24-1.01-2.25-2.25-2.25c-1.24,0-2.25,1.01-2.25,2.25
				c0,1.24,1.01,2.25,2.25,2.25C225.91-152.23,226.91-153.23,226.91-154.47z"/>
			<path class="st2" d="M256.13-107.86c0,17.17-14.5,25.5-27,22.83c-10.26-2.19-12.83-17.33-16.67-26.17
				c-3.71-8.56-8.83-22.5-20.17-22.5c-11.2,0-12.83,14.5-23.67,14.5c-11,0-24.5-15.67-24.5-39.67c0-14.67,9.8-31.46,20.83-30.67
				c11.67,0.83,4.5,19.67,15.33,19.67c9.5,0,7.86-16.26,9.17-23.33c1.67-9,6.83-14.17,18.5-13.17c14.44,1.24,22.33,13.5,18.87,23.34
				c-4.03,11.45-23.87,17.32-21.54,30.49c1.35,7.59,13,12,26,16.17C245.82-131.7,256.13-125.02,256.13-107.86z M211.18-183.7
				c0,1.82,1.47,3.29,3.29,3.29c1.81,0,3.29-1.47,3.29-3.29s-1.47-3.29-3.29-3.29C212.65-186.99,211.18-185.52,211.18-183.7z
				 M164.48-158.8c0-0.96-0.77-1.73-1.73-1.73c-0.96,0-1.73,0.78-1.73,1.73c0,0.96,0.78,1.73,1.73,1.73
				C163.71-157.07,164.48-157.84,164.48-158.8z M181.95-148.08c0-2.1-1.7-3.8-3.8-3.8c-2.1,0-3.8,1.7-3.8,3.8
				c0,2.1,1.71,3.8,3.8,3.8C180.25-144.27,181.95-145.97,181.95-148.08z M201.84-163.64c0-0.86-0.7-1.56-1.56-1.56
				c-0.86,0-1.56,0.7-1.56,1.56c0,0.86,0.7,1.56,1.56,1.56C201.14-162.08,201.84-162.78,201.84-163.64z M231.48-108.94
				c0-1.75-1.42-3.17-3.17-3.17c-1.75,0-3.17,1.42-3.17,3.17c0,1.75,1.42,3.17,3.17,3.17C230.06-105.77,231.48-107.19,231.48-108.94
				z"/>
			<path class="st3" d="M223.49-192.36c-7.87,2.74-19.44-15.3-17.67-27.02c1.24-8.23,7.12-13.19,13.09-14.22
				c7.53-1.3,12.9,2.6,13.3,7.24c0.55,6.31-3.63,7.52-4.22,14.96C227.43-204.26,231.68-195.21,223.49-192.36z M219.71-219.87
				c0-1.43-1.16-2.59-2.59-2.59c-1.43,0-2.59,1.16-2.59,2.59c0,1.43,1.16,2.59,2.59,2.59C218.54-217.28,219.71-218.44,219.71-219.87
				z"/>
			<path class="st2" d="M119.35-214.83c0,1.43-1.16,2.59-2.59,2.59c-1.43,0-2.59-1.16-2.59-2.59c0-1.43,1.16-2.59,2.59-2.59
				C118.19-217.42,119.35-216.26,119.35-214.83z"/>
			<path class="st2" d="M253.35-128.09c0-8.41-5.08-15.23-11.34-15.23s-11.34,6.82-11.34,15.23c0,8.41,5.08,12.44,11.34,12.44
				S253.35-119.68,253.35-128.09z"/>
			<path class="st3" d="M184.57-222.55c0.74,8.1,12.67,7.02,17.9,14.21c10.52,14.47-1.22,46.37-21.63,46.37
				c-11.74,0-24.22-9.72-24.22-29.22c0-15.83,10.17-21.5,8.25-42.17c-1.01-10.83-12.5-20.34-12.5-34.75
				c0-5.92,3.59-13.45,11.55-13.45c7.05,0,10.82,5.95,10.82,12.9c0,6.8-5.38,15.74,1.38,19.05c5.24,2.57,13.21-4.77,19.5-6.75
				c5.19-1.64,12.39,0.22,14.75,8.5c2.53,8.88-3.25,14.75-11.59,16.69C192.47-229.69,183.98-228.99,184.57-222.55z M168.59-253.11
				c0-1.82-1.47-3.29-3.29-3.29c-1.81,0-3.29,1.47-3.29,3.29c0,1.81,1.47,3.29,3.29,3.29C167.12-249.82,168.59-251.3,168.59-253.11z
				 M194.57-243.41c1.29,0,2.33-1.04,2.33-2.33c0-1.29-1.04-2.33-2.33-2.33c-1.29,0-2.33,1.04-2.33,2.33
				C192.24-244.46,193.29-243.41,194.57-243.41z M174.59-183.74c0-1.82-1.47-3.29-3.29-3.29c-1.81,0-3.29,1.47-3.29,3.29
				c0,1.81,1.47,3.29,3.29,3.29C173.12-180.46,174.59-181.93,174.59-183.74z"/>
			<path class="st1" d="M166.91-196.67c-11.76-1.38-19.37,0.35-22.65,3.11c-3.02,2.54-4.96,5.41-2.25,11.93
				c2.94,7.09,1.53,14.73-5.54,15.91c-6.22,1.04-10.89-4.84-11.24-12.28c-0.24-5.18-1.9-8.3-5.53-7.61
				c-3.63,0.69-4.63,5.9-3.63,11.76c1.38,8.13,5.54,11.76,6.23,20.23c0.49,6.05-2.94,13.66-12.45,15.04
				c-9.3,1.35-15.91-4.32-16.6-10.55c-0.73-6.59,3.63-10.89,3.11-17.64c-0.52-6.75-4.01-10.17-5.88-17.29
				c-2.77-10.55,1.21-19.02,7.78-22.65c14.75-8.15,22.83,3.64,35.97,1.56c10.9-1.73,23.35-18.16,33.03-19.54
				c8.23-1.17,13.83,4.67,15.04,14.01C183.51-201.34,177.56-195.42,166.91-196.67z M124.71-196.15c0-2.29-1.86-4.15-4.15-4.15
				c-2.29,0-4.15,1.86-4.15,4.15c0,2.29,1.86,4.15,4.15,4.15C122.85-192,124.71-193.86,124.71-196.15z M174.17-211.54
				c0-0.96-0.78-1.73-1.73-1.73c-0.96,0-1.73,0.77-1.73,1.73c0,0.96,0.77,1.73,1.73,1.73C173.4-209.81,174.17-210.59,174.17-211.54z
				"/>
			<path class="st1" d="M230.2-174.36c0,0.76-0.62,1.38-1.38,1.38c-0.76,0-1.38-0.62-1.38-1.38c0-0.76,0.62-1.38,1.38-1.38
				C229.58-175.74,230.2-175.12,230.2-174.36z"/>
			<path class="st2" d="M235.73-212.75c0,1.24-1.01,2.25-2.25,2.25s-2.25-1.01-2.25-2.25c0-1.24,1.01-2.25,2.25-2.25
				S235.73-213.99,235.73-212.75z"/>
			<path class="st3" d="M152.21-189.58c0,0.67-0.54,1.21-1.21,1.21s-1.21-0.54-1.21-1.21s0.54-1.21,1.21-1.21
				S152.21-190.25,152.21-189.58z"/>
			<path class="st3" d="M148.57-121.1c0,0.76-0.62,1.38-1.38,1.38s-1.38-0.62-1.38-1.38c0-0.76,0.62-1.38,1.38-1.38
				S148.57-121.86,148.57-121.1z"/>
			<path class="st2" d="M233.14-143.06c0,0.67-0.54,1.21-1.21,1.21s-1.21-0.54-1.21-1.21c0-0.67,0.54-1.21,1.21-1.21
				S233.14-143.73,233.14-143.06z"/>
			<path class="st1" d="M195.85-125.13c0,1.88-1.53,3.41-3.41,3.41c-1.88,0-3.41-1.53-3.41-3.41c0-1.88,1.53-3.41,3.41-3.41
				C194.32-128.54,195.85-127.02,195.85-125.13z"/>
			<path class="st2" d="M200.83-85.28c0,1.16-0.94,2.1-2.1,2.1c-1.16,0-2.1-0.94-2.1-2.1s0.94-2.1,2.1-2.1
				C199.89-87.38,200.83-86.44,200.83-85.28z"/>
			<path class="st2" d="M162.03-91.58c0,0.87-0.7,1.57-1.57,1.57c-0.87,0-1.57-0.7-1.57-1.57c0-0.87,0.71-1.57,1.57-1.57
				C161.33-93.15,162.03-92.44,162.03-91.58z"/>
			<circle class="st1" cx="233.08" cy="-205.62" r="2.62"/>
			<circle class="st3" cx="223.12" cy="-170.75" r="2.36"/>
			<path class="st2" d="M127.69-164.2c0,1.45-1.17,2.62-2.62,2.62c-1.45,0-2.62-1.17-2.62-2.62c0-1.45,1.17-2.62,2.62-2.62
				C126.51-166.82,127.69-165.65,127.69-164.2z"/>
			<path class="st3" d="M122.7-171.28c0,0.72-0.59,1.31-1.31,1.31c-0.72,0-1.31-0.59-1.31-1.31s0.59-1.31,1.31-1.31
				C122.12-172.59,122.7-172,122.7-171.28z"/>
			<path class="st2" d="M186.94-119.37c0,0.87-0.71,1.57-1.57,1.57c-0.87,0-1.57-0.7-1.57-1.57c0-0.87,0.7-1.57,1.57-1.57
				C186.23-120.94,186.94-120.24,186.94-119.37z"/>
		</g>
		<g>
			<path class="st3" d="M85.03-147.04c-3.19,4.68,1.04,10.72-1.38,15.22c-2.42,4.5-6.74,5.02-9.86,2.6
				c-3.63-2.83-3.41-6.64-8.3-8.82c-5.53-2.46-17.98,2.25-19.71-7.26c-0.88-4.81,2.38-8.57,7.26-9.68
				c6.05-1.38,9.35-0.18,15.39-3.11c6.05-2.94,11.24-8.99,22.14-12.11c10.41-2.97,16.07,1.56,16.6,5.88
				C108.21-155.86,90.04-154.38,85.03-147.04z M82.78-154.47c0-1.24-1.01-2.25-2.25-2.25c-1.24,0-2.25,1.01-2.25,2.25
				c0,1.24,1.01,2.25,2.25,2.25C81.78-152.23,82.78-153.23,82.78-154.47z"/>
			<path class="st2" d="M112-107.86c0,17.17-14.5,25.5-27,22.83c-10.26-2.19-12.83-17.33-16.67-26.17
				c-3.71-8.56-8.83-22.5-20.17-22.5c-11.2,0-12.83,14.5-23.67,14.5c-11,0-24.5-15.67-24.5-39.67c0-14.67,9.8-31.46,20.83-30.67
				c11.67,0.83,4.5,19.67,15.33,19.67c9.5,0,7.86-16.26,9.17-23.33c1.67-9,6.83-14.17,18.5-13.17c14.44,1.24,22.33,13.5,18.87,23.34
				c-4.03,11.45-23.87,17.32-21.54,30.49c1.35,7.59,13,12,26,16.17C101.69-131.7,112-125.02,112-107.86z M67.05-183.7
				c0,1.82,1.47,3.29,3.29,3.29c1.81,0,3.29-1.47,3.29-3.29s-1.47-3.29-3.29-3.29C68.52-186.99,67.05-185.52,67.05-183.7z
				 M20.36-158.8c0-0.96-0.77-1.73-1.73-1.73c-0.96,0-1.73,0.78-1.73,1.73c0,0.96,0.78,1.73,1.73,1.73
				C19.58-157.07,20.36-157.84,20.36-158.8z M37.82-148.08c0-2.1-1.7-3.8-3.8-3.8c-2.1,0-3.8,1.7-3.8,3.8c0,2.1,1.71,3.8,3.8,3.8
				C36.12-144.27,37.82-145.97,37.82-148.08z M57.71-163.64c0-0.86-0.7-1.56-1.56-1.56c-0.86,0-1.56,0.7-1.56,1.56
				c0,0.86,0.7,1.56,1.56,1.56C57.01-162.08,57.71-162.78,57.71-163.64z M87.35-108.94c0-1.75-1.42-3.17-3.17-3.17
				c-1.75,0-3.17,1.42-3.17,3.17c0,1.75,1.42,3.17,3.17,3.17C85.93-105.77,87.35-107.19,87.35-108.94z"/>
			<path class="st2" d="M109.22-128.09c0-8.41-5.08-15.23-11.34-15.23c-6.26,0-11.34,6.82-11.34,15.23
				c0,8.41,5.08,12.44,11.34,12.44C104.14-115.65,109.22-119.68,109.22-128.09z"/>
		</g>
	</g>
</pattern>
<pattern  x="-878.21" y="-464.44" width="108.34" height="109.64" patternUnits="userSpaceOnUse" id="Jive" viewBox="47.56 -219.28 108.34 109.64" style="overflow:visible;">
	<g>
		<rect x="47.56" y="-219.28" class="st0" width="108.34" height="109.64"/>
		<g>
			<path class="st4" d="M135.04-74.95c0.02-0.12,0.12-0.21,0.25-0.21c12.91-0.13,24.75-3.27,33.97-11.51
				c-8.03,5.56-22.94,7.51-31.53,3.62c-0.11-0.05-0.17-0.17-0.14-0.29c0.03-0.12,0.13-0.2,0.25-0.2
				c10.68,0.29,19.28-3.01,25.98-8.96c-6.87-0.42-12.57-4.74-12.56-9.84c0-0.12,0.08-0.22,0.2-0.25c0.12-0.03,0.23,0.04,0.28,0.14
				c1.12,2.49,4.75,3.78,8.58,2.88c4.18-0.98,7-4.19,6.3-7.17c-0.47-2.01-2.44-3.4-4.95-3.79c-0.13-0.02-0.22-0.13-0.22-0.26
				c0-0.13,0.1-0.23,0.23-0.25c1.07-0.1,2.18-0.11,3.32,0c6.49,0.62,11.51,4.6,11.95,9.18c4.71-0.55,8.88-3.16,10.38-6.77
				c0.04-0.11,0.16-0.17,0.28-0.15c0.12,0.02,0.2,0.11,0.21,0.23c0.38,4.75-1.26,7.84-4.97,10.85c5.38-2.06,11.44-2.17,17.25,0.54
				c0.11,0.05,0.16,0.16,0.14,0.28c-0.02,0.12-0.12,0.2-0.24,0.2c-4.88,0.19-8.42,1.76-11.73,5.07c18.25-5.13,33.08,6.2,27.95,23.05
				c-0.04,0.12-0.15,0.19-0.27,0.18c-0.12-0.01-0.22-0.11-0.23-0.23c-0.92-9.71-7.7-16.12-17.86-17.08
				c5.39,2.06,11,6.98,11.56,15.53c0.01,0.12-0.07,0.23-0.19,0.26c-0.12,0.03-0.24-0.03-0.29-0.14c-2.8-6.15-8.3-9.27-14.16-9.81
				c6.33,2.58,10.4,8.6,11.57,16.42c0.02,0.12-0.05,0.24-0.17,0.28c-0.12,0.04-0.25-0.02-0.3-0.12
				c-3.87-7.58-12.16-12.79-22.45-8.81c-10.62,4.11-15.27,16.39-16.3,25.04c-0.01,0.12-0.12,0.21-0.24,0.22
				c-0.12,0.01-0.23-0.07-0.26-0.2c-3.72-15.69,3.58-31.95,16.64-38.84c-7.1,2-13.44,6.26-17.03,13.35
				c-8.29,1.02-14,3.86-16.86,9.24c-0.06,0.11-0.18,0.16-0.3,0.12c-0.12-0.03-0.19-0.14-0.18-0.27c0.18-2.11,0.94-6.33,4.07-8.27
				c-6.96,0.01-12.51-0.89-17.8-3.01C135.08-74.71,135.01-74.83,135.04-74.95z M164.52-21.47c-0.1-0.07-0.23-0.05-0.32,0.03
				c-0.09,0.08-0.1,0.21-0.05,0.31c1.62,2.8,0.14,6.81-3.05,6.81c-5.72,0-8.47-10.77-7.6-20.59c2.16,5.76,4.03,8.05,7.35,10.79
				c0.09,0.08,0.23,0.08,0.32,0c0.09-0.08,0.12-0.21,0.06-0.32c-4.86-9.08-5.9-16.07-5.9-24.09c1.46,5.96,3.2,9.32,8.13,14.38
				c0.09,0.09,0.22,0.1,0.33,0.03c0.1-0.07,0.14-0.2,0.09-0.32c-5.3-11.59-4.89-24.45-0.95-34.26c0.04-0.1,0.01-0.21-0.06-0.28
				c-0.08-0.07-0.19-0.09-0.29-0.04c-5.21,2.55-8.26,4.23-12.75,10.39c1.36,7.4,0.23,11.05-3.17,17.2
				c3.94-9.92,1.84-23.89-8.19-29.59c-0.11-0.06-0.25-0.03-0.32,0.06c-0.08,0.1-0.07,0.24,0.02,0.33
				c3.78,3.96,6.53,10.63,4.16,17.93c1.53-10.39-7.6-19.12-17.78-19.12c-9.6,0-16.15,7.51-15.61,14.94
				c0.54,7.37,5.44,10.97,9.67,12.5c0.11,0.04,0.24,0,0.3-0.1c0.06-0.1,0.05-0.23-0.03-0.32c-5.61-5.69-6.38-16.49,3.58-19.76
				c-5.86,5.06-3.69,16.83,5.69,17.72c0.12,0.01,0.23-0.06,0.26-0.17c0.04-0.11,0-0.23-0.1-0.3c-2.01-1.28-3.68-3.77-3.68-6.57
				c0-4.67,3.42-6.51,5.68-6.51c3.42,0,6.26,3.26,6.26,8.18c0,5.84-5.26,10.68-12.02,11.44c-6.63,0.73-12.78-2.15-15.75-6.46
				c-0.07-0.1-0.2-0.14-0.31-0.09s-0.17,0.18-0.14,0.29c3.02,11.7,16.8,16.88,26.89,9.51c-6.61,7.5-17.01,7.61-25.72-0.09
				c-0.09-0.08-0.23-0.08-0.32-0.01c-0.1,0.07-0.13,0.21-0.07,0.31c2.67,5.41,9.25,11.82,18.61,10.88
				c8.56-0.86,13.52-9.01,14.52-15.69c0.56,8.52-1.39,14.54-8.75,20.15c-0.1,0.07-0.13,0.21-0.07,0.32c0.05,0.11,0.18,0.16,0.3,0.13
				c6.79-1.96,12.23-5.43,15.05-12.54c0,6.16-2.14,12.37-7.53,16.51c-0.1,0.07-0.13,0.21-0.07,0.31s0.18,0.16,0.3,0.13
				c3.45-0.98,6.17-2.49,8.14-5.19c1.31,11.1,6.52,17.69,12.53,17.69c4.12,0,7.21-3.03,7.21-7.87
				C169.33-15.29,167.84-19.26,164.52-21.47z M263.75-113.09c-3.16-3.9-9.54-5.39-16.43-3.99c0.51-4.3-0.33-8.79-1.61-11.48
				c-0.05-0.11-0.17-0.17-0.29-0.14c-0.12,0.03-0.2,0.14-0.19,0.26c0.38,8.77-4.62,15.84-13.45,18.91
				c6.91-4.76,8.93-14.19,5.64-19.07c-0.07-0.1-0.2-0.14-0.31-0.09c-0.11,0.04-0.18,0.16-0.15,0.28c0.37,2.06-0.61,4.68-2.71,6.73
				c-2.91,2.81-6.85,3.45-8.81,1.43c-1.96-2.03-1.2-5.95,1.71-8.76c1.06-1.03,2.26-1.76,3.45-2.18c0.11-0.04,0.18-0.15,0.17-0.27
				c-0.01-0.12-0.11-0.21-0.23-0.22c-6.39-0.55-10.77,3.25-13.51,7.88c-2.79,4.71-7.57,8.41-13.21,7.67
				c-0.12-0.02-0.23,0.05-0.27,0.17c-0.04,0.11,0.01,0.24,0.11,0.3c2.8,1.68,5.87,2.38,9.86,1.05c-5.79,4.91-14.05,7.74-21.84,5.23
				c-0.11-0.04-0.23,0.01-0.29,0.1c-0.06,0.1-0.05,0.22,0.03,0.31c5.91,6.56,17.69,6.7,25.11,1.37c-3.04,4.32-7.07,7.48-14.29,8.48
				c-0.12,0.02-0.21,0.11-0.22,0.22c-0.01,0.12,0.05,0.23,0.16,0.27c8.29,3.08,16.6-0.04,23.44-8.21
				c-2.99,6.38-7.91,11.48-14.77,14.01c-0.12,0.04-0.18,0.16-0.16,0.28c0.02,0.12,0.12,0.21,0.24,0.21
				c3.94,0.08,7.49-0.86,12.26-3.57c-3.51,5.69-2.74,15.64,2.37,22.26c0.07,0.09,0.2,0.12,0.3,0.08c0.11-0.05,0.17-0.16,0.15-0.27
				c-1.18-7.2,1.3-15.33,5.61-19.64c-2.15,7.63-0.01,14.58,5.9,19.64c0.07,0.06,0.17,0.08,0.26,0.04c0.09-0.03,0.15-0.11,0.16-0.2
				c1.23-9.42,11.77-18.97,20.6-19.78c0.12-0.01,0.22-0.11,0.23-0.24s-0.07-0.24-0.2-0.26c-4.28-0.97-8.69-0.49-12.39,1.03
				c2.66-2.93,5.94-5.11,9.55-6.25c0.12-0.04,0.19-0.15,0.18-0.27c-0.01-0.12-0.11-0.21-0.23-0.22c-4.51-0.31-8.92,1.01-12.73,3.54
				c4.36-6.62,10.98-11.54,19.43-13.51c0.12-0.03,0.2-0.14,0.2-0.26c-0.01-0.12-0.1-0.22-0.23-0.24
				c-11.92-1.3-21.75,3.32-28.22,11.92c1.65-4.9,6.37-9.76,12.95-12.62c5.85-2.55,11.85-2.95,16.42-1.51
				c0.11,0.03,0.22-0.01,0.29-0.1C263.82-112.88,263.82-113.01,263.75-113.09z M210.84-37.52c4.81-10.49,4.46-18.69,0.59-29.05
				c-0.04-0.12-0.17-0.18-0.29-0.16c-0.12,0.03-0.21,0.14-0.2,0.26c0.62,12.62-2.83,21.65-10.3,27.81
				c8.25-9.85,4.35-29.56-8.82-29.56c-9.59,0-17.52,7.98-19.46,17.52c-0.02,0.12,0.04,0.24,0.16,0.29c0.12,0.04,0.25,0,0.31-0.11
				c2.84-4.76,7.41-7.85,12.46-7.85c8.13,0,10.54,6.47,10.54,11c0,6.19-4.93,11.34-8.71,11.34c-3.44,0-5.04-2.82-5.04-4.93
				c0-3.9,3-7.17,6.38-8.16c0.12-0.04,0.2-0.15,0.18-0.28c-0.02-0.12-0.12-0.22-0.25-0.22c-4.11-0.03-7.58,1.86-9.63,5.57
				c-0.27-2.88-0.27-4.69,0.64-7.72c0.04-0.12-0.02-0.24-0.13-0.3c-0.11-0.06-0.24-0.03-0.32,0.07c-7.36,9.39-3.84,25.63,1.98,32.36
				c-5.53-3.98-10.42-12.63-10.34-24.39c0-0.12-0.09-0.23-0.21-0.25c-0.12-0.03-0.24,0.04-0.28,0.15
				c-4.11,10.25-1.93,29.25,9.28,39.85c-2.88,0.4-5.87,0.35-9.12-0.69c-0.12-0.04-0.24,0.01-0.3,0.12
				c-0.06,0.11-0.04,0.24,0.06,0.32C174.12-1.09,179.84,0,185.29,0c-4.7-5.5-3.14-16.55,4.36-16.55c5.35,0,7.78,8.3,3.65,12.78
				c-0.08,0.09-0.09,0.21-0.03,0.31c0.06,0.1,0.19,0.14,0.3,0.1c4.78-1.65,9.95-5.79,9.95-11.02c0-5.04-4.81-9.39-11.8-9.05
				c8.82-2.51,18.05,0.27,22.88,6.25c0.07,0.09,0.21,0.12,0.31,0.07c0.11-0.05,0.16-0.18,0.13-0.29
				c-2.79-10.72-11.97-15.2-23.44-13.71c9.28-3.76,23.25-0.48,29.42,7.31c0.07,0.09,0.2,0.12,0.31,0.07
				c0.11-0.05,0.16-0.17,0.14-0.28C220.09-30.62,216.6-35.57,210.84-37.52z"/>
			<path class="st5" d="M237.23-56.81c-0.02,0.12-0.12,0.21-0.25,0.21c-12.91,0.14-24.75,3.27-33.97,11.52
				c8.03-5.56,22.94-7.51,31.53-3.62c0.11,0.05,0.17,0.17,0.14,0.29c-0.03,0.12-0.13,0.2-0.25,0.2
				c-10.68-0.29-19.28,3.01-25.98,8.96c6.87,0.42,12.57,4.74,12.56,9.85c0,0.12-0.08,0.22-0.2,0.25c-0.12,0.02-0.23-0.04-0.28-0.14
				c-1.12-2.49-4.75-3.78-8.58-2.88c-4.18,0.98-7,4.19-6.3,7.17c0.47,2.01,2.44,3.4,4.95,3.79c0.13,0.02,0.22,0.13,0.22,0.26
				c0,0.13-0.1,0.23-0.23,0.25c-1.07,0.1-2.18,0.11-3.32,0c-6.49-0.62-11.51-4.59-11.95-9.18c-4.71,0.55-8.88,3.16-10.38,6.77
				c-0.04,0.11-0.16,0.17-0.28,0.15c-0.12-0.02-0.2-0.11-0.21-0.23c-0.38-4.75,1.26-7.84,4.97-10.85
				c-5.38,2.06-11.45,2.16-17.26-0.54c-0.11-0.05-0.16-0.17-0.14-0.28c0.02-0.12,0.12-0.2,0.24-0.2c4.88-0.19,8.42-1.76,11.73-5.07
				c-18.26,5.13-33.09-6.2-27.96-23.05c0.04-0.12,0.15-0.19,0.27-0.18c0.12,0.01,0.22,0.11,0.23,0.23
				c0.92,9.71,7.7,16.12,17.86,17.08c-5.39-2.06-11-6.97-11.56-15.53c-0.01-0.12,0.07-0.23,0.19-0.26c0.12-0.03,0.24,0.03,0.29,0.14
				c2.8,6.15,8.3,9.26,14.16,9.81c-6.33-2.58-10.4-8.6-11.57-16.42c-0.02-0.12,0.05-0.24,0.17-0.28c0.12-0.04,0.25,0.02,0.3,0.13
				c3.87,7.58,12.16,12.79,22.45,8.81c10.62-4.11,15.27-16.38,16.3-25.04c0.02-0.12,0.12-0.22,0.24-0.22
				c0.12-0.01,0.23,0.08,0.26,0.2c3.72,15.69-3.58,31.95-16.64,38.84c7.1-2,13.44-6.26,17.03-13.35c8.29-1.02,14-3.86,16.86-9.24
				c0.06-0.11,0.18-0.16,0.29-0.12c0.12,0.04,0.19,0.15,0.18,0.27c-0.18,2.11-0.94,6.33-4.07,8.27c6.96-0.01,12.51,0.89,17.8,3.01
				C237.18-57.04,237.25-56.93,237.23-56.81z M207.74-110.28c0.1,0.06,0.23,0.05,0.32-0.03c0.09-0.08,0.1-0.21,0.04-0.31
				c-1.62-2.8-0.14-6.81,3.05-6.81c5.72,0,8.47,10.77,7.6,20.59c-2.16-5.75-4.03-8.05-7.35-10.79c-0.09-0.08-0.23-0.08-0.32,0
				c-0.09,0.08-0.12,0.21-0.06,0.32c4.86,9.08,5.9,16.06,5.9,24.08c-1.46-5.96-3.2-9.32-8.13-14.38c-0.09-0.09-0.22-0.1-0.32-0.03
				c-0.1,0.07-0.14,0.2-0.09,0.31c5.3,11.59,4.89,24.45,0.95,34.26c-0.04,0.1-0.01,0.21,0.06,0.28c0.08,0.07,0.19,0.09,0.29,0.04
				c5.21-2.55,8.26-4.23,12.75-10.39c-1.36-7.4-0.23-11.05,3.17-17.19c-3.94,9.92-1.84,23.89,8.19,29.59
				c0.11,0.06,0.25,0.04,0.32-0.06c0.08-0.1,0.07-0.24-0.02-0.33c-3.78-3.96-6.53-10.63-4.16-17.93
				c-1.53,10.39,7.6,19.11,17.78,19.11c9.6,0,16.15-7.51,15.61-14.94c-0.54-7.37-5.44-10.97-9.67-12.5c-0.11-0.04-0.24,0-0.3,0.1
				c-0.06,0.1-0.05,0.23,0.03,0.31c5.61,5.69,6.38,16.49-3.58,19.76c5.86-5.06,3.69-16.83-5.69-17.72
				c-0.12-0.01-0.23,0.06-0.26,0.17c-0.04,0.11,0,0.23,0.1,0.3c2.01,1.28,3.68,3.77,3.68,6.57c0,4.67-3.42,6.51-5.68,6.51
				c-3.42,0-6.26-3.26-6.26-8.18c0-5.84,5.26-10.68,12.02-11.43c6.63-0.74,12.78,2.15,15.75,6.46c0.07,0.1,0.2,0.14,0.31,0.09
				c0.11-0.05,0.17-0.17,0.14-0.29c-3.02-11.7-16.8-16.88-26.89-9.51c6.61-7.5,17.01-7.61,25.72,0.09c0.09,0.08,0.22,0.09,0.32,0.01
				c0.1-0.07,0.13-0.21,0.07-0.31c-2.67-5.41-9.25-11.82-18.61-10.88c-8.56,0.86-13.52,9.02-14.52,15.69
				c-0.56-8.52,1.39-14.54,8.75-20.14c0.1-0.07,0.13-0.21,0.07-0.32c-0.05-0.11-0.18-0.16-0.3-0.13
				c-6.79,1.96-12.23,5.42-15.05,12.54c0-6.16,2.14-12.37,7.53-16.51c0.1-0.07,0.13-0.21,0.07-0.32c-0.05-0.11-0.18-0.16-0.29-0.13
				c-3.45,0.98-6.17,2.49-8.14,5.18c-1.31-11.1-6.52-17.69-12.52-17.69c-4.12,0-7.21,3.03-7.21,7.87
				C202.93-116.47,204.42-112.5,207.74-110.28z M108.51-18.66c3.16,3.9,9.54,5.39,16.43,3.99c-0.51,4.3,0.33,8.79,1.61,11.49
				c0.05,0.11,0.17,0.17,0.29,0.14c0.12-0.03,0.2-0.14,0.19-0.26c-0.38-8.77,4.62-15.84,13.45-18.91
				c-6.91,4.76-8.93,14.19-5.64,19.06c0.07,0.1,0.2,0.14,0.31,0.09c0.11-0.04,0.18-0.16,0.15-0.28c-0.37-2.06,0.61-4.68,2.71-6.72
				c2.91-2.81,6.85-3.45,8.81-1.43c1.96,2.03,1.2,5.95-1.71,8.76c-1.06,1.03-2.26,1.76-3.45,2.19c-0.11,0.04-0.18,0.15-0.17,0.27
				c0.01,0.12,0.11,0.21,0.23,0.22c6.39,0.55,10.77-3.25,13.52-7.88c2.79-4.71,7.57-8.41,13.21-7.67c0.12,0.02,0.23-0.05,0.27-0.17
				c0.04-0.11-0.01-0.24-0.11-0.3c-2.8-1.68-5.87-2.38-9.86-1.05c5.79-4.91,14.05-7.74,21.84-5.23c0.11,0.04,0.23-0.01,0.29-0.1
				c0.06-0.1,0.05-0.22-0.03-0.31c-5.91-6.56-17.69-6.7-25.11-1.37c3.04-4.32,7.07-7.49,14.29-8.48c0.12-0.02,0.21-0.11,0.22-0.22
				c0.01-0.12-0.05-0.22-0.16-0.27c-8.29-3.08-16.6,0.04-23.45,8.22c2.99-6.38,7.91-11.49,14.77-14.01
				c0.12-0.04,0.18-0.16,0.16-0.28c-0.02-0.12-0.12-0.21-0.24-0.21c-3.94-0.08-7.49,0.86-12.27,3.57
				c3.51-5.69,2.74-15.64-2.37-22.26c-0.07-0.09-0.2-0.12-0.3-0.08c-0.11,0.05-0.17,0.16-0.15,0.28c1.18,7.2-1.3,15.33-5.61,19.64
				c2.15-7.63,0.01-14.58-5.9-19.64c-0.07-0.06-0.17-0.08-0.26-0.04c-0.09,0.03-0.15,0.11-0.16,0.2
				c-1.23,9.42-11.77,18.97-20.6,19.78c-0.12,0.01-0.22,0.11-0.23,0.24c-0.01,0.12,0.07,0.24,0.2,0.26
				c4.28,0.97,8.69,0.49,12.39-1.03c-2.66,2.93-5.94,5.11-9.55,6.24c-0.12,0.04-0.19,0.15-0.18,0.27c0.01,0.12,0.11,0.22,0.23,0.22
				c4.51,0.31,8.92-1.01,12.73-3.54c-4.36,6.62-10.98,11.54-19.43,13.51c-0.12,0.03-0.2,0.14-0.2,0.26c0.01,0.12,0.1,0.22,0.23,0.24
				c11.92,1.3,21.75-3.32,28.22-11.92c-1.65,4.9-6.37,9.76-12.95,12.62c-5.85,2.55-11.85,2.95-16.42,1.51
				c-0.11-0.03-0.22,0.01-0.29,0.1C108.44-18.87,108.44-18.75,108.51-18.66z M161.42-94.23c-4.81,10.49-4.46,18.69-0.59,29.05
				c0.04,0.12,0.17,0.19,0.29,0.16c0.12-0.03,0.21-0.14,0.2-0.26c-0.62-12.62,2.83-21.65,10.3-27.81
				c-8.25,9.85-4.35,29.56,8.82,29.56c9.59,0,17.52-7.98,19.46-17.53c0.03-0.12-0.04-0.24-0.16-0.29c-0.12-0.04-0.25,0-0.31,0.11
				c-2.84,4.76-7.41,7.85-12.46,7.85c-8.13,0-10.54-6.47-10.54-11c0-6.19,4.93-11.34,8.71-11.34c3.44,0,5.04,2.82,5.04,4.93
				c0,3.9-3,7.17-6.38,8.16c-0.12,0.04-0.2,0.15-0.18,0.28c0.02,0.12,0.12,0.22,0.25,0.22c4.11,0.03,7.58-1.85,9.63-5.57
				c0.27,2.88,0.27,4.69-0.64,7.72c-0.04,0.12,0.02,0.24,0.12,0.3c0.11,0.05,0.24,0.03,0.32-0.07c7.36-9.39,3.84-25.62-1.98-32.36
				c5.53,3.98,10.42,12.63,10.34,24.39c0,0.12,0.08,0.23,0.21,0.25c0.12,0.02,0.24-0.04,0.28-0.15c4.11-10.25,1.93-29.25-9.28-39.85
				c2.88-0.4,5.87-0.35,9.12,0.69c0.12,0.04,0.24-0.01,0.3-0.12c0.06-0.11,0.04-0.24-0.06-0.32c-4.09-3.46-9.81-4.54-15.27-4.54
				c4.7,5.5,3.14,16.55-4.35,16.55c-5.35,0-7.78-8.3-3.65-12.78c0.08-0.09,0.09-0.21,0.03-0.31c-0.06-0.1-0.19-0.14-0.3-0.1
				c-4.78,1.66-9.95,5.79-9.95,11.02c0,5.04,4.81,9.39,11.8,9.05c-8.82,2.5-18.05-0.27-22.88-6.25c-0.07-0.09-0.21-0.12-0.31-0.07
				c-0.11,0.05-0.16,0.17-0.13,0.29c2.79,10.71,11.97,15.2,23.44,13.71c-9.28,3.76-23.25,0.48-29.42-7.31
				c-0.07-0.09-0.2-0.12-0.31-0.07c-0.11,0.05-0.16,0.17-0.14,0.28C152.17-101.13,155.66-96.19,161.42-94.23z"/>
		</g>
		<g>
			<path class="st4" d="M26.7-74.95c0.02-0.12,0.12-0.21,0.25-0.21c12.91-0.13,24.75-3.27,33.97-11.51
				c-8.03,5.56-22.94,7.51-31.53,3.62c-0.11-0.05-0.17-0.17-0.14-0.29c0.03-0.12,0.13-0.2,0.25-0.2
				c10.68,0.29,19.28-3.01,25.98-8.96c-6.87-0.42-12.57-4.74-12.56-9.84c0-0.12,0.08-0.22,0.2-0.25c0.12-0.03,0.23,0.04,0.28,0.14
				c1.12,2.49,4.75,3.78,8.58,2.88c4.18-0.98,7-4.19,6.3-7.17c-0.47-2.01-2.44-3.4-4.95-3.79c-0.13-0.02-0.22-0.13-0.22-0.26
				c0-0.13,0.1-0.23,0.23-0.25c1.07-0.1,2.18-0.11,3.32,0c6.49,0.62,11.51,4.6,11.95,9.18c4.71-0.55,8.88-3.16,10.38-6.77
				c0.04-0.11,0.16-0.17,0.28-0.15c0.12,0.02,0.2,0.11,0.21,0.23c0.38,4.75-1.26,7.84-4.97,10.85c5.38-2.06,11.44-2.17,17.25,0.54
				c0.11,0.05,0.16,0.16,0.14,0.28c-0.02,0.12-0.12,0.2-0.24,0.2c-4.88,0.19-8.42,1.76-11.73,5.07c18.25-5.13,33.09,6.2,27.95,23.05
				c-0.04,0.12-0.15,0.19-0.27,0.18c-0.12-0.01-0.22-0.11-0.23-0.23c-0.92-9.71-7.7-16.12-17.86-17.08
				c5.39,2.06,11,6.98,11.56,15.53c0.01,0.12-0.07,0.23-0.19,0.26c-0.12,0.03-0.24-0.03-0.29-0.14c-2.8-6.15-8.3-9.27-14.16-9.81
				c6.33,2.58,10.4,8.6,11.57,16.42c0.02,0.12-0.05,0.24-0.17,0.28c-0.12,0.04-0.25-0.02-0.3-0.12
				c-3.87-7.58-12.16-12.79-22.45-8.81c-10.62,4.11-15.27,16.39-16.3,25.04c-0.01,0.12-0.12,0.21-0.24,0.22
				c-0.12,0.01-0.23-0.07-0.26-0.2c-3.72-15.69,3.58-31.95,16.64-38.84c-7.1,2-13.44,6.26-17.03,13.35
				c-8.29,1.02-14,3.86-16.86,9.24c-0.06,0.11-0.18,0.16-0.3,0.12c-0.12-0.03-0.19-0.14-0.18-0.27c0.18-2.11,0.94-6.33,4.07-8.27
				c-6.96,0.01-12.51-0.89-17.8-3.01C26.74-74.71,26.67-74.83,26.7-74.95z M56.18-21.47c-0.1-0.07-0.23-0.05-0.32,0.03
				c-0.09,0.08-0.1,0.21-0.05,0.31c1.62,2.8,0.14,6.81-3.05,6.81c-5.72,0-8.47-10.77-7.6-20.59c2.16,5.76,4.03,8.05,7.35,10.79
				c0.09,0.08,0.23,0.08,0.32,0c0.09-0.08,0.12-0.21,0.06-0.32c-4.86-9.08-5.9-16.07-5.9-24.09c1.46,5.96,3.2,9.32,8.13,14.38
				c0.09,0.09,0.22,0.1,0.33,0.03c0.1-0.07,0.14-0.2,0.09-0.32c-5.3-11.59-4.89-24.45-0.95-34.26c0.04-0.1,0.01-0.21-0.06-0.28
				c-0.08-0.07-0.19-0.09-0.29-0.04c-5.21,2.55-8.26,4.23-12.75,10.39c1.36,7.4,0.23,11.05-3.17,17.2
				c3.94-9.92,1.84-23.89-8.19-29.59c-0.11-0.06-0.25-0.03-0.32,0.06c-0.08,0.1-0.07,0.24,0.02,0.33
				c3.78,3.96,6.53,10.63,4.16,17.93c1.53-10.39-7.6-19.12-17.78-19.12c-9.6,0-16.15,7.51-15.61,14.94
				c0.54,7.37,5.44,10.97,9.67,12.5c0.11,0.04,0.24,0,0.3-0.1c0.06-0.1,0.05-0.23-0.03-0.32c-5.61-5.69-6.38-16.49,3.58-19.76
				c-5.86,5.06-3.69,16.83,5.69,17.72c0.12,0.01,0.23-0.06,0.26-0.17c0.04-0.11,0-0.23-0.1-0.3c-2.01-1.28-3.68-3.77-3.68-6.57
				c0-4.67,3.42-6.51,5.68-6.51c3.42,0,6.26,3.26,6.26,8.18c0,5.84-5.26,10.68-12.02,11.44c-6.63,0.73-12.78-2.15-15.75-6.46
				c-0.07-0.1-0.2-0.14-0.31-0.09c-0.11,0.05-0.17,0.18-0.14,0.29c3.02,11.7,16.8,16.88,26.89,9.51C20.28-30,9.89-29.9,1.17-37.59
				c-0.09-0.08-0.23-0.08-0.32-0.01c-0.1,0.07-0.13,0.21-0.07,0.31c2.67,5.41,9.25,11.82,18.61,10.88
				c8.56-0.86,13.52-9.01,14.52-15.69c0.56,8.52-1.39,14.54-8.75,20.15c-0.1,0.07-0.13,0.21-0.07,0.32c0.05,0.11,0.18,0.16,0.3,0.13
				c6.79-1.96,12.23-5.43,15.05-12.54c0,6.16-2.14,12.37-7.53,16.51c-0.1,0.07-0.13,0.21-0.07,0.31c0.05,0.11,0.18,0.16,0.3,0.13
				c3.45-0.98,6.17-2.49,8.14-5.19c1.31,11.1,6.52,17.69,12.53,17.69c4.12,0,7.21-3.03,7.21-7.87
				C60.99-15.29,59.5-19.26,56.18-21.47z M155.41-113.09c-3.16-3.9-9.54-5.39-16.43-3.99c0.51-4.3-0.33-8.79-1.61-11.48
				c-0.05-0.11-0.17-0.17-0.29-0.14c-0.12,0.03-0.2,0.14-0.19,0.26c0.38,8.77-4.62,15.84-13.45,18.91
				c6.91-4.76,8.93-14.19,5.64-19.07c-0.07-0.1-0.2-0.14-0.31-0.09c-0.11,0.04-0.18,0.16-0.15,0.28c0.37,2.06-0.61,4.68-2.71,6.73
				c-2.91,2.81-6.85,3.45-8.81,1.43c-1.96-2.03-1.2-5.95,1.71-8.76c1.06-1.03,2.26-1.76,3.45-2.18c0.11-0.04,0.18-0.15,0.17-0.27
				c-0.01-0.12-0.11-0.21-0.23-0.22c-6.39-0.55-10.77,3.25-13.52,7.88c-2.79,4.71-7.57,8.41-13.21,7.67
				c-0.12-0.02-0.23,0.05-0.27,0.17c-0.04,0.11,0.01,0.24,0.11,0.3c2.8,1.68,5.87,2.38,9.86,1.05c-5.79,4.91-14.05,7.74-21.84,5.23
				c-0.11-0.04-0.23,0.01-0.29,0.1c-0.06,0.1-0.05,0.22,0.03,0.31c5.91,6.56,17.69,6.7,25.11,1.37c-3.04,4.32-7.07,7.48-14.29,8.48
				c-0.12,0.02-0.21,0.11-0.22,0.22c-0.01,0.12,0.05,0.23,0.16,0.27c8.29,3.08,16.6-0.04,23.45-8.21
				c-2.99,6.38-7.91,11.48-14.77,14.01c-0.12,0.04-0.18,0.16-0.16,0.28c0.02,0.12,0.12,0.21,0.24,0.21
				c3.94,0.08,7.49-0.86,12.27-3.57c-3.51,5.69-2.74,15.64,2.37,22.26c0.07,0.09,0.2,0.12,0.3,0.08c0.11-0.05,0.17-0.16,0.15-0.27
				c-1.18-7.2,1.3-15.33,5.61-19.64c-2.15,7.63-0.01,14.58,5.9,19.64c0.07,0.06,0.17,0.08,0.26,0.04c0.09-0.03,0.15-0.11,0.16-0.2
				c1.23-9.42,11.77-18.97,20.6-19.78c0.12-0.01,0.22-0.11,0.23-0.24c0.01-0.12-0.07-0.24-0.2-0.26c-4.28-0.97-8.69-0.49-12.39,1.03
				c2.66-2.93,5.94-5.11,9.55-6.25c0.12-0.04,0.19-0.15,0.18-0.27c-0.01-0.12-0.11-0.21-0.23-0.22c-4.51-0.31-8.92,1.01-12.73,3.54
				c4.36-6.62,10.98-11.54,19.43-13.51c0.12-0.03,0.2-0.14,0.2-0.26c-0.01-0.12-0.1-0.22-0.23-0.24
				c-11.92-1.3-21.75,3.32-28.22,11.92c1.65-4.9,6.37-9.76,12.95-12.62c5.85-2.55,11.85-2.95,16.42-1.51
				c0.11,0.03,0.22-0.01,0.29-0.1C155.48-112.88,155.48-113.01,155.41-113.09z M102.5-37.52c4.81-10.49,4.46-18.69,0.59-29.05
				c-0.04-0.12-0.17-0.18-0.29-0.16c-0.12,0.03-0.21,0.14-0.2,0.26c0.62,12.62-2.83,21.65-10.3,27.81
				c8.25-9.85,4.35-29.56-8.82-29.56c-9.59,0-17.52,7.98-19.46,17.52c-0.02,0.12,0.04,0.24,0.16,0.29c0.12,0.04,0.25,0,0.31-0.11
				c2.84-4.76,7.41-7.85,12.46-7.85c8.13,0,10.54,6.47,10.54,11c0,6.19-4.93,11.34-8.71,11.34c-3.44,0-5.04-2.82-5.04-4.93
				c0-3.9,3-7.17,6.38-8.16c0.12-0.04,0.2-0.15,0.18-0.28c-0.02-0.12-0.12-0.22-0.25-0.22c-4.11-0.03-7.58,1.86-9.63,5.57
				c-0.27-2.88-0.27-4.69,0.64-7.72c0.04-0.12-0.02-0.24-0.13-0.3c-0.11-0.06-0.24-0.03-0.32,0.07c-7.36,9.39-3.84,25.63,1.98,32.36
				c-5.53-3.98-10.42-12.63-10.34-24.39c0-0.12-0.08-0.23-0.21-0.25c-0.12-0.03-0.24,0.04-0.28,0.15
				c-4.11,10.25-1.93,29.25,9.28,39.85c-2.88,0.4-5.87,0.35-9.13-0.69c-0.12-0.04-0.24,0.01-0.3,0.12
				c-0.06,0.11-0.04,0.24,0.06,0.32C65.78-1.09,71.5,0,76.95,0c-4.7-5.5-3.14-16.55,4.36-16.55c5.35,0,7.78,8.3,3.65,12.78
				c-0.08,0.09-0.09,0.21-0.03,0.31c0.06,0.1,0.19,0.14,0.3,0.1c4.78-1.65,9.95-5.79,9.95-11.02c0-5.04-4.81-9.39-11.8-9.05
				c8.82-2.51,18.05,0.27,22.88,6.25c0.07,0.09,0.21,0.12,0.31,0.07c0.11-0.05,0.16-0.18,0.13-0.29
				c-2.79-10.72-11.97-15.2-23.44-13.71c9.28-3.76,23.25-0.48,29.42,7.31c0.07,0.09,0.2,0.12,0.31,0.07
				c0.11-0.05,0.16-0.17,0.14-0.28C111.76-30.62,108.26-35.57,102.5-37.52z"/>
			<path class="st5" d="M128.89-56.81c-0.02,0.12-0.12,0.21-0.25,0.21c-12.91,0.14-24.75,3.27-33.97,11.52
				c8.03-5.56,22.94-7.51,31.53-3.62c0.11,0.05,0.17,0.17,0.14,0.29c-0.03,0.12-0.13,0.2-0.25,0.2
				c-10.68-0.29-19.28,3.01-25.98,8.96c6.87,0.42,12.57,4.74,12.56,9.85c0,0.12-0.08,0.22-0.2,0.25c-0.12,0.02-0.23-0.04-0.28-0.14
				c-1.12-2.49-4.75-3.78-8.58-2.88c-4.18,0.98-7,4.19-6.3,7.17c0.47,2.01,2.44,3.4,4.95,3.79c0.13,0.02,0.22,0.13,0.22,0.26
				c0,0.13-0.1,0.23-0.23,0.25c-1.07,0.1-2.18,0.11-3.32,0c-6.49-0.62-11.51-4.59-11.95-9.18c-4.71,0.55-8.88,3.16-10.38,6.77
				c-0.04,0.11-0.16,0.17-0.28,0.15c-0.12-0.02-0.2-0.11-0.21-0.23c-0.38-4.75,1.26-7.84,4.97-10.85
				c-5.38,2.06-11.45,2.16-17.26-0.54c-0.11-0.05-0.16-0.17-0.14-0.28c0.02-0.12,0.12-0.2,0.24-0.2c4.88-0.19,8.42-1.76,11.73-5.07
				c-18.26,5.13-33.09-6.2-27.96-23.05c0.04-0.12,0.15-0.19,0.27-0.18c0.12,0.01,0.22,0.11,0.23,0.23
				c0.92,9.71,7.7,16.12,17.86,17.08c-5.39-2.06-11-6.97-11.56-15.53c-0.01-0.12,0.07-0.23,0.19-0.26c0.12-0.03,0.24,0.03,0.29,0.14
				c2.8,6.15,8.3,9.26,14.16,9.81c-6.33-2.58-10.4-8.6-11.57-16.42c-0.02-0.12,0.05-0.24,0.17-0.28c0.12-0.04,0.25,0.02,0.3,0.13
				c3.87,7.58,12.16,12.79,22.45,8.81c10.62-4.11,15.27-16.38,16.3-25.04c0.02-0.12,0.12-0.22,0.24-0.22
				c0.12-0.01,0.23,0.08,0.26,0.2C101-69.07,93.7-52.81,80.65-45.92c7.1-2,13.44-6.26,17.03-13.35c8.29-1.02,14-3.86,16.86-9.24
				c0.06-0.11,0.18-0.16,0.29-0.12c0.12,0.04,0.19,0.15,0.18,0.27c-0.18,2.11-0.94,6.33-4.07,8.27c6.96-0.01,12.51,0.89,17.8,3.01
				C128.84-57.04,128.91-56.93,128.89-56.81z M99.4-110.28c0.1,0.06,0.23,0.05,0.32-0.03c0.09-0.08,0.1-0.21,0.04-0.31
				c-1.62-2.8-0.14-6.81,3.05-6.81c5.72,0,8.47,10.77,7.6,20.59c-2.16-5.75-4.03-8.05-7.35-10.79c-0.09-0.08-0.23-0.08-0.32,0
				c-0.09,0.08-0.12,0.21-0.06,0.32c4.86,9.08,5.9,16.06,5.9,24.08c-1.46-5.96-3.2-9.32-8.13-14.38c-0.09-0.09-0.22-0.1-0.32-0.03
				c-0.1,0.07-0.14,0.2-0.09,0.31c5.3,11.59,4.89,24.45,0.95,34.26c-0.04,0.1-0.01,0.21,0.06,0.28c0.08,0.07,0.19,0.09,0.29,0.04
				c5.21-2.55,8.26-4.23,12.75-10.39c-1.36-7.4-0.23-11.05,3.17-17.19c-3.94,9.92-1.84,23.89,8.19,29.59
				c0.11,0.06,0.25,0.04,0.32-0.06c0.08-0.1,0.07-0.24-0.02-0.33c-3.78-3.96-6.53-10.63-4.16-17.93
				c-1.53,10.39,7.6,19.11,17.78,19.11c9.6,0,16.15-7.51,15.61-14.94c-0.54-7.37-5.44-10.97-9.67-12.5c-0.11-0.04-0.24,0-0.3,0.1
				c-0.06,0.1-0.05,0.23,0.03,0.31c5.61,5.69,6.38,16.49-3.58,19.76c5.86-5.06,3.69-16.83-5.69-17.72
				c-0.12-0.01-0.23,0.06-0.26,0.17c-0.04,0.11,0,0.23,0.1,0.3c2.01,1.28,3.68,3.77,3.68,6.57c0,4.67-3.42,6.51-5.68,6.51
				c-3.42,0-6.26-3.26-6.26-8.18c0-5.84,5.26-10.68,12.02-11.43c6.63-0.74,12.78,2.15,15.75,6.46c0.07,0.1,0.2,0.14,0.31,0.09
				c0.11-0.05,0.17-0.17,0.14-0.29c-3.02-11.7-16.8-16.88-26.89-9.51c6.61-7.5,17.01-7.61,25.72,0.09c0.09,0.08,0.22,0.09,0.32,0.01
				c0.1-0.07,0.13-0.21,0.07-0.31c-2.67-5.41-9.25-11.82-18.61-10.88c-8.56,0.86-13.52,9.02-14.52,15.69
				c-0.56-8.52,1.39-14.54,8.75-20.14c0.1-0.07,0.13-0.21,0.07-0.32c-0.05-0.11-0.18-0.16-0.3-0.13
				c-6.79,1.96-12.23,5.42-15.05,12.54c0-6.16,2.14-12.37,7.53-16.51c0.1-0.07,0.13-0.21,0.07-0.32c-0.05-0.11-0.18-0.16-0.29-0.13
				c-3.45,0.98-6.17,2.49-8.14,5.18c-1.31-11.1-6.52-17.69-12.53-17.69c-4.12,0-7.21,3.03-7.21,7.87
				C94.59-116.47,96.08-112.5,99.4-110.28z M0.17-18.66c3.16,3.9,9.54,5.39,16.43,3.99c-0.51,4.3,0.33,8.79,1.61,11.49
				c0.05,0.11,0.17,0.17,0.29,0.14c0.12-0.03,0.2-0.14,0.19-0.26c-0.38-8.77,4.62-15.84,13.45-18.91
				c-6.91,4.76-8.93,14.19-5.64,19.06c0.07,0.1,0.2,0.14,0.31,0.09C26.93-3.1,27-3.22,26.97-3.34c-0.37-2.06,0.61-4.68,2.71-6.72
				c2.91-2.81,6.85-3.45,8.81-1.43c1.96,2.03,1.2,5.95-1.71,8.76c-1.06,1.03-2.26,1.76-3.45,2.19c-0.11,0.04-0.18,0.15-0.17,0.27
				c0.01,0.12,0.11,0.21,0.23,0.22c6.39,0.55,10.77-3.25,13.52-7.88c2.8-4.71,7.57-8.41,13.21-7.67c0.12,0.02,0.23-0.05,0.27-0.17
				c0.04-0.11-0.01-0.24-0.11-0.3c-2.8-1.68-5.87-2.38-9.86-1.05c5.79-4.91,14.05-7.74,21.84-5.23c0.11,0.04,0.23-0.01,0.29-0.1
				c0.06-0.1,0.05-0.22-0.03-0.31c-5.91-6.56-17.69-6.7-25.11-1.37c3.04-4.32,7.07-7.49,14.29-8.48c0.12-0.02,0.21-0.11,0.22-0.22
				c0.01-0.12-0.05-0.22-0.16-0.27c-8.29-3.08-16.6,0.04-23.45,8.22c2.99-6.38,7.91-11.49,14.77-14.01
				c0.12-0.04,0.18-0.16,0.16-0.28c-0.02-0.12-0.12-0.21-0.24-0.21c-3.94-0.08-7.49,0.86-12.27,3.57
				c3.51-5.69,2.74-15.64-2.37-22.26c-0.07-0.09-0.2-0.12-0.3-0.08c-0.11,0.05-0.17,0.16-0.15,0.28c1.18,7.2-1.3,15.33-5.61,19.64
				c2.15-7.63,0.01-14.58-5.9-19.64c-0.07-0.06-0.17-0.08-0.26-0.04c-0.09,0.03-0.15,0.11-0.16,0.2
				c-1.23,9.42-11.77,18.97-20.6,19.78c-0.12,0.01-0.22,0.11-0.23,0.24c-0.01,0.12,0.07,0.24,0.2,0.26
				c4.28,0.97,8.69,0.49,12.39-1.03c-2.66,2.93-5.94,5.11-9.55,6.24c-0.12,0.04-0.19,0.15-0.18,0.27c0.01,0.12,0.11,0.22,0.23,0.22
				c4.51,0.31,8.92-1.01,12.73-3.54c-4.36,6.62-10.98,11.54-19.43,13.51c-0.12,0.03-0.2,0.14-0.2,0.26c0.01,0.12,0.1,0.22,0.23,0.24
				c11.92,1.3,21.75-3.32,28.22-11.92c-1.65,4.9-6.37,9.76-12.95,12.62c-5.85,2.55-11.85,2.95-16.42,1.51
				c-0.11-0.03-0.22,0.01-0.29,0.1C0.1-18.87,0.1-18.75,0.17-18.66z M53.08-94.23c-4.81,10.49-4.46,18.69-0.59,29.05
				c0.04,0.12,0.17,0.19,0.29,0.16c0.12-0.03,0.21-0.14,0.2-0.26c-0.62-12.62,2.83-21.65,10.3-27.81
				c-8.25,9.85-4.35,29.56,8.82,29.56c9.59,0,17.52-7.98,19.46-17.53c0.03-0.12-0.04-0.24-0.16-0.29c-0.12-0.04-0.25,0-0.31,0.11
				c-2.84,4.76-7.41,7.85-12.46,7.85c-8.13,0-10.54-6.47-10.54-11c0-6.19,4.93-11.34,8.71-11.34c3.44,0,5.04,2.82,5.04,4.93
				c0,3.9-3,7.17-6.38,8.16c-0.12,0.04-0.2,0.15-0.18,0.28c0.02,0.12,0.12,0.22,0.25,0.22c4.11,0.03,7.58-1.85,9.63-5.57
				c0.27,2.88,0.27,4.69-0.64,7.72c-0.04,0.12,0.02,0.24,0.12,0.3c0.11,0.05,0.24,0.03,0.32-0.07c7.36-9.39,3.84-25.62-1.98-32.36
				c5.53,3.98,10.42,12.63,10.34,24.39c0,0.12,0.08,0.23,0.21,0.25c0.12,0.02,0.24-0.04,0.28-0.15c4.11-10.25,1.93-29.25-9.28-39.85
				c2.88-0.4,5.87-0.35,9.12,0.69c0.12,0.04,0.24-0.01,0.3-0.12c0.06-0.11,0.04-0.24-0.06-0.32c-4.09-3.46-9.81-4.54-15.27-4.54
				c4.7,5.5,3.14,16.55-4.35,16.55c-5.35,0-7.78-8.3-3.65-12.78c0.08-0.09,0.09-0.21,0.03-0.31c-0.06-0.1-0.19-0.14-0.3-0.1
				c-4.78,1.66-9.95,5.79-9.95,11.02c0,5.04,4.81,9.39,11.8,9.05c-8.82,2.5-18.05-0.27-22.88-6.25c-0.07-0.09-0.21-0.12-0.31-0.07
				c-0.11,0.05-0.16,0.17-0.13,0.29c2.79,10.71,11.97,15.2,23.44,13.71c-9.28,3.76-23.25,0.48-29.42-7.31
				c-0.07-0.09-0.2-0.12-0.31-0.07c-0.11,0.05-0.16,0.17-0.14,0.28C43.83-101.13,47.32-96.19,53.08-94.23z"/>
		</g>
		<g>
			<path class="st4" d="M135.04-184.59c0.02-0.12,0.12-0.21,0.25-0.21c12.91-0.13,24.75-3.27,33.97-11.51
				c-8.03,5.56-22.94,7.51-31.53,3.62c-0.11-0.05-0.17-0.17-0.14-0.29c0.03-0.12,0.13-0.2,0.25-0.2
				c10.68,0.29,19.28-3.01,25.98-8.96c-6.87-0.42-12.57-4.74-12.56-9.84c0-0.12,0.08-0.22,0.2-0.25c0.12-0.03,0.23,0.04,0.28,0.14
				c1.12,2.49,4.75,3.78,8.58,2.88c4.18-0.98,7-4.19,6.3-7.17c-0.47-2.01-2.44-3.4-4.95-3.79c-0.13-0.02-0.22-0.13-0.22-0.26
				c0-0.13,0.1-0.23,0.23-0.25c1.07-0.1,2.18-0.11,3.32,0c6.49,0.62,11.51,4.6,11.95,9.18c4.71-0.55,8.88-3.16,10.38-6.77
				c0.04-0.11,0.16-0.17,0.28-0.15c0.12,0.02,0.2,0.11,0.21,0.23c0.38,4.75-1.26,7.84-4.97,10.85c5.38-2.06,11.44-2.17,17.25,0.54
				c0.11,0.05,0.16,0.16,0.14,0.28c-0.02,0.12-0.12,0.2-0.24,0.2c-4.88,0.19-8.42,1.76-11.73,5.07c18.25-5.13,33.08,6.2,27.95,23.05
				c-0.04,0.12-0.15,0.19-0.27,0.18c-0.12-0.01-0.22-0.11-0.23-0.23c-0.92-9.71-7.7-16.12-17.86-17.08
				c5.39,2.06,11,6.98,11.56,15.53c0.01,0.12-0.07,0.23-0.19,0.26c-0.12,0.03-0.24-0.03-0.29-0.14c-2.8-6.15-8.3-9.27-14.16-9.81
				c6.33,2.58,10.4,8.6,11.57,16.42c0.02,0.12-0.05,0.24-0.17,0.28c-0.12,0.04-0.25-0.02-0.3-0.12
				c-3.87-7.58-12.16-12.79-22.45-8.81c-10.62,4.11-15.27,16.39-16.3,25.04c-0.01,0.12-0.12,0.21-0.24,0.22
				c-0.12,0.01-0.23-0.07-0.26-0.2c-3.72-15.69,3.58-31.95,16.64-38.84c-7.1,2-13.44,6.26-17.03,13.35
				c-8.29,1.02-14,3.86-16.86,9.24c-0.06,0.11-0.18,0.16-0.3,0.12c-0.12-0.03-0.19-0.14-0.18-0.27c0.18-2.11,0.94-6.33,4.07-8.27
				c-6.96,0.01-12.51-0.89-17.8-3.01C135.08-184.35,135.01-184.47,135.04-184.59z M164.52-131.12c-0.1-0.07-0.23-0.05-0.32,0.03
				c-0.09,0.08-0.1,0.21-0.05,0.31c1.62,2.8,0.14,6.81-3.05,6.81c-5.72,0-8.47-10.77-7.6-20.59c2.16,5.76,4.03,8.05,7.35,10.79
				c0.09,0.08,0.23,0.08,0.32,0c0.09-0.08,0.12-0.21,0.06-0.32c-4.86-9.08-5.9-16.07-5.9-24.09c1.46,5.96,3.2,9.32,8.13,14.38
				c0.09,0.09,0.22,0.1,0.33,0.03c0.1-0.07,0.14-0.2,0.09-0.32c-5.3-11.59-4.89-24.45-0.95-34.26c0.04-0.1,0.01-0.21-0.06-0.28
				c-0.08-0.07-0.19-0.09-0.29-0.04c-5.21,2.55-8.26,4.23-12.75,10.39c1.36,7.4,0.23,11.05-3.17,17.2
				c3.94-9.92,1.84-23.89-8.19-29.59c-0.11-0.06-0.25-0.03-0.32,0.06c-0.08,0.1-0.07,0.24,0.02,0.33
				c3.78,3.96,6.53,10.63,4.16,17.93c1.53-10.39-7.6-19.12-17.78-19.12c-9.6,0-16.15,7.51-15.61,14.94
				c0.54,7.37,5.44,10.97,9.67,12.5c0.11,0.04,0.24,0,0.3-0.1c0.06-0.1,0.05-0.23-0.03-0.32c-5.61-5.69-6.38-16.49,3.58-19.76
				c-5.86,5.06-3.69,16.83,5.69,17.72c0.12,0.01,0.23-0.06,0.26-0.17c0.04-0.11,0-0.23-0.1-0.3c-2.01-1.28-3.68-3.77-3.68-6.57
				c0-4.67,3.42-6.51,5.68-6.51c3.42,0,6.26,3.26,6.26,8.18c0,5.84-5.26,10.68-12.02,11.44c-6.63,0.73-12.78-2.15-15.75-6.46
				c-0.07-0.1-0.2-0.14-0.31-0.09c-0.11,0.05-0.17,0.18-0.14,0.29c3.02,11.7,16.8,16.88,26.89,9.51c-6.61,7.5-17.01,7.61-25.72-0.09
				c-0.09-0.08-0.23-0.08-0.32-0.01c-0.1,0.07-0.13,0.21-0.07,0.31c2.67,5.41,9.25,11.82,18.61,10.88
				c8.56-0.86,13.52-9.01,14.52-15.69c0.56,8.52-1.39,14.54-8.75,20.15c-0.1,0.07-0.13,0.21-0.07,0.32c0.05,0.11,0.18,0.16,0.3,0.13
				c6.79-1.96,12.23-5.43,15.05-12.54c0,6.16-2.14,12.37-7.53,16.51c-0.1,0.07-0.13,0.21-0.07,0.31s0.18,0.16,0.3,0.13
				c3.45-0.98,6.17-2.49,8.14-5.19c1.31,11.1,6.52,17.69,12.53,17.69c4.12,0,7.21-3.03,7.21-7.87
				C169.33-124.93,167.84-128.9,164.52-131.12z M263.75-222.74c-3.16-3.9-9.54-5.39-16.43-3.99c0.51-4.3-0.33-8.79-1.61-11.48
				c-0.05-0.11-0.17-0.17-0.29-0.14c-0.12,0.03-0.2,0.14-0.19,0.26c0.38,8.77-4.62,15.84-13.45,18.91
				c6.91-4.76,8.93-14.19,5.64-19.07c-0.07-0.1-0.2-0.14-0.31-0.09c-0.11,0.04-0.18,0.16-0.15,0.28c0.37,2.06-0.61,4.68-2.71,6.73
				c-2.91,2.81-6.85,3.45-8.81,1.43c-1.96-2.03-1.2-5.95,1.71-8.76c1.06-1.03,2.26-1.76,3.45-2.18c0.11-0.04,0.18-0.15,0.17-0.27
				c-0.01-0.12-0.11-0.21-0.23-0.22c-6.39-0.55-10.77,3.25-13.51,7.88c-2.79,4.71-7.57,8.41-13.21,7.67
				c-0.12-0.02-0.23,0.05-0.27,0.17c-0.04,0.11,0.01,0.24,0.11,0.3c2.8,1.68,5.87,2.38,9.86,1.05c-5.79,4.91-14.05,7.74-21.84,5.23
				c-0.11-0.04-0.23,0.01-0.29,0.1c-0.06,0.1-0.05,0.22,0.03,0.31c5.91,6.56,17.69,6.7,25.11,1.37c-3.04,4.32-7.07,7.48-14.29,8.48
				c-0.12,0.02-0.21,0.11-0.22,0.22c-0.01,0.12,0.05,0.23,0.16,0.27c8.29,3.08,16.6-0.04,23.44-8.21
				c-2.99,6.38-7.91,11.48-14.77,14.01c-0.12,0.04-0.18,0.16-0.16,0.28c0.02,0.12,0.12,0.21,0.24,0.21
				c3.94,0.08,7.49-0.86,12.26-3.57c-3.51,5.69-2.74,15.64,2.37,22.26c0.07,0.09,0.2,0.12,0.3,0.08c0.11-0.05,0.17-0.16,0.15-0.27
				c-1.18-7.2,1.3-15.33,5.61-19.64c-2.15,7.63-0.01,14.58,5.9,19.64c0.07,0.06,0.17,0.08,0.26,0.04c0.09-0.03,0.15-0.11,0.16-0.2
				c1.23-9.42,11.77-18.97,20.6-19.78c0.12-0.01,0.22-0.11,0.23-0.24c0.01-0.12-0.07-0.24-0.2-0.26c-4.28-0.97-8.69-0.49-12.39,1.03
				c2.66-2.93,5.94-5.11,9.55-6.25c0.12-0.04,0.19-0.15,0.18-0.27c-0.01-0.12-0.11-0.21-0.23-0.22c-4.51-0.31-8.92,1.01-12.73,3.54
				c4.36-6.62,10.98-11.54,19.43-13.51c0.12-0.03,0.2-0.14,0.2-0.26c-0.01-0.12-0.1-0.22-0.23-0.24
				c-11.92-1.3-21.75,3.32-28.22,11.92c1.65-4.9,6.37-9.76,12.95-12.62c5.85-2.54,11.85-2.95,16.42-1.51
				c0.11,0.03,0.22-0.01,0.29-0.1C263.82-222.52,263.82-222.65,263.75-222.74z M210.84-147.16c4.81-10.49,4.46-18.69,0.59-29.05
				c-0.04-0.12-0.17-0.18-0.29-0.16c-0.12,0.03-0.21,0.14-0.2,0.26c0.62,12.62-2.83,21.65-10.3,27.81
				c8.25-9.85,4.35-29.56-8.82-29.56c-9.59,0-17.52,7.98-19.46,17.52c-0.02,0.12,0.04,0.24,0.16,0.29c0.12,0.04,0.25,0,0.31-0.11
				c2.84-4.76,7.41-7.85,12.46-7.85c8.13,0,10.54,6.47,10.54,11c0,6.19-4.93,11.34-8.71,11.34c-3.44,0-5.04-2.82-5.04-4.93
				c0-3.9,3-7.17,6.38-8.16c0.12-0.04,0.2-0.15,0.18-0.28c-0.02-0.12-0.12-0.22-0.25-0.22c-4.11-0.03-7.58,1.86-9.63,5.57
				c-0.27-2.88-0.27-4.69,0.64-7.72c0.04-0.12-0.02-0.24-0.13-0.3c-0.11-0.06-0.24-0.03-0.32,0.07c-7.36,9.39-3.84,25.62,1.98,32.36
				c-5.53-3.98-10.42-12.63-10.34-24.39c0-0.12-0.09-0.23-0.21-0.25c-0.12-0.03-0.24,0.04-0.28,0.15
				c-4.11,10.25-1.93,29.25,9.28,39.85c-2.88,0.4-5.87,0.35-9.12-0.69c-0.12-0.04-0.24,0.01-0.3,0.12
				c-0.06,0.11-0.04,0.24,0.06,0.32c4.09,3.46,9.81,4.54,15.27,4.54c-4.7-5.5-3.14-16.55,4.36-16.55c5.35,0,7.78,8.3,3.65,12.78
				c-0.08,0.09-0.09,0.21-0.03,0.31c0.06,0.1,0.19,0.14,0.3,0.1c4.78-1.65,9.95-5.79,9.95-11.02c0-5.04-4.81-9.39-11.8-9.05
				c8.82-2.51,18.05,0.27,22.88,6.25c0.07,0.09,0.21,0.12,0.31,0.07c0.11-0.05,0.16-0.18,0.13-0.29
				c-2.79-10.72-11.97-15.2-23.44-13.71c9.28-3.76,23.25-0.48,29.42,7.31c0.07,0.09,0.2,0.12,0.31,0.07
				c0.11-0.05,0.16-0.17,0.14-0.28C220.09-140.26,216.6-145.21,210.84-147.16z"/>
			<path class="st5" d="M237.23-166.45c-0.02,0.12-0.12,0.21-0.25,0.21c-12.91,0.14-24.75,3.27-33.97,11.52
				c8.03-5.56,22.94-7.51,31.53-3.62c0.11,0.05,0.17,0.17,0.14,0.29c-0.03,0.12-0.13,0.2-0.25,0.2
				c-10.68-0.29-19.28,3.01-25.98,8.96c6.87,0.42,12.57,4.74,12.56,9.85c0,0.12-0.08,0.22-0.2,0.25c-0.12,0.02-0.23-0.04-0.28-0.14
				c-1.12-2.49-4.75-3.78-8.58-2.88c-4.18,0.98-7,4.19-6.3,7.17c0.47,2.01,2.44,3.4,4.95,3.79c0.13,0.02,0.22,0.13,0.22,0.26
				c0,0.13-0.1,0.23-0.23,0.25c-1.07,0.1-2.18,0.11-3.32,0c-6.49-0.62-11.51-4.59-11.95-9.18c-4.71,0.55-8.88,3.16-10.38,6.77
				c-0.04,0.11-0.16,0.17-0.28,0.15c-0.12-0.02-0.2-0.11-0.21-0.23c-0.38-4.75,1.26-7.84,4.97-10.85
				c-5.38,2.06-11.45,2.16-17.26-0.54c-0.11-0.05-0.16-0.17-0.14-0.28c0.02-0.12,0.12-0.2,0.24-0.2c4.88-0.19,8.42-1.76,11.73-5.07
				c-18.26,5.13-33.09-6.2-27.96-23.05c0.04-0.12,0.15-0.19,0.27-0.18c0.12,0.01,0.22,0.11,0.23,0.23
				c0.92,9.71,7.7,16.12,17.86,17.08c-5.39-2.06-11-6.97-11.56-15.53c-0.01-0.12,0.07-0.23,0.19-0.26c0.12-0.03,0.24,0.03,0.29,0.14
				c2.8,6.15,8.3,9.26,14.16,9.81c-6.33-2.58-10.4-8.6-11.57-16.42c-0.02-0.12,0.05-0.24,0.17-0.28c0.12-0.04,0.25,0.02,0.3,0.13
				c3.87,7.58,12.16,12.79,22.45,8.81c10.62-4.11,15.27-16.38,16.3-25.04c0.02-0.12,0.12-0.22,0.24-0.22
				c0.12-0.01,0.23,0.08,0.26,0.2c3.72,15.69-3.58,31.95-16.64,38.84c7.1-2,13.44-6.26,17.03-13.35c8.29-1.02,14-3.86,16.86-9.24
				c0.06-0.11,0.18-0.16,0.29-0.12c0.12,0.04,0.19,0.15,0.18,0.27c-0.18,2.11-0.94,6.33-4.07,8.27c6.96-0.01,12.51,0.89,17.8,3.01
				C237.18-166.69,237.25-166.57,237.23-166.45z M207.74-219.92c0.1,0.06,0.23,0.05,0.32-0.03c0.09-0.08,0.1-0.21,0.04-0.31
				c-1.62-2.8-0.14-6.81,3.05-6.81c5.72,0,8.47,10.77,7.6,20.59c-2.16-5.75-4.03-8.05-7.35-10.79c-0.09-0.08-0.23-0.08-0.32,0
				c-0.09,0.08-0.12,0.21-0.06,0.32c4.86,9.08,5.9,16.06,5.9,24.08c-1.46-5.96-3.2-9.32-8.13-14.38c-0.09-0.09-0.22-0.1-0.32-0.03
				c-0.1,0.07-0.14,0.2-0.09,0.31c5.3,11.59,4.89,24.45,0.95,34.26c-0.04,0.1-0.01,0.21,0.06,0.28c0.08,0.07,0.19,0.09,0.29,0.04
				c5.21-2.55,8.26-4.23,12.75-10.39c-1.36-7.4-0.23-11.05,3.17-17.19c-3.94,9.92-1.84,23.89,8.19,29.59
				c0.11,0.06,0.25,0.04,0.32-0.06c0.08-0.1,0.07-0.24-0.02-0.33c-3.78-3.96-6.53-10.63-4.16-17.93
				c-1.53,10.39,7.6,19.11,17.78,19.11c9.6,0,16.15-7.51,15.61-14.94c-0.54-7.37-5.44-10.97-9.67-12.5c-0.11-0.04-0.24,0-0.3,0.1
				c-0.06,0.1-0.05,0.23,0.03,0.31c5.61,5.69,6.38,16.49-3.58,19.76c5.86-5.06,3.69-16.83-5.69-17.72
				c-0.12-0.01-0.23,0.06-0.26,0.17c-0.04,0.11,0,0.23,0.1,0.29c2.01,1.28,3.68,3.77,3.68,6.57c0,4.67-3.42,6.51-5.68,6.51
				c-3.42,0-6.26-3.26-6.26-8.18c0-5.84,5.26-10.68,12.02-11.43c6.63-0.74,12.78,2.15,15.75,6.46c0.07,0.1,0.2,0.14,0.31,0.09
				c0.11-0.05,0.17-0.17,0.14-0.29c-3.02-11.7-16.8-16.88-26.89-9.51c6.61-7.5,17.01-7.61,25.72,0.09c0.09,0.08,0.22,0.09,0.32,0.01
				c0.1-0.07,0.13-0.21,0.07-0.31c-2.67-5.41-9.25-11.82-18.61-10.88c-8.56,0.86-13.52,9.02-14.52,15.69
				c-0.56-8.52,1.39-14.54,8.75-20.14c0.1-0.07,0.13-0.21,0.07-0.32s-0.18-0.16-0.3-0.13c-6.79,1.96-12.23,5.42-15.05,12.54
				c0-6.16,2.14-12.37,7.53-16.51c0.1-0.07,0.13-0.21,0.07-0.32c-0.05-0.11-0.18-0.16-0.29-0.13c-3.45,0.98-6.17,2.49-8.14,5.18
				c-1.31-11.1-6.52-17.69-12.52-17.69c-4.12,0-7.21,3.03-7.21,7.87C202.93-226.11,204.42-222.14,207.74-219.92z M108.51-128.3
				c3.16,3.9,9.54,5.39,16.43,3.99c-0.51,4.3,0.33,8.79,1.61,11.49c0.05,0.11,0.17,0.17,0.29,0.14c0.12-0.03,0.2-0.14,0.19-0.26
				c-0.38-8.77,4.62-15.84,13.45-18.91c-6.91,4.76-8.93,14.19-5.64,19.06c0.07,0.1,0.2,0.14,0.31,0.09
				c0.11-0.04,0.18-0.16,0.15-0.28c-0.37-2.06,0.61-4.68,2.71-6.72c2.91-2.81,6.85-3.45,8.81-1.43c1.96,2.03,1.2,5.95-1.71,8.76
				c-1.06,1.03-2.26,1.76-3.45,2.19c-0.11,0.04-0.18,0.15-0.17,0.27c0.01,0.12,0.11,0.21,0.23,0.22c6.39,0.55,10.77-3.25,13.52-7.88
				c2.79-4.71,7.57-8.41,13.21-7.67c0.12,0.02,0.23-0.05,0.27-0.17c0.04-0.11-0.01-0.24-0.11-0.3c-2.8-1.68-5.87-2.38-9.86-1.05
				c5.79-4.91,14.05-7.74,21.84-5.23c0.11,0.04,0.23-0.01,0.29-0.1c0.06-0.1,0.05-0.22-0.03-0.31c-5.91-6.56-17.69-6.7-25.11-1.37
				c3.04-4.32,7.07-7.49,14.29-8.48c0.12-0.02,0.21-0.11,0.22-0.22c0.01-0.12-0.05-0.22-0.16-0.27c-8.29-3.08-16.6,0.04-23.45,8.22
				c2.99-6.38,7.91-11.49,14.77-14.01c0.12-0.04,0.18-0.16,0.16-0.28c-0.02-0.12-0.12-0.21-0.24-0.21
				c-3.94-0.08-7.49,0.86-12.27,3.57c3.51-5.69,2.74-15.64-2.37-22.26c-0.07-0.09-0.2-0.12-0.3-0.08c-0.11,0.05-0.17,0.16-0.15,0.28
				c1.18,7.2-1.3,15.33-5.61,19.64c2.15-7.63,0.01-14.58-5.9-19.64c-0.07-0.06-0.17-0.08-0.26-0.04c-0.09,0.03-0.15,0.11-0.16,0.2
				c-1.23,9.42-11.77,18.97-20.6,19.78c-0.12,0.01-0.22,0.11-0.23,0.24c-0.01,0.12,0.07,0.24,0.2,0.26
				c4.28,0.97,8.69,0.49,12.39-1.03c-2.66,2.93-5.94,5.11-9.55,6.24c-0.12,0.04-0.19,0.15-0.18,0.27c0.01,0.12,0.11,0.22,0.23,0.22
				c4.51,0.31,8.92-1.01,12.73-3.54c-4.36,6.62-10.98,11.54-19.43,13.51c-0.12,0.03-0.2,0.14-0.2,0.26c0.01,0.12,0.1,0.22,0.23,0.24
				c11.92,1.3,21.75-3.32,28.22-11.92c-1.65,4.9-6.37,9.76-12.95,12.62c-5.85,2.54-11.85,2.95-16.42,1.51
				c-0.11-0.03-0.22,0.01-0.29,0.1C108.44-128.51,108.44-128.39,108.51-128.3z M161.42-203.87c-4.81,10.49-4.46,18.69-0.59,29.05
				c0.04,0.12,0.17,0.19,0.29,0.16c0.12-0.03,0.21-0.14,0.2-0.26c-0.62-12.62,2.83-21.65,10.3-27.81
				c-8.25,9.85-4.35,29.56,8.82,29.56c9.59,0,17.52-7.98,19.46-17.53c0.03-0.12-0.04-0.24-0.16-0.29c-0.12-0.04-0.25,0-0.31,0.11
				c-2.84,4.76-7.41,7.85-12.46,7.85c-8.13,0-10.54-6.47-10.54-11c0-6.19,4.93-11.34,8.71-11.34c3.44,0,5.04,2.82,5.04,4.93
				c0,3.9-3,7.17-6.38,8.16c-0.12,0.04-0.2,0.15-0.18,0.28c0.02,0.12,0.12,0.22,0.25,0.22c4.11,0.03,7.58-1.85,9.63-5.57
				c0.27,2.88,0.27,4.69-0.64,7.72c-0.04,0.12,0.02,0.24,0.12,0.3c0.11,0.05,0.24,0.03,0.32-0.07c7.36-9.39,3.84-25.62-1.98-32.36
				c5.53,3.98,10.42,12.63,10.34,24.39c0,0.12,0.08,0.23,0.21,0.25c0.12,0.02,0.24-0.04,0.28-0.15c4.11-10.25,1.93-29.25-9.28-39.85
				c2.88-0.4,5.87-0.35,9.12,0.69c0.12,0.04,0.24-0.01,0.3-0.12c0.06-0.11,0.04-0.24-0.06-0.32c-4.09-3.46-9.81-4.54-15.27-4.54
				c4.7,5.5,3.14,16.55-4.35,16.55c-5.35,0-7.78-8.3-3.65-12.78c0.08-0.09,0.09-0.21,0.03-0.31c-0.06-0.1-0.19-0.14-0.3-0.1
				c-4.78,1.66-9.95,5.79-9.95,11.02c0,5.04,4.81,9.39,11.8,9.05c-8.82,2.5-18.05-0.27-22.88-6.25c-0.07-0.09-0.21-0.12-0.31-0.07
				c-0.11,0.05-0.16,0.17-0.13,0.29c2.79,10.71,11.97,15.2,23.44,13.71c-9.28,3.76-23.25,0.48-29.42-7.31
				c-0.07-0.09-0.2-0.12-0.31-0.07c-0.11,0.05-0.16,0.17-0.14,0.28C152.17-210.77,155.66-205.83,161.42-203.87z"/>
		</g>
		<g>
			<path class="st4" d="M26.7-184.59c0.02-0.12,0.12-0.21,0.25-0.21c12.91-0.13,24.75-3.27,33.97-11.51
				c-8.03,5.56-22.94,7.51-31.53,3.62c-0.11-0.05-0.17-0.17-0.14-0.29c0.03-0.12,0.13-0.2,0.25-0.2
				c10.68,0.29,19.28-3.01,25.98-8.96c-6.87-0.42-12.57-4.74-12.56-9.84c0-0.12,0.08-0.22,0.2-0.25c0.12-0.03,0.23,0.04,0.28,0.14
				c1.12,2.49,4.75,3.78,8.58,2.88c4.18-0.98,7-4.19,6.3-7.17c-0.47-2.01-2.44-3.4-4.95-3.79c-0.13-0.02-0.22-0.13-0.22-0.26
				c0-0.13,0.1-0.23,0.23-0.25c1.07-0.1,2.18-0.11,3.32,0c6.49,0.62,11.51,4.6,11.95,9.18c4.71-0.55,8.88-3.16,10.38-6.77
				c0.04-0.11,0.16-0.17,0.28-0.15c0.12,0.02,0.2,0.11,0.21,0.23c0.38,4.75-1.26,7.84-4.97,10.85c5.38-2.06,11.44-2.17,17.25,0.54
				c0.11,0.05,0.16,0.16,0.14,0.28c-0.02,0.12-0.12,0.2-0.24,0.2c-4.88,0.19-8.42,1.76-11.73,5.07c18.25-5.13,33.09,6.2,27.95,23.05
				c-0.04,0.12-0.15,0.19-0.27,0.18c-0.12-0.01-0.22-0.11-0.23-0.23c-0.92-9.71-7.7-16.12-17.86-17.08
				c5.39,2.06,11,6.98,11.56,15.53c0.01,0.12-0.07,0.23-0.19,0.26c-0.12,0.03-0.24-0.03-0.29-0.14c-2.8-6.15-8.3-9.27-14.16-9.81
				c6.33,2.58,10.4,8.6,11.57,16.42c0.02,0.12-0.05,0.24-0.17,0.28c-0.12,0.04-0.25-0.02-0.3-0.12
				c-3.87-7.58-12.16-12.79-22.45-8.81c-10.62,4.11-15.27,16.39-16.3,25.04c-0.01,0.12-0.12,0.21-0.24,0.22
				c-0.12,0.01-0.23-0.07-0.26-0.2c-3.72-15.69,3.58-31.95,16.64-38.84c-7.1,2-13.44,6.26-17.03,13.35
				c-8.29,1.02-14,3.86-16.86,9.24c-0.06,0.11-0.18,0.16-0.3,0.12c-0.12-0.03-0.19-0.14-0.18-0.27c0.18-2.11,0.94-6.33,4.07-8.27
				c-6.96,0.01-12.51-0.89-17.8-3.01C26.74-184.35,26.67-184.47,26.7-184.59z M56.18-131.12c-0.1-0.07-0.23-0.05-0.32,0.03
				c-0.09,0.08-0.1,0.21-0.05,0.31c1.62,2.8,0.14,6.81-3.05,6.81c-5.72,0-8.47-10.77-7.6-20.59c2.16,5.76,4.03,8.05,7.35,10.79
				c0.09,0.08,0.23,0.08,0.32,0c0.09-0.08,0.12-0.21,0.06-0.32c-4.86-9.08-5.9-16.07-5.9-24.09c1.46,5.96,3.2,9.32,8.13,14.38
				c0.09,0.09,0.22,0.1,0.33,0.03c0.1-0.07,0.14-0.2,0.09-0.32c-5.3-11.59-4.89-24.45-0.95-34.26c0.04-0.1,0.01-0.21-0.06-0.28
				c-0.08-0.07-0.19-0.09-0.29-0.04c-5.21,2.55-8.26,4.23-12.75,10.39c1.36,7.4,0.23,11.05-3.17,17.2
				c3.94-9.92,1.84-23.89-8.19-29.59c-0.11-0.06-0.25-0.03-0.32,0.06c-0.08,0.1-0.07,0.24,0.02,0.33
				c3.78,3.96,6.53,10.63,4.16,17.93c1.53-10.39-7.6-19.12-17.78-19.12c-9.6,0-16.15,7.51-15.61,14.94
				c0.54,7.37,5.44,10.97,9.67,12.5c0.11,0.04,0.24,0,0.3-0.1c0.06-0.1,0.05-0.23-0.03-0.32c-5.61-5.69-6.38-16.49,3.58-19.76
				c-5.86,5.06-3.69,16.83,5.69,17.72c0.12,0.01,0.23-0.06,0.26-0.17c0.04-0.11,0-0.23-0.1-0.3c-2.01-1.28-3.68-3.77-3.68-6.57
				c0-4.67,3.42-6.51,5.68-6.51c3.42,0,6.26,3.26,6.26,8.18c0,5.84-5.26,10.68-12.02,11.44c-6.63,0.73-12.78-2.15-15.75-6.46
				c-0.07-0.1-0.2-0.14-0.31-0.09c-0.11,0.05-0.17,0.18-0.14,0.29c3.02,11.7,16.8,16.88,26.89,9.51c-6.61,7.5-17.01,7.61-25.72-0.09
				c-0.09-0.08-0.23-0.08-0.32-0.01c-0.1,0.07-0.13,0.21-0.07,0.31c2.67,5.41,9.25,11.82,18.61,10.88
				c8.56-0.86,13.52-9.01,14.52-15.69c0.56,8.52-1.39,14.54-8.75,20.15c-0.1,0.07-0.13,0.21-0.07,0.32c0.05,0.11,0.18,0.16,0.3,0.13
				c6.79-1.96,12.23-5.43,15.05-12.54c0,6.16-2.14,12.37-7.53,16.51c-0.1,0.07-0.13,0.21-0.07,0.31c0.05,0.11,0.18,0.16,0.3,0.13
				c3.45-0.98,6.17-2.49,8.14-5.19c1.31,11.1,6.52,17.69,12.53,17.69c4.12,0,7.21-3.03,7.21-7.87
				C60.99-124.93,59.5-128.9,56.18-131.12z M155.41-222.74c-3.16-3.9-9.54-5.39-16.43-3.99c0.51-4.3-0.33-8.79-1.61-11.48
				c-0.05-0.11-0.17-0.17-0.29-0.14c-0.12,0.03-0.2,0.14-0.19,0.26c0.38,8.77-4.62,15.84-13.45,18.91
				c6.91-4.76,8.93-14.19,5.64-19.07c-0.07-0.1-0.2-0.14-0.31-0.09c-0.11,0.04-0.18,0.16-0.15,0.28c0.37,2.06-0.61,4.68-2.71,6.73
				c-2.91,2.81-6.85,3.45-8.81,1.43c-1.96-2.03-1.2-5.95,1.71-8.76c1.06-1.03,2.26-1.76,3.45-2.18c0.11-0.04,0.18-0.15,0.17-0.27
				c-0.01-0.12-0.11-0.21-0.23-0.22c-6.39-0.55-10.77,3.25-13.52,7.88c-2.79,4.71-7.57,8.41-13.21,7.67
				c-0.12-0.02-0.23,0.05-0.27,0.17c-0.04,0.11,0.01,0.24,0.11,0.3c2.8,1.68,5.87,2.38,9.86,1.05c-5.79,4.91-14.05,7.74-21.84,5.23
				c-0.11-0.04-0.23,0.01-0.29,0.1c-0.06,0.1-0.05,0.22,0.03,0.31c5.91,6.56,17.69,6.7,25.11,1.37c-3.04,4.32-7.07,7.48-14.29,8.48
				c-0.12,0.02-0.21,0.11-0.22,0.22c-0.01,0.12,0.05,0.23,0.16,0.27c8.29,3.08,16.6-0.04,23.45-8.21
				c-2.99,6.38-7.91,11.48-14.77,14.01c-0.12,0.04-0.18,0.16-0.16,0.28c0.02,0.12,0.12,0.21,0.24,0.21
				c3.94,0.08,7.49-0.86,12.27-3.57c-3.51,5.69-2.74,15.64,2.37,22.26c0.07,0.09,0.2,0.12,0.3,0.08c0.11-0.05,0.17-0.16,0.15-0.27
				c-1.18-7.2,1.3-15.33,5.61-19.64c-2.15,7.63-0.01,14.58,5.9,19.64c0.07,0.06,0.17,0.08,0.26,0.04c0.09-0.03,0.15-0.11,0.16-0.2
				c1.23-9.42,11.77-18.97,20.6-19.78c0.12-0.01,0.22-0.11,0.23-0.24c0.01-0.12-0.07-0.24-0.2-0.26c-4.28-0.97-8.69-0.49-12.39,1.03
				c2.66-2.93,5.94-5.11,9.55-6.25c0.12-0.04,0.19-0.15,0.18-0.27c-0.01-0.12-0.11-0.21-0.23-0.22c-4.51-0.31-8.92,1.01-12.73,3.54
				c4.36-6.62,10.98-11.54,19.43-13.51c0.12-0.03,0.2-0.14,0.2-0.26c-0.01-0.12-0.1-0.22-0.23-0.24
				c-11.92-1.3-21.75,3.32-28.22,11.92c1.65-4.9,6.37-9.76,12.95-12.62c5.85-2.54,11.85-2.95,16.42-1.51
				c0.11,0.03,0.22-0.01,0.29-0.1C155.48-222.52,155.48-222.65,155.41-222.74z M102.5-147.16c4.81-10.49,4.46-18.69,0.59-29.05
				c-0.04-0.12-0.17-0.18-0.29-0.16c-0.12,0.03-0.21,0.14-0.2,0.26c0.62,12.62-2.83,21.65-10.3,27.81
				c8.25-9.85,4.35-29.56-8.82-29.56c-9.59,0-17.52,7.98-19.46,17.52c-0.02,0.12,0.04,0.24,0.16,0.29c0.12,0.04,0.25,0,0.31-0.11
				c2.84-4.76,7.41-7.85,12.46-7.85c8.13,0,10.54,6.47,10.54,11c0,6.19-4.93,11.34-8.71,11.34c-3.44,0-5.04-2.82-5.04-4.93
				c0-3.9,3-7.17,6.38-8.16c0.12-0.04,0.2-0.15,0.18-0.28c-0.02-0.12-0.12-0.22-0.25-0.22c-4.11-0.03-7.58,1.86-9.63,5.57
				c-0.27-2.88-0.27-4.69,0.64-7.72c0.04-0.12-0.02-0.24-0.13-0.3c-0.11-0.06-0.24-0.03-0.32,0.07c-7.36,9.39-3.84,25.62,1.98,32.36
				c-5.53-3.98-10.42-12.63-10.34-24.39c0-0.12-0.08-0.23-0.21-0.25c-0.12-0.03-0.24,0.04-0.28,0.15
				c-4.11,10.25-1.93,29.25,9.28,39.85c-2.88,0.4-5.87,0.35-9.13-0.69c-0.12-0.04-0.24,0.01-0.3,0.12
				c-0.06,0.11-0.04,0.24,0.06,0.32c4.09,3.46,9.81,4.54,15.27,4.54c-4.7-5.5-3.14-16.55,4.36-16.55c5.35,0,7.78,8.3,3.65,12.78
				c-0.08,0.09-0.09,0.21-0.03,0.31c0.06,0.1,0.19,0.14,0.3,0.1c4.78-1.65,9.95-5.79,9.95-11.02c0-5.04-4.81-9.39-11.8-9.05
				c8.82-2.51,18.05,0.27,22.88,6.25c0.07,0.09,0.21,0.12,0.31,0.07c0.11-0.05,0.16-0.18,0.13-0.29
				c-2.79-10.72-11.97-15.2-23.44-13.71c9.28-3.76,23.25-0.48,29.42,7.31c0.07,0.09,0.2,0.12,0.31,0.07
				c0.11-0.05,0.16-0.17,0.14-0.28C111.76-140.26,108.26-145.21,102.5-147.16z"/>
			<path class="st5" d="M128.89-166.45c-0.02,0.12-0.12,0.21-0.25,0.21c-12.91,0.14-24.75,3.27-33.97,11.52
				c8.03-5.56,22.94-7.51,31.53-3.62c0.11,0.05,0.17,0.17,0.14,0.29c-0.03,0.12-0.13,0.2-0.25,0.2
				c-10.68-0.29-19.28,3.01-25.98,8.96c6.87,0.42,12.57,4.74,12.56,9.85c0,0.12-0.08,0.22-0.2,0.25c-0.12,0.02-0.23-0.04-0.28-0.14
				c-1.12-2.49-4.75-3.78-8.58-2.88c-4.18,0.98-7,4.19-6.3,7.17c0.47,2.01,2.44,3.4,4.95,3.79c0.13,0.02,0.22,0.13,0.22,0.26
				c0,0.13-0.1,0.23-0.23,0.25c-1.07,0.1-2.18,0.11-3.32,0c-6.49-0.62-11.51-4.59-11.95-9.18c-4.71,0.55-8.88,3.16-10.38,6.77
				c-0.04,0.11-0.16,0.17-0.28,0.15c-0.12-0.02-0.2-0.11-0.21-0.23c-0.38-4.75,1.26-7.84,4.97-10.85
				c-5.38,2.06-11.45,2.16-17.26-0.54c-0.11-0.05-0.16-0.17-0.14-0.28c0.02-0.12,0.12-0.2,0.24-0.2c4.88-0.19,8.42-1.76,11.73-5.07
				c-18.26,5.13-33.09-6.2-27.96-23.05c0.04-0.12,0.15-0.19,0.27-0.18c0.12,0.01,0.22,0.11,0.23,0.23
				c0.92,9.71,7.7,16.12,17.86,17.08c-5.39-2.06-11-6.97-11.56-15.53c-0.01-0.12,0.07-0.23,0.19-0.26c0.12-0.03,0.24,0.03,0.29,0.14
				c2.8,6.15,8.3,9.26,14.16,9.81c-6.33-2.58-10.4-8.6-11.57-16.42c-0.02-0.12,0.05-0.24,0.17-0.28c0.12-0.04,0.25,0.02,0.3,0.13
				c3.87,7.58,12.16,12.79,22.45,8.81c10.62-4.11,15.27-16.38,16.3-25.04c0.02-0.12,0.12-0.22,0.24-0.22
				c0.12-0.01,0.23,0.08,0.26,0.2c3.72,15.69-3.58,31.95-16.64,38.84c7.1-2,13.44-6.26,17.03-13.35c8.29-1.02,14-3.86,16.86-9.24
				c0.06-0.11,0.18-0.16,0.29-0.12c0.12,0.04,0.19,0.15,0.18,0.27c-0.18,2.11-0.94,6.33-4.07,8.27c6.96-0.01,12.51,0.89,17.8,3.01
				C128.84-166.69,128.91-166.57,128.89-166.45z M99.4-219.92c0.1,0.06,0.23,0.05,0.32-0.03c0.09-0.08,0.1-0.21,0.04-0.31
				c-1.62-2.8-0.14-6.81,3.05-6.81c5.72,0,8.47,10.77,7.6,20.59c-2.16-5.75-4.03-8.05-7.35-10.79c-0.09-0.08-0.23-0.08-0.32,0
				c-0.09,0.08-0.12,0.21-0.06,0.32c4.86,9.08,5.9,16.06,5.9,24.08c-1.46-5.96-3.2-9.32-8.13-14.38c-0.09-0.09-0.22-0.1-0.32-0.03
				c-0.1,0.07-0.14,0.2-0.09,0.31c5.3,11.59,4.89,24.45,0.95,34.26c-0.04,0.1-0.01,0.21,0.06,0.28c0.08,0.07,0.19,0.09,0.29,0.04
				c5.21-2.55,8.26-4.23,12.75-10.39c-1.36-7.4-0.23-11.05,3.17-17.19c-3.94,9.92-1.84,23.89,8.19,29.59
				c0.11,0.06,0.25,0.04,0.32-0.06c0.08-0.1,0.07-0.24-0.02-0.33c-3.78-3.96-6.53-10.63-4.16-17.93
				c-1.53,10.39,7.6,19.11,17.78,19.11c9.6,0,16.15-7.51,15.61-14.94c-0.54-7.37-5.44-10.97-9.67-12.5c-0.11-0.04-0.24,0-0.3,0.1
				c-0.06,0.1-0.05,0.23,0.03,0.31c5.61,5.69,6.38,16.49-3.58,19.76c5.86-5.06,3.69-16.83-5.69-17.72
				c-0.12-0.01-0.23,0.06-0.26,0.17c-0.04,0.11,0,0.23,0.1,0.29c2.01,1.28,3.68,3.77,3.68,6.57c0,4.67-3.42,6.51-5.68,6.51
				c-3.42,0-6.26-3.26-6.26-8.18c0-5.84,5.26-10.68,12.02-11.43c6.63-0.74,12.78,2.15,15.75,6.46c0.07,0.1,0.2,0.14,0.31,0.09
				c0.11-0.05,0.17-0.17,0.14-0.29c-3.02-11.7-16.8-16.88-26.89-9.51c6.61-7.5,17.01-7.61,25.72,0.09c0.09,0.08,0.22,0.09,0.32,0.01
				c0.1-0.07,0.13-0.21,0.07-0.31c-2.67-5.41-9.25-11.82-18.61-10.88c-8.56,0.86-13.52,9.02-14.52,15.69
				c-0.56-8.52,1.39-14.54,8.75-20.14c0.1-0.07,0.13-0.21,0.07-0.32s-0.18-0.16-0.3-0.13c-6.79,1.96-12.23,5.42-15.05,12.54
				c0-6.16,2.14-12.37,7.53-16.51c0.1-0.07,0.13-0.21,0.07-0.32c-0.05-0.11-0.18-0.16-0.29-0.13c-3.45,0.98-6.17,2.49-8.14,5.18
				c-1.31-11.1-6.52-17.69-12.53-17.69c-4.12,0-7.21,3.03-7.21,7.87C94.59-226.11,96.08-222.14,99.4-219.92z M0.17-128.3
				c3.16,3.9,9.54,5.39,16.43,3.99c-0.51,4.3,0.33,8.79,1.61,11.49c0.05,0.11,0.17,0.17,0.29,0.14c0.12-0.03,0.2-0.14,0.19-0.26
				c-0.38-8.77,4.62-15.84,13.45-18.91c-6.91,4.76-8.93,14.19-5.64,19.06c0.07,0.1,0.2,0.14,0.31,0.09
				c0.11-0.04,0.18-0.16,0.15-0.28c-0.37-2.06,0.61-4.68,2.71-6.72c2.91-2.81,6.85-3.45,8.81-1.43c1.96,2.03,1.2,5.95-1.71,8.76
				c-1.06,1.03-2.26,1.76-3.45,2.19c-0.11,0.04-0.18,0.15-0.17,0.27c0.01,0.12,0.11,0.21,0.23,0.22c6.39,0.55,10.77-3.25,13.52-7.88
				c2.8-4.71,7.57-8.41,13.21-7.67c0.12,0.02,0.23-0.05,0.27-0.17c0.04-0.11-0.01-0.24-0.11-0.3c-2.8-1.68-5.87-2.38-9.86-1.05
				c5.79-4.91,14.05-7.74,21.84-5.23c0.11,0.04,0.23-0.01,0.29-0.1c0.06-0.1,0.05-0.22-0.03-0.31c-5.91-6.56-17.69-6.7-25.11-1.37
				c3.04-4.32,7.07-7.49,14.29-8.48c0.12-0.02,0.21-0.11,0.22-0.22c0.01-0.12-0.05-0.22-0.16-0.27c-8.29-3.08-16.6,0.04-23.45,8.22
				c2.99-6.38,7.91-11.49,14.77-14.01c0.12-0.04,0.18-0.16,0.16-0.28c-0.02-0.12-0.12-0.21-0.24-0.21
				c-3.94-0.08-7.49,0.86-12.27,3.57c3.51-5.69,2.74-15.64-2.37-22.26c-0.07-0.09-0.2-0.12-0.3-0.08c-0.11,0.05-0.17,0.16-0.15,0.28
				c1.18,7.2-1.3,15.33-5.61,19.64c2.15-7.63,0.01-14.58-5.9-19.64c-0.07-0.06-0.17-0.08-0.26-0.04c-0.09,0.03-0.15,0.11-0.16,0.2
				c-1.23,9.42-11.77,18.97-20.6,19.78c-0.12,0.01-0.22,0.11-0.23,0.24c-0.01,0.12,0.07,0.24,0.2,0.26
				c4.28,0.97,8.69,0.49,12.39-1.03c-2.66,2.93-5.94,5.11-9.55,6.24c-0.12,0.04-0.19,0.15-0.18,0.27c0.01,0.12,0.11,0.22,0.23,0.22
				c4.51,0.31,8.92-1.01,12.73-3.54c-4.36,6.62-10.98,11.54-19.43,13.51c-0.12,0.03-0.2,0.14-0.2,0.26c0.01,0.12,0.1,0.22,0.23,0.24
				c11.92,1.3,21.75-3.32,28.22-11.92c-1.65,4.9-6.37,9.76-12.95,12.62c-5.85,2.54-11.85,2.95-16.42,1.51
				c-0.11-0.03-0.22,0.01-0.29,0.1C0.1-128.51,0.1-128.39,0.17-128.3z M53.08-203.87c-4.81,10.49-4.46,18.69-0.59,29.05
				c0.04,0.12,0.17,0.19,0.29,0.16c0.12-0.03,0.21-0.14,0.2-0.26c-0.62-12.62,2.83-21.65,10.3-27.81
				c-8.25,9.85-4.35,29.56,8.82,29.56c9.59,0,17.52-7.98,19.46-17.53c0.03-0.12-0.04-0.24-0.16-0.29c-0.12-0.04-0.25,0-0.31,0.11
				c-2.84,4.76-7.41,7.85-12.46,7.85c-8.13,0-10.54-6.47-10.54-11c0-6.19,4.93-11.34,8.71-11.34c3.44,0,5.04,2.82,5.04,4.93
				c0,3.9-3,7.17-6.38,8.16c-0.12,0.04-0.2,0.15-0.18,0.28c0.02,0.12,0.12,0.22,0.25,0.22c4.11,0.03,7.58-1.85,9.63-5.57
				c0.27,2.88,0.27,4.69-0.64,7.72c-0.04,0.12,0.02,0.24,0.12,0.3c0.11,0.05,0.24,0.03,0.32-0.07c7.36-9.39,3.84-25.62-1.98-32.36
				c5.53,3.98,10.42,12.63,10.34,24.39c0,0.12,0.08,0.23,0.21,0.25c0.12,0.02,0.24-0.04,0.28-0.15c4.11-10.25,1.93-29.25-9.28-39.85
				c2.88-0.4,5.87-0.35,9.12,0.69c0.12,0.04,0.24-0.01,0.3-0.12c0.06-0.11,0.04-0.24-0.06-0.32c-4.09-3.46-9.81-4.54-15.27-4.54
				c4.7,5.5,3.14,16.55-4.35,16.55c-5.35,0-7.78-8.3-3.65-12.78c0.08-0.09,0.09-0.21,0.03-0.31c-0.06-0.1-0.19-0.14-0.3-0.1
				c-4.78,1.66-9.95,5.79-9.95,11.02c0,5.04,4.81,9.39,11.8,9.05c-8.82,2.5-18.05-0.27-22.88-6.25c-0.07-0.09-0.21-0.12-0.31-0.07
				c-0.11,0.05-0.16,0.17-0.13,0.29c2.79,10.71,11.97,15.2,23.44,13.71c-9.28,3.76-23.25,0.48-29.42-7.31
				c-0.07-0.09-0.2-0.12-0.31-0.07c-0.11,0.05-0.16,0.17-0.14,0.28C43.83-210.77,47.32-205.83,53.08-203.87z"/>
		</g>
	</g>
</pattern>
<g id="electric">
	<path class="st6" d="M60.22,26.95c-3.15,1.36-6.61,2.92-7.42,4.69c-1.52,3.33-0.95,7.85-0.69,11.98h17.05V25.36
		c-0.57,0.08-1.14,0.15-1.7,0.23C65.07,25.95,62.62,26.36,60.22,26.95z"/>
	<path class="st7" d="M52.11,43.62c0.1,1.64,0.15,3.23,0,4.65c-0.17,1.64-0.98,3.29-2.07,4.74c-0.13,2.44-0.57,4.95-0.52,7.77
		c0.02,0.96,0.12,1.91,0.28,2.85h19.36v-20H52.11z"/>
	<path class="st8" d="M49.8,63.62c0.9,5.47,3.78,10.61,4.64,16.09c0.2,1.26,0.27,2.57,0.27,3.91h14.46v-20H49.8z"/>
	<path class="st9" d="M54.7,83.62c-0.02,5.66-1.5,11.89-1.46,17.65c0.45,0.32,0.89,0.62,1.28,0.92c0.61,0.46,1.16,0.94,1.68,1.44
		h12.96v-20H54.7z"/>
	<path class="st7" d="M69.16,25.36v18.26h20v-20C82.46,23.82,75.76,24.44,69.16,25.36z"/>
	<rect x="69.16" y="43.62" class="st8" width="20" height="20"/>
	<rect x="69.16" y="63.62" class="st6" width="20" height="20"/>
	<path class="st9" d="M130.92,35.93c-0.57-0.61-1.16-1.17-1.76-1.7v9.39h8.18C135.33,40.93,133.21,38.35,130.92,35.93z"/>
	<path class="st6" d="M109.16,26.67v16.96h20v-9.39C123.33,29.01,116.54,27.24,109.16,26.67z"/>
	<path class="st8" d="M100.94,26.4c-1.45,0-1.53-1.28-1.17-2.68c-0.74-0.03-1.48-0.08-2.22-0.1h-8.33c-0.02,0-0.04,0-0.06,0v20h20
		V26.67C106.5,26.46,103.75,26.4,100.94,26.4z"/>
	<rect x="89.16" y="43.62" class="st6" width="20" height="20"/>
	<path class="st8" d="M137.34,43.62h-8.18v20h20v-1.82C145.44,55.61,141.65,49.37,137.34,43.62z"/>
	<path class="st6" d="M145.76,73.47c0.39-2.31,1.7-4.55,3.41-6.28v-3.57h-20v20h17.69C145.78,80.32,145.14,77.08,145.76,73.47z"/>
	<path class="st9" d="M147.66,85.92c-0.29-0.77-0.55-1.54-0.8-2.3h-17.69v20h20V91.6C148.85,89.73,148.38,87.87,147.66,85.92z"/>
	<path class="st9" d="M134.8,120.35c3.67-0.98,8.47-1.99,11.09-4.99c1.57-1.8,2.53-4.25,3.28-6.75v-4.99h-20v18.39
		C131.01,121.39,132.89,120.86,134.8,120.35z"/>
	<rect x="109.16" y="43.62" class="st9" width="20" height="20"/>
	<rect x="89.16" y="63.62" class="st8" width="20" height="20"/>
	<rect x="109.16" y="63.62" class="st10" width="20" height="20"/>
	<rect x="69.16" y="83.62" class="st10" width="20" height="20"/>
	<rect x="89.16" y="83.62" class="st6" width="20" height="20"/>
	<rect x="109.16" y="83.62" class="st9" width="20" height="20"/>
	<path class="st9" d="M74.18,120.74c3.79,0.41,7.5,1.03,11.25,1.76c1.25,0.24,2.49,0.51,3.73,0.77v-19.65h-20v16.07
		C70.69,120.31,72.36,120.55,74.18,120.74z"/>
	<path class="st10" d="M90.86,123.62h18.3v-20h-20v19.65C89.73,123.39,90.3,123.5,90.86,123.62z"/>
	<path class="st8" d="M129.16,122.01v-18.39h-20v20h15.77C126.32,123.01,127.73,122.49,129.16,122.01z"/>
	<path class="st6" d="M65.86,117.4c1.01,1.12,2.12,1.82,3.31,2.3v-16.07H56.2C60.45,107.7,61.86,112.96,65.86,117.4z"/>
	<path class="st7" d="M60.22,26.95c-3.15,1.36-6.61,2.92-7.42,4.69c-0.3,0.66-0.51,1.37-0.67,2.11c0.54-0.25,1.09-0.56,1.71-0.92
		c0.77-0.45,2.21-0.8,2.99-0.12c0.85,0.74,0.54,2.05,0.3,2.98c-0.7,2.7-2.82,4.96-5.11,6.57c0.03,0.38,0.05,0.76,0.08,1.13h17.44
		V25.31c-0.69,0.1-1.39,0.18-2.08,0.28C65.07,25.95,62.62,26.36,60.22,26.95z"/>
	<path class="st7" d="M61.69,47.54c1.71,0.67,3.45,1.21,5.22,1.64c0.8-0.87,1.7-1.65,2.63-2.24v-3.55H52.1
		c0.11,1.73,0.17,3.39,0.02,4.88c-0.18,1.64-0.98,3.3-2.07,4.75c-0.11,2.06-0.43,4.16-0.5,6.46v1.51c0.02,0.81,0.1,1.61,0.22,2.4
		h19.78v-1.57c-5.32-0.22-10.54-1.09-15.47-3.02C49.48,57.01,57.93,46.07,61.69,47.54z"/>
	<path class="st7" d="M49.76,63.39c0.86,5.56,3.81,10.77,4.68,16.32c0.19,1.19,0.26,2.42,0.26,3.68h14.83v-20H49.76z"/>
	<path class="st7" d="M54.7,83.39c0,1.08-0.05,2.18-0.13,3.29c4.99,0.24,9.97,0.87,14.97,1.08v-4.37H54.7z"/>
	<path class="st7" d="M53.33,98.43c-0.06,0.96-0.09,1.91-0.09,2.84c0.45,0.32,0.89,0.62,1.28,0.92c0.51,0.38,0.98,0.79,1.43,1.2
		h13.59V99.2C64.21,99.46,58.68,98.9,53.33,98.43z"/>
	<path class="st7" d="M89.54,23.61c-6.7,0.18-13.4,0.79-20,1.7v18.08h8.4c3.39-1.37,6.77-2.92,9.55-5.02
		c-1.3-1.94,0.09-4.78,2.05-7.02V23.61z"/>
	<path class="st7" d="M70.76,46.28c2.24-0.98,4.71-1.89,7.17-2.89h-8.4v3.55C69.94,46.69,70.35,46.46,70.76,46.28z"/>
	<path class="st7" d="M89.54,49.9v-4.84c-2.71,2.12-5.66,3.89-8.71,5.48C83.72,50.48,86.64,50.24,89.54,49.9z"/>
	<path class="st7" d="M69.54,61.82v1.57h20v-3.1C82.94,61.35,76.16,62.1,69.54,61.82z"/>
	<path class="st7" d="M87.85,82.15c0.39-1.82,0.84-3.75,1.29-5.74c-2.91,0.67-5.87,1.19-8.89,1.44c-5.82,0.47,1.64-10.84,5.58-11.16
		c1.24-0.1,2.48-0.26,3.7-0.44v-2.85h-20v20h18.05C87.67,82.97,87.76,82.55,87.85,82.15z"/>
	<path class="st7" d="M130.92,35.93c-0.45-0.48-0.92-0.93-1.39-1.36v6.41c1.48-0.52,2.95-1.07,4.42-1.64
		C132.97,38.18,131.97,37.04,130.92,35.93z"/>
	<path class="st7" d="M126.61,32.21c-5.66-0.18-11.45,0.26-17.07,1.18v9.99h12.44c2.55-0.73,5.07-1.53,7.56-2.4v-6.41
		C128.59,33.69,127.61,32.92,126.61,32.21z"/>
	<path class="st7" d="M89.54,23.61v7.74c0.67-0.77,1.41-1.46,2.12-2.03c0.04-1.96-0.13-3.97-0.23-5.77
		C90.8,23.57,90.17,23.6,89.54,23.61z"/>
	<path class="st7" d="M100.6,35.27c0.9,2.62,1.4,5.34,1.62,8.12h7.31V33.4C106.49,33.89,103.5,34.53,100.6,35.27z"/>
	<path class="st7" d="M101.3,58.18c-0.27,1.74-0.55,3.47-0.85,5.21h1.25c2.62-0.79,5.23-1.66,7.84-2.53v-4.45
		C106.83,57.06,104.08,57.66,101.3,58.18z"/>
	<path class="st7" d="M102.34,47.87c0.96-0.18,1.92-0.36,2.87-0.54c1.45-0.27,2.89-0.57,4.32-0.87v-3.08h-7.31
		C102.34,44.87,102.37,46.37,102.34,47.87z"/>
	<path class="st7" d="M91.94,49.6c-0.28-1.87-0.69-3.7-1.33-5.43c-0.36,0.3-0.71,0.61-1.07,0.89v4.84
		C90.34,49.81,91.14,49.71,91.94,49.6z"/>
	<path class="st7" d="M89.54,60.29v3.1h2.17c0.17-1.18,0.29-2.35,0.4-3.53C91.25,60.01,90.4,60.15,89.54,60.29z"/>
	<path class="st7" d="M139.09,46.01c-3.15,1.49-6.33,2.88-9.55,4.14v5.29c1.87-0.28,3.76-0.5,5.68-0.58
		c2.99-0.14,6.66,0.01,10.13,0.66C143.34,52.28,141.27,49.09,139.09,46.01z"/>
	<path class="st7" d="M146.25,71.69c0.13-0.83-0.28-1.71-1.61-2.65c-3.93-2.77-9.77-3.32-15.11-3.04v17.39h3.19
		c0.07-0.05,0.13-0.1,0.2-0.15c3.2-2.42,6.99-5.05,9.07-6.94c1.4-1.27,3.28-2.51,3.99-3.84C146.07,72.2,146.16,71.94,146.25,71.69z"
		/>
	<path class="st7" d="M146.15,81.2c-0.81,0.75-1.64,1.48-2.49,2.19h3.12C146.55,82.66,146.33,81.93,146.15,81.2z"/>
	<path class="st7" d="M147.66,85.92c-0.32-0.85-0.61-1.69-0.88-2.53h-3.12c-3.55,2.97-7.36,5.66-10.93,8.35
		c-0.74,0.56-1.89,1.32-3.19,2.23v9.42h20v-8.71C149.31,91.72,148.77,88.92,147.66,85.92z"/>
	<path class="st7" d="M129.54,85.84c1.06-0.82,2.12-1.64,3.19-2.45h-3.19V85.84z"/>
	<path class="st7" d="M147.53,112.85c0.87-1.7,1.48-3.61,2-5.51v-3.95h-20v7.14c3.21,0.88,6.62,1.3,9.62,1.66
		C141.94,112.52,144.73,112.72,147.53,112.85z"/>
	<path class="st7" d="M121.98,43.39h-12.44v3.08C113.77,45.58,117.91,44.56,121.98,43.39z"/>
	<path class="st7" d="M109.54,56.41v4.45c6.58-2.19,13.16-4.38,20-5.42v-5.29C123.06,52.69,116.41,54.76,109.54,56.41z"/>
	<path class="st7" d="M96.81,81.17c-0.17,0.74-0.36,1.48-0.55,2.22h13.27V70.13c-3.7,1.18-7.38,2.47-11.08,3.65
		C97.93,76.26,97.39,78.72,96.81,81.17z"/>
	<path class="st7" d="M129.54,66c-2.29,0.12-4.48,0.38-6.4,0.69c-4.64,0.75-9.15,2.02-13.6,3.45v13.26h20V66z"/>
	<path class="st7" d="M87.26,84.77c0.01-0.01,0.03-0.02,0.04-0.03c0.1-0.46,0.19-0.91,0.29-1.36H69.54v4.37
		c0.05,0,0.11,0.01,0.16,0.01C75.27,88,82.6,88.4,87.26,84.77z"/>
	<path class="st7" d="M84.81,94.88c-4.6,2.94-9.83,4.06-15.28,4.32v4.19h11.95C82.86,100.73,83.93,97.83,84.81,94.88z"/>
	<path class="st7" d="M89.54,102.05v1.34h20v-20H96.26C94.66,89.66,92.51,96.1,89.54,102.05z"/>
	<path class="st7" d="M129.54,93.97c-3.61,2.51-8.38,6.1-8.93,9.42h8.93V93.97z"/>
	<path class="st7" d="M120.63,93.49c2.79-2.74,5.82-5.24,8.91-7.65v-2.45h-20v20h2.89C114.81,99.41,118.32,95.75,120.63,93.49z"/>
	<path class="st7" d="M71.63,113.52c4.45-1.97,7.56-5.7,9.85-10.13H69.54v11.4C70.22,114.27,70.93,113.83,71.63,113.52z"/>
	<path class="st7" d="M74.18,120.74c3.79,0.41,7.5,1.03,11.25,1.76c1.37,0.27,2.73,0.56,4.1,0.84v-19.96h-0.69
		c-3.63,6.88-8.43,13.02-14.82,17.34C74.08,120.73,74.13,120.74,74.18,120.74z"/>
	<path class="st7" d="M89.54,103.39v19.96c0.06,0.01,0.13,0.03,0.19,0.04h19.81v-20H89.54z"/>
	<path class="st7" d="M122.22,107.07c2.05,1.65,4.61,2.72,7.31,3.46v-7.14h-8.93C120.39,104.69,120.82,105.94,122.22,107.07z"/>
	<path class="st7" d="M126.98,122.79c-5.16-0.86-11.41-2.3-14.94-6.03c-3.62-3.83-2.34-8.81,0.39-13.37h-2.89v20h15.95
		C125.98,123.18,126.48,122.98,126.98,122.79z"/>
	<path class="st7" d="M65.86,117.4c0.21,0.24,0.44,0.44,0.66,0.64c0.82-1.23,1.87-2.37,3.02-3.25v-11.4H55.95
		C60.39,107.5,61.78,112.88,65.86,117.4z"/>
	<g>
		<g>
			<path class="st11" d="M50.73,71.09c-4.99,1.65-9.98,3.29-14.96,4.94c-1.88,0.62-1.07,3.15,0.8,2.89
				c5.74-0.79,11.47-1.58,17.21-2.36c-0.39-0.91-0.77-1.83-1.16-2.74C43.67,78,34.73,82.17,25.78,86.35
				c-1.38,0.64-0.66,2.83,0.76,2.8c4.68-0.11,9.35-0.22,14.03-0.34c-0.48-0.63-0.96-1.27-1.45-1.9c-0.21,1.32-0.85,1.95-1.98,2.57
				c-1.58,0.87-0.43,3.01,1.16,2.74c10.23-1.74,20.46-3.48,30.69-5.22c-0.39-0.91-0.77-1.83-1.16-2.74
				c-6.95,3.94-13.9,7.87-20.85,11.81c-1.28,0.73-0.73,2.83,0.76,2.8c11.26-0.24,22.53-0.48,33.79-0.72
				c-0.35-0.85-0.71-1.71-1.06-2.56c-3.7,3.95-8.08,6.98-12.84,9.52c-1.52,0.81-0.47,3.17,1.16,2.74
				c10.99-2.91,22.05-5.52,33.08-8.25c2.83-0.7,5.65-1.41,8.47-2.13c2.55-0.65,5.3-1.12,7.73-2.12c3.79-1.55,7.58-3.18,10.9-5.62
				c2.15-1.57,4.1-3.39,5.79-5.45c0.87-1.06,1.58-2.5,2.84-3.14c1.02-0.52,2.19-0.68,3.25-1.09c1.52-0.59,1.39-2.91-0.4-2.95
				c-3.82-0.08-7.62,0.32-11.31,1.34c0.27,0.96,0.53,1.93,0.8,2.89c7.12-2.09,14.09-4.69,20.77-7.91c1.21-0.58,0.8-2.4-0.36-2.74
				c-4.01-1.19-8.18-1.45-12.32-0.9c0.25,0.93,0.5,1.86,0.76,2.8c6.53-2.95,13.06-5.91,19.59-8.86c1.43-0.64,0.62-2.77-0.76-2.8
				c-2.63-0.05-5.27-0.1-7.9-0.15c0.25,0.93,0.5,1.86,0.76,2.8c3.94-1.87,7.88-3.75,11.81-5.62c1.51-0.72,0.53-2.62-0.76-2.8
				c-4.88-0.65-9.79-1.07-14.72-1.25c-1.93-0.07-1.93,2.93,0,3c4.92,0.18,9.83,0.6,14.72,1.25c-0.25-0.93-0.5-1.86-0.76-2.8
				c-3.94,1.87-7.88,3.75-11.81,5.62c-1.4,0.67-0.64,2.77,0.76,2.8c2.63,0.05,5.27,0.1,7.9,0.15c-0.25-0.93-0.5-1.86-0.76-2.8
				c-6.53,2.95-13.06,5.91-19.59,8.86c-1.31,0.59-0.7,2.99,0.76,2.8c3.89-0.52,7.75-0.33,11.52,0.79c-0.12-0.91-0.24-1.83-0.36-2.74
				c-6.46,3.11-13.18,5.59-20.06,7.61c-1.85,0.54-1.07,3.41,0.8,2.89c3.44-0.95,6.94-1.31,10.51-1.24c-0.13-0.98-0.27-1.96-0.4-2.95
				c-2.06,0.8-4.26,1.05-5.78,2.83c-1.6,1.86-2.92,3.81-4.76,5.47c-3.1,2.81-6.83,4.73-10.67,6.35c-4.88,2.06-10.3,3.04-15.43,4.32
				c-5.47,1.37-10.96,2.69-16.44,4.04c-6.34,1.55-12.68,3.13-18.99,4.8c0.39,0.91,0.77,1.83,1.16,2.74
				c4.97-2.66,9.58-5.87,13.45-9.99c0.86-0.92,0.28-2.59-1.06-2.56C70.26,95.37,59,95.61,47.73,95.85c0.25,0.93,0.5,1.86,0.76,2.8
				c6.95-3.94,13.9-7.87,20.85-11.81c1.57-0.89,0.44-3.01-1.16-2.74c-10.23,1.74-20.46,3.48-30.69,5.22
				c0.39,0.91,0.77,1.83,1.16,2.74c1.74-0.96,3.04-2.33,3.36-4.36c0.14-0.92-0.38-1.92-1.45-1.9c-4.68,0.11-9.35,0.22-14.03,0.34
				c0.25,0.93,0.5,1.86,0.76,2.8c8.95-4.17,17.89-8.35,26.84-12.52c1.69-0.79,0.36-2.95-1.16-2.74c-5.74,0.79-11.47,1.58-17.21,2.36
				c0.27,0.96,0.53,1.93,0.8,2.89c4.99-1.65,9.98-3.29,14.96-4.94C53.35,73.39,52.57,70.49,50.73,71.09L50.73,71.09z"/>
		</g>
	</g>
	<g>
		<path class="st12" d="M52.86,32.64c-14.92-0.42-29.84-0.83-44.76-1.25c8.02,5.86,16.05,11.73,24.07,17.59
			c-11.8-0.9-24.34,2.23-30.64,7.65c19.61,2.19,40.62,0.56,58.27-4.51c-0.01,10.53-2.84,21.06-8.38,31.16
			c4.83-3.53,13.28-5.52,21.4-5.06c-15.81,6.74-27.95,15.93-34.56,26.16c12.99-0.1,26.02,1.95,36.85,5.8
			c7.32-2.08,17.13,0.7,19.96,4.88s-0.06,8.97-5.26,12.43c-5.2,3.46-12.41,5.85-19.47,8.17c11.92-0.24,23.83-0.48,35.75-0.72
			c-19.71-1.54-40.56,5.33-46.91,15.45c13.81-1.94,28.25-2.08,42.36-3.27s28.57-3.64,38.4-9.19c9.83-5.55,13.34-14.86,4.68-20.94"/>
		<g>
			<path class="st13" d="M52.86,31.14c-14.92-0.42-29.84-0.83-44.76-1.25c-1.61-0.04-1.87,1.98-0.76,2.8
				c8.02,5.86,16.05,11.73,24.07,17.59c0.25-0.93,0.5-1.86,0.76-2.8c-6.01-0.43-12.13,0.07-17.98,1.56
				c-4.92,1.25-9.81,3.23-13.72,6.54c-1.1,0.93-0.09,2.43,1.06,2.56c15.42,1.7,31.15,1.15,46.4-1.69c4.13-0.77,8.22-1.72,12.26-2.88
				c-0.63-0.48-1.27-0.96-1.9-1.45c-0.05,10.7-3.08,21.04-8.18,30.4c-0.67,1.22,0.76,2.97,2.05,2.05
				c5.81-4.15,13.67-5.21,20.64-4.86c-0.25-0.93-0.5-1.86-0.76-2.8c-13.48,5.78-26.94,14.17-35.09,26.7
				c-0.63,0.96,0.2,2.26,1.3,2.26c6.92-0.04,13.84,0.48,20.65,1.66c3.25,0.57,6.47,1.28,9.65,2.15c1.53,0.42,3.05,0.88,4.55,1.38
				c0.6,0.2,1.36,0.6,2,0.6c0.7,0.01,1.46-0.33,2.16-0.45c4.82-0.85,10.72,0.1,14.78,2.95c1.64,1.15,2.88,2.9,2.59,5
				c-0.36,2.6-2.55,4.76-4.53,6.28c-5.8,4.42-13.34,6.52-20.16,8.77c-1.56,0.51-1.36,2.98,0.4,2.95
				c11.92-0.24,23.83-0.48,35.75-0.72c1.95-0.04,1.91-2.86,0-3c-7.76-0.58-15.63,0.04-23.21,1.82c-6.49,1.52-13.08,3.91-18.53,7.83
				c-2.52,1.8-4.79,3.92-6.47,6.55c-0.79,1.23,0.51,2.37,1.69,2.2c16.78-2.33,33.8-1.98,50.61-4.11c7.6-0.96,15.23-2.32,22.46-4.9
				c6.11-2.18,12.53-5.27,16.22-10.85c1.67-2.52,2.54-5.55,2.01-8.57c-0.58-3.28-2.87-5.82-5.49-7.71
				c-1.57-1.13-3.07,1.47-1.51,2.59c2.02,1.46,3.82,3.5,4.14,6.06c0.3,2.4-0.71,4.74-2.1,6.64c-3.63,4.96-9.93,7.6-15.59,9.47
				c-14.36,4.73-29.77,5.36-44.74,6.21c-8.95,0.51-17.91,1.04-26.8,2.28c0.56,0.73,1.13,1.47,1.69,2.2
				c2.9-4.53,7.91-7.45,12.71-9.57c6.35-2.8,13.33-4.37,20.23-5.02c4.21-0.4,8.45-0.44,12.67-0.12c0-1,0-2,0-3
				c-11.92,0.24-23.83,0.48-35.75,0.72c0.13,0.98,0.27,1.96,0.4,2.95c6.74-2.22,13.87-4.35,19.83-8.33
				c4.47-2.98,9.37-8.63,5.99-14.19c-2.75-4.52-9.23-6.16-14.14-6.54c-1.36-0.11-2.73-0.1-4.09,0.03c-0.74,0.07-1.48,0.18-2.21,0.32
				c-0.3,0.06-0.75,0.25-1.05,0.24c-0.04,0-0.91-0.38-1.15-0.46c-3.33-1.11-6.74-2.02-10.17-2.75c-8.36-1.79-16.93-2.6-25.47-2.55
				c0.43,0.75,0.86,1.5,1.3,2.26c7.87-12.08,21.04-20.06,34.02-25.62c1.48-0.63,0.58-2.73-0.76-2.8
				c-7.44-0.38-15.95,0.84-22.16,5.26c0.68,0.68,1.37,1.37,2.05,2.05c5.35-9.82,8.54-20.69,8.59-31.92c0-0.97-0.96-1.71-1.9-1.45
				c-14.52,4.15-29.74,5.75-44.82,5.35c-4.36-0.12-8.71-0.42-13.05-0.89c0.35,0.85,0.71,1.71,1.06,2.56
				c3.6-3.05,8.27-4.75,12.79-5.86c5.48-1.35,11.16-1.76,16.79-1.35c1.63,0.12,1.84-2.01,0.76-2.8
				c-8.02-5.86-16.05-11.73-24.07-17.59c-0.25,0.93-0.5,1.86-0.76,2.8c14.92,0.42,29.84,0.83,44.76,1.25
				C54.79,34.19,54.79,31.19,52.86,31.14L52.86,31.14z"/>
		</g>
	</g>
	<g>
		<g>
			<radialGradient id="SVGID_1_" cx="92.2501" cy="79.5247" r="53.6236" gradientUnits="userSpaceOnUse">
				<stop  offset="0.7388" style="stop-color:#FFFFFF;stop-opacity:0"/>
				<stop  offset="0.8057" style="stop-color:#FFFFFF;stop-opacity:0.4301"/>
				<stop  offset="0.8165" style="stop-color:#FFFFFF;stop-opacity:0.5"/>
				<stop  offset="0.8231" style="stop-color:#DBC01F"/>
				<stop  offset="0.8304" style="stop-color:#F1DC3A"/>
				<stop  offset="0.835" style="stop-color:#F5E13F"/>
				<stop  offset="0.8386" style="stop-color:#DBC01F"/>
				<stop  offset="0.8523" style="stop-color:#E1CB46"/>
				<stop  offset="0.872" style="stop-color:#E9D976"/>
				<stop  offset="0.8922" style="stop-color:#F0E4A0"/>
				<stop  offset="0.9126" style="stop-color:#F5EEC3"/>
				<stop  offset="0.9332" style="stop-color:#FAF5DD"/>
				<stop  offset="0.9543" style="stop-color:#FDFBF0"/>
				<stop  offset="0.976" style="stop-color:#FEFEFB"/>
				<stop  offset="0.9993" style="stop-color:#FFFFFF"/>
			</radialGradient>
			<path class="st14" d="M111.04,26.16c5.69-2.4,11.37-4.8,17.06-7.19c-0.62-0.62-1.23-1.23-1.85-1.85
				c-3.02,7.58-7.76,14.37-13.75,19.88c-0.75,0.69-0.46,1.84,0.3,2.36c6.57,4.43,13.14,8.86,19.71,13.29
				c0.12-0.91,0.24-1.83,0.36-2.74c-8.92,1.62-17.84,3.24-26.76,4.87c-0.97,0.18-1.35,1.43-0.9,2.2
				c3.54,6.07,7.09,12.14,10.63,18.21c0.43-0.75,0.86-1.5,1.3-2.26c-5.03-0.15-10.06-0.29-15.09-0.44c-1.56-0.05-1.95,2.02-0.76,2.8
				c12.06,7.88,21.46,19.64,26.45,33.15c0.35-0.62,0.7-1.23,1.05-1.85c-4.8,0.69-8.28,4.74-9.76,9.15
				c-1.94,5.79-0.24,12.08,1.33,17.74c0.48-0.63,0.96-1.27,1.45-1.9c-3.16-0.12-6.32-0.24-9.48-0.36c-1.41-0.05-2.15,2.2-0.76,2.8
				c2.8,1.2,5.61-0.07,7.23-2.55c1.79-2.76,1.05-6.14-0.37-8.88c-1.44-2.79-3.47-5.62-5.74-7.81c-2.23-2.15-5.07-3.65-8.23-3.53
				c-3.48,0.13-6.65,1.88-9.46,3.8c-2.76,1.89-5.42,3.92-8.11,5.91c-5.35,3.96-10.72,7.92-16.44,11.33
				c-6.34,3.78-13.1,6.78-20.39,8.13c0.63,0.48,1.27,0.96,1.9,1.45c0.56-9.42,5-18.33,12.08-24.55c1.45-1.28-0.68-3.39-2.12-2.12
				c-7.68,6.75-12.34,16.49-12.95,26.68c-0.06,1.05,1,1.61,1.9,1.45c11.55-2.14,21.72-8.34,31.14-15.08c4.75-3.4,9.36-7,14.15-10.35
				c2.44-1.7,5.24-3.52,8.3-3.64c2.82-0.11,5.07,1.47,6.9,3.47c2.06,2.25,4.33,5.2,5.21,8.15c0.43,1.45,0.47,2.97-0.45,4.23
				c-0.64,0.87-1.89,1.82-3.03,1.33c-0.25,0.93-0.5,1.86-0.76,2.8c3.16,0.12,6.32,0.24,9.48,0.36c0.98,0.04,1.7-0.99,1.45-1.9
				c-1.37-4.92-2.97-10.36-1.54-15.46c1.06-3.78,3.84-7.16,7.88-7.74c0.76-0.11,1.3-1.16,1.05-1.85
				c-5.28-14.28-15.08-26.61-27.83-34.95c-0.25,0.93-0.5,1.86-0.76,2.8c5.03,0.15,10.06,0.29,15.09,0.44
				c1.15,0.03,1.86-1.3,1.3-2.26c-3.54-6.07-7.09-12.14-10.63-18.21c-0.3,0.73-0.6,1.47-0.9,2.2c8.92-1.62,17.84-3.24,26.76-4.87
				c1.37-0.25,1.33-2.08,0.36-2.74c-6.57-4.43-13.14-8.86-19.71-13.29c0.1,0.79,0.2,1.57,0.3,2.36
				c6.39-5.88,11.32-13.14,14.53-21.21c0.4-1-0.83-2.27-1.85-1.85c-5.69,2.4-11.37,4.8-17.06,7.19c-0.75,0.32-1.27,0.99-1.05,1.85
				C109.38,25.81,110.3,26.47,111.04,26.16L111.04,26.16z"/>
		</g>
	</g>
	<g>
		<g>
			<path class="st13" d="M93.42,22.77C85.1,15.31,76.79,7.86,68.47,0.4c-1.1-0.98-2.9-0.04-2.51,1.46
				c3.88,14.85,10.29,28.99,18.93,41.68c0.43-0.75,0.86-1.5,1.3-2.26c-3.22,0.37-6.43,0.74-9.65,1.11c-0.91,0.11-1.78,0.88-1.45,1.9
				c2.23,6.85,6.41,12.95,12.07,17.41c0.49-0.84,0.97-1.67,1.46-2.51c-4.97-0.81-10.11,2.45-11.1,7.5c-0.17,0.88,0.4,1.98,1.45,1.9
				c4.71-0.38,9.49,1.87,12.1,5.85c2.5,3.81,2.05,9,5.3,12.4c3.87,4.05,9.79,2.16,14.55,1.34c5.44-0.94,11.11-0.92,16.55,0.01
				c6.32,1.08,12.37,3.32,17.85,6.65c-0.1-0.79-0.2-1.57-0.3-2.36c-1.89,1.98-2.27,4.85-1.3,7.37c1.08,2.8,3.55,4.58,6.51,4.95
				c7.08,0.87,11.67-5.27,14.01-11.09c0.18-0.45-0.02-1.15-0.39-1.46c-4.31-3.65-9.48-6.1-15.07-6.98c-1.89-0.3-2.7,2.59-0.8,2.89
				c5.07,0.8,9.82,2.89,13.75,6.21c-0.13-0.49-0.26-0.97-0.39-1.46c-1.67,4.14-4.68,8.77-9.63,8.96c-1.99,0.08-3.94-0.67-4.92-2.48
				c-0.82-1.51-0.9-3.5,0.34-4.79c0.68-0.71,0.53-1.85-0.3-2.36c-9.79-5.95-21.53-8.66-32.94-7.48c-2.74,0.28-5.39,0.9-8.1,1.35
				c-2.36,0.39-5.17,0.59-7.06-1.16c-1.67-1.54-2.14-4.01-2.7-6.11c-0.61-2.31-1.36-4.55-2.77-6.5c-3.25-4.47-8.73-7.2-14.28-6.76
				c0.48,0.63,0.96,1.27,1.45,1.9c0.65-3.32,3.95-5.97,7.41-5.41c1.28,0.21,2.78-1.47,1.46-2.51c-5.27-4.14-9.23-9.7-11.3-16.08
				c-0.48,0.63-0.96,1.27-1.45,1.9c3.22-0.37,6.43-0.74,9.65-1.11c1.03-0.12,2-1.22,1.3-2.26c-8.5-12.49-14.81-26.35-18.62-40.97
				c-0.84,0.49-1.67,0.97-2.51,1.46c8.32,7.45,16.64,14.91,24.96,22.36C92.74,26.17,94.86,24.06,93.42,22.77L93.42,22.77z"/>
		</g>
	</g>
</g>
</svg>
