<?xml version="1.0" encoding="utf-8"?>
<!-- Generator: Adobe Illustrator 27.1.1, SVG Export Plug-In . SVG Version: 6.00 Build 0)  -->
<svg version="1.1" id="Layer_1" xmlns="http://www.w3.org/2000/svg" xmlns:xlink="http://www.w3.org/1999/xlink" x="0px" y="0px"
	 viewBox="0 0 975 600" style="enable-background:new 0 0 975 600;" xml:space="preserve">
<style type="text/css">
	.st0{fill:#604613;}
	.st1{fill:#A55400;}
	.st2{fill:#B87C00;}
	.st3{fill:#666666;}
	.st4{fill:#955D00;}
	.st5{fill:#FBBD49;}
	.st6{fill:#2E4E92;}
	.st7{fill:#0071BC;}
	.st8{fill:#FBBD2B;}
	.st9{fill:#4D5149;}
	.st10{fill:#667453;}
	.st11{fill:#665A50;}
	.st12{fill:#66664E;}
	.st13{fill:#6D7071;}
	.st14{fill:#525C54;}
	.st15{fill:#5C6159;}
	.st16{fill:#667254;}
	.st17{fill:#51564E;}
	.st18{fill:#667166;}
	.st19{fill:#C08426;}
	.st20{fill:#C58231;}
	.st21{fill:#F7831E;}
	.st22{fill:#F77D1E;}
	.st23{fill:#008545;}
	.st24{fill:#008E45;}
	.st25{fill:#009245;}
	.st26{fill:#008845;}
	.st27{fill:#008445;}
	.st28{fill:#008B45;}
	.st29{fill:#CCCCCC;}
	.st30{fill:#C1272D;}
	.st31{fill:#C12759;}
	.st32{opacity:0.25;}
	.st33{fill:url(#SVGID_1_);}
</style>
<g>
	<g>
		<rect x="525" y="575" class="st0" width="25" height="25"/>
	</g>
	<g>
		<rect x="500" y="575" class="st1" width="25" height="25"/>
	</g>
	<g>
		<rect x="475" y="575" class="st2" width="25" height="25"/>
	</g>
	<g>
		<rect x="450" y="575" class="st1" width="25" height="25"/>
	</g>
	<g>
		<rect x="425" y="575" class="st0" width="25" height="25"/>
	</g>
	<g>
		<rect x="525" y="550" class="st1" width="25" height="25"/>
	</g>
	<g>
		<rect x="500" y="550" class="st2" width="25" height="25"/>
	</g>
	<g>
		<rect x="475" y="550" class="st3" width="25" height="25"/>
	</g>
	<g>
		<rect x="450" y="550" class="st2" width="25" height="25"/>
	</g>
	<g>
		<rect x="425" y="550" class="st1" width="25" height="25"/>
	</g>
	<g>
		<rect x="550" y="525" class="st4" width="25" height="25"/>
	</g>
	<g>
		<rect x="525" y="525" class="st1" width="25" height="25"/>
	</g>
	<g>
		<rect x="500" y="525" class="st2" width="25" height="25"/>
	</g>
	<g>
		<rect x="475" y="525" class="st3" width="25" height="25"/>
	</g>
	<g>
		<rect x="450" y="525" class="st2" width="25" height="25"/>
	</g>
	<g>
		<rect x="425" y="525" class="st1" width="25" height="25"/>
	</g>
	<g>
		<rect x="400" y="525" class="st0" width="25" height="25"/>
	</g>
	<g>
		<rect x="550" y="500" class="st4" width="25" height="25"/>
	</g>
	<g>
		<rect x="525" y="500" class="st5" width="25" height="25"/>
	</g>
	<g>
		<rect x="500" y="500" class="st3" width="25" height="25"/>
	</g>
	<g>
		<rect x="475" y="500" class="st3" width="25" height="25"/>
	</g>
	<g>
		<rect x="450" y="500" class="st2" width="25" height="25"/>
	</g>
	<g>
		<rect x="425" y="500" class="st1" width="25" height="25"/>
	</g>
	<g>
		<rect x="400" y="500" class="st0" width="25" height="25"/>
	</g>
	<g>
		<rect x="575" y="475" class="st4" width="25" height="25"/>
	</g>
	<g>
		<rect x="550" y="475" class="st5" width="25" height="25"/>
	</g>
	<g>
		<rect x="525" y="475" class="st3" width="25" height="25"/>
	</g>
	<g>
		<rect x="500" y="475" class="st3" width="25" height="25"/>
	</g>
	<g>
		<rect x="475" y="475" class="st3" width="25" height="25"/>
	</g>
	<g>
		<rect x="450" y="475" class="st3" width="25" height="25"/>
	</g>
	<g>
		<rect x="425" y="475" class="st2" width="25" height="25"/>
	</g>
	<g>
		<rect x="400" y="475" class="st1" width="25" height="25"/>
	</g>
	<g>
		<rect x="375" y="475" class="st0" width="25" height="25"/>
	</g>
	<g>
		<rect x="575" y="450" class="st4" width="25" height="25"/>
	</g>
	<g>
		<rect x="550" y="450" class="st5" width="25" height="25"/>
	</g>
	<g>
		<rect x="525" y="450" class="st3" width="25" height="25"/>
	</g>
	<g>
		<rect x="500" y="450" class="st3" width="25" height="25"/>
	</g>
	<g>
		<rect x="475" y="450" class="st3" width="25" height="25"/>
	</g>
	<g>
		<rect x="450" y="450" class="st3" width="25" height="25"/>
	</g>
	<g>
		<rect x="425" y="450" class="st2" width="25" height="25"/>
	</g>
	<g>
		<rect x="400" y="450" class="st1" width="25" height="25"/>
	</g>
	<g>
		<rect x="375" y="450" class="st0" width="25" height="25"/>
	</g>
	<g>
		<rect x="575" y="425" class="st4" width="25" height="25"/>
	</g>
	<g>
		<rect x="550" y="425" class="st5" width="25" height="25"/>
	</g>
	<g>
		<rect x="525" y="425" class="st6" width="25" height="25"/>
	</g>
	<g>
		<rect x="500" y="425" class="st7" width="25" height="25"/>
	</g>
	<g>
		<rect x="475" y="425" class="st7" width="25" height="25"/>
	</g>
	<g>
		<rect x="450" y="425" class="st6" width="25" height="25"/>
	</g>
	<g>
		<rect x="425" y="425" class="st2" width="25" height="25"/>
	</g>
	<g>
		<rect x="400" y="425" class="st1" width="25" height="25"/>
	</g>
	<g>
		<rect x="375" y="425" class="st0" width="25" height="25"/>
	</g>
	<g>
		<rect x="575" y="400" class="st4" width="25" height="25"/>
	</g>
	<g>
		<rect x="550" y="400" class="st5" width="25" height="25"/>
	</g>
	<g>
		<rect x="525" y="400" class="st6" width="25" height="25"/>
	</g>
	<g>
		<rect x="500" y="400" class="st7" width="25" height="25"/>
	</g>
	<g>
		<rect x="475" y="400" class="st7" width="25" height="25"/>
	</g>
	<g>
		<rect x="450" y="400" class="st6" width="25" height="25"/>
	</g>
	<g>
		<rect x="425" y="400" class="st2" width="25" height="25"/>
	</g>
	<g>
		<rect x="400" y="400" class="st1" width="25" height="25"/>
	</g>
	<g>
		<rect x="375" y="400" class="st0" width="25" height="25"/>
	</g>
	<g>
		<rect x="600" y="375" class="st4" width="25" height="25"/>
	</g>
	<g>
		<rect x="575" y="375" class="st5" width="25" height="25"/>
	</g>
	<g>
		<rect x="550" y="375" class="st3" width="25" height="25"/>
	</g>
	<g>
		<rect x="525" y="375" class="st7" width="25" height="25"/>
	</g>
	<g>
		<rect x="500" y="375" class="st7" width="25" height="25"/>
	</g>
	<g>
		<rect x="475" y="375" class="st7" width="25" height="25"/>
	</g>
	<g>
		<rect x="450" y="375" class="st7" width="25" height="25"/>
	</g>
	<g>
		<rect x="425" y="375" class="st3" width="25" height="25"/>
	</g>
	<g>
		<rect x="400" y="375" class="st2" width="25" height="25"/>
	</g>
	<g>
		<rect x="375" y="375" class="st1" width="25" height="25"/>
	</g>
	<g>
		<rect x="350" y="375" class="st0" width="25" height="25"/>
	</g>
	<g>
		<rect x="600" y="350" class="st4" width="25" height="25"/>
	</g>
	<g>
		<rect x="575" y="350" class="st5" width="25" height="25"/>
	</g>
	<g>
		<rect x="550" y="350" class="st7" width="25" height="25"/>
	</g>
	<g>
		<rect x="525" y="350" class="st7" width="25" height="25"/>
	</g>
	<g>
		<rect x="500" y="350" class="st7" width="25" height="25"/>
	</g>
	<g>
		<rect x="475" y="350" class="st7" width="25" height="25"/>
	</g>
	<g>
		<rect x="450" y="350" class="st7" width="25" height="25"/>
	</g>
	<g>
		<rect x="425" y="350" class="st7" width="25" height="25"/>
	</g>
	<g>
		<rect x="400" y="350" class="st2" width="25" height="25"/>
	</g>
	<g>
		<rect x="375" y="350" class="st1" width="25" height="25"/>
	</g>
	<g>
		<rect x="350" y="350" class="st0" width="25" height="25"/>
	</g>
	<g>
		<rect x="75" y="350" class="st0" width="25" height="25"/>
	</g>
	<g>
		<rect x="875" y="350" class="st0" width="25" height="25"/>
	</g>
	<g>
		<rect x="600" y="325" class="st4" width="25" height="25"/>
	</g>
	<g>
		<rect x="575" y="325" class="st5" width="25" height="25"/>
	</g>
	<g>
		<rect x="550" y="325" class="st7" width="25" height="25"/>
	</g>
	<g>
		<rect x="525" y="325" class="st7" width="25" height="25"/>
	</g>
	<g>
		<rect x="500" y="325" class="st7" width="25" height="25"/>
	</g>
	<g>
		<rect x="475" y="325" class="st7" width="25" height="25"/>
	</g>
	<g>
		<rect x="450" y="325" class="st7" width="25" height="25"/>
	</g>
	<g>
		<rect x="425" y="325" class="st7" width="25" height="25"/>
	</g>
	<g>
		<rect x="850" y="325" class="st0" width="25" height="25"/>
	</g>
	<g>
		<rect x="400" y="325" class="st2" width="25" height="25"/>
	</g>
	<g>
		<rect x="375" y="325" class="st1" width="25" height="25"/>
	</g>
	<g>
		<rect x="350" y="325" class="st0" width="25" height="25"/>
	</g>
	<g>
		<rect x="100" y="325" class="st0" width="25" height="25"/>
	</g>
	<g>
		<rect x="75" y="325" class="st1" width="25" height="25"/>
	</g>
	<g>
		<rect x="50" y="325" class="st0" width="25" height="25"/>
	</g>
	<g>
		<rect x="900" y="325" class="st0" width="25" height="25"/>
	</g>
	<g>
		<rect x="875" y="325" class="st1" width="25" height="25"/>
	</g>
	<g>
		<rect x="625" y="300" class="st0" width="25" height="25"/>
	</g>
	<g>
		<rect x="600" y="300" class="st4" width="25" height="25"/>
	</g>
	<g>
		<rect x="575" y="300" class="st5" width="25" height="25"/>
	</g>
	<g>
		<rect x="550" y="300" class="st3" width="25" height="25"/>
	</g>
	<g>
		<rect x="525" y="300" class="st7" width="25" height="25"/>
	</g>
	<g>
		<rect x="500" y="300" class="st7" width="25" height="25"/>
	</g>
	<g>
		<rect x="475" y="300" class="st7" width="25" height="25"/>
	</g>
	<g>
		<rect x="450" y="300" class="st7" width="25" height="25"/>
	</g>
	<g>
		<rect x="425" y="300" class="st3" width="25" height="25"/>
	</g>
	<g>
		<rect x="850" y="300" class="st1" width="25" height="25"/>
	</g>
	<g>
		<rect x="825" y="300" class="st0" width="25" height="25"/>
	</g>
	<g>
		<rect x="400" y="300" class="st2" width="25" height="25"/>
	</g>
	<g>
		<rect x="375" y="300" class="st1" width="25" height="25"/>
	</g>
	<g>
		<rect x="350" y="300" class="st0" width="25" height="25"/>
	</g>
	<g>
		<rect x="125" y="300" class="st0" width="25" height="25"/>
	</g>
	<g>
		<rect x="100" y="300" class="st1" width="25" height="25"/>
	</g>
	<g>
		<rect x="75" y="300" class="st2" width="25" height="25"/>
	</g>
	<g>
		<rect x="50" y="300" class="st1" width="25" height="25"/>
	</g>
	<g>
		<rect x="25" y="300" class="st0" width="25" height="25"/>
	</g>
	<g>
		<rect x="325" y="300" class="st0" width="25" height="25"/>
	</g>
	<g>
		<rect x="925" y="300" class="st4" width="25" height="25"/>
	</g>
	<g>
		<rect x="900" y="300" class="st1" width="25" height="25"/>
	</g>
	<g>
		<rect x="875" y="300" class="st2" width="25" height="25"/>
	</g>
	<g>
		<rect x="650" y="275" class="st0" width="25" height="25"/>
	</g>
	<g>
		<rect x="625" y="275" class="st1" width="25" height="25"/>
	</g>
	<g>
		<rect x="600" y="275" class="st0" width="25" height="25"/>
	</g>
	<g>
		<rect x="575" y="275" class="st5" width="25" height="25"/>
	</g>
	<g>
		<rect x="525" y="275" class="st3" width="25" height="25"/>
	</g>
	<g>
		<rect x="500" y="275" class="st7" width="25" height="25"/>
	</g>
	<g>
		<rect x="475" y="275" class="st7" width="25" height="25"/>
	</g>
	<g>
		<rect x="450" y="275" class="st3" width="25" height="25"/>
	</g>
	<g>
		<rect x="850" y="275" class="st2" width="25" height="25"/>
	</g>
	<g>
		<rect x="825" y="275" class="st1" width="25" height="25"/>
	</g>
	<g>
		<rect x="800" y="275" class="st0" width="25" height="25"/>
	</g>
	<g>
		<rect x="400" y="275" class="st2" width="25" height="25"/>
	</g>
	<g>
		<rect x="375" y="275" class="st1" width="25" height="25"/>
	</g>
	<g>
		<rect x="350" y="275" class="st0" width="25" height="25"/>
	</g>
	<g>
		<rect x="125" y="275" class="st1" width="25" height="25"/>
	</g>
	<g>
		<rect x="100" y="275" class="st2" width="25" height="25"/>
	</g>
	<g>
		<rect x="75" y="275" class="st2" width="25" height="25"/>
	</g>
	<g>
		<rect x="50" y="275" class="st1" width="25" height="25"/>
	</g>
	<g>
		<rect x="25" y="275" class="st0" width="25" height="25"/>
	</g>
	<g>
		<rect x="325" y="275" class="st1" width="25" height="25"/>
	</g>
	<g>
		<rect x="300" y="275" class="st0" width="25" height="25"/>
	</g>
	<g>
		<rect x="925" y="275" class="st4" width="25" height="25"/>
	</g>
	<g>
		<rect x="900" y="275" class="st8" width="25" height="25"/>
	</g>
	<g>
		<rect x="875" y="275" class="st9" width="25" height="25"/>
	</g>
	<g>
		<rect x="675" y="250" class="st4" width="25" height="25"/>
	</g>
	<g>
		<rect x="650" y="250" class="st1" width="25" height="25"/>
	</g>
	<g>
		<rect x="625" y="250" class="st2" width="25" height="25"/>
	</g>
	<g>
		<rect x="600" y="250" class="st1" width="25" height="25"/>
	</g>
	<g>
		<rect x="575" y="250" class="st5" width="25" height="25"/>
	</g>
	<g>
		<rect x="550" y="250" class="st3" width="25" height="25"/>
	</g>
	<g>
		<rect x="525" y="250" class="st3" width="25" height="25"/>
	</g>
	<g>
		<rect x="500" y="250" class="st10" width="25" height="25"/>
	</g>
	<g>
		<rect x="475" y="250" class="st11" width="25" height="25"/>
	</g>
	<g>
		<rect x="450" y="250" class="st12" width="25" height="25"/>
	</g>
	<g>
		<rect x="425" y="250" class="st13" width="25" height="25"/>
	</g>
	<g>
		<rect x="850" y="250" class="st2" width="25" height="25"/>
	</g>
	<g>
		<rect x="825" y="250" class="st1" width="25" height="25"/>
	</g>
	<g>
		<rect x="800" y="250" class="st0" width="25" height="25"/>
	</g>
	<g>
		<rect x="400" y="250" class="st2" width="25" height="25"/>
	</g>
	<g>
		<rect x="375" y="250" class="st1" width="25" height="25"/>
	</g>
	<g>
		<rect x="350" y="250" class="st1" width="25" height="25"/>
	</g>
	<g>
		<rect x="125" y="250" class="st1" width="25" height="25"/>
	</g>
	<g>
		<rect x="100" y="250" class="st2" width="25" height="25"/>
	</g>
	<g>
		<rect x="75" y="250" class="st9" width="25" height="25"/>
	</g>
	<g>
		<rect x="50" y="250" class="st2" width="25" height="25"/>
	</g>
	<g>
		<rect x="25" y="250" class="st1" width="25" height="25"/>
	</g>
	<g>
		<rect y="250" class="st0" width="25" height="25"/>
	</g>
	<g>
		<rect x="325" y="250" class="st2" width="25" height="25"/>
	</g>
	<g>
		<rect x="300" y="250" class="st1" width="25" height="25"/>
	</g>
	<g>
		<rect x="275" y="250" class="st0" width="25" height="25"/>
	</g>
	<g>
		<rect x="925" y="250" class="st1" width="25" height="25"/>
	</g>
	<g>
		<rect x="900" y="250" class="st2" width="25" height="25"/>
	</g>
	<g>
		<rect x="875" y="250" class="st9" width="25" height="25"/>
	</g>
	<g>
		<rect x="700" y="225" class="st4" width="25" height="25"/>
	</g>
	<g>
		<rect x="675" y="225" class="st8" width="25" height="25"/>
	</g>
	<g>
		<rect x="650" y="225" class="st2" width="25" height="25"/>
	</g>
	<g>
		<rect x="625" y="225" class="st13" width="25" height="25"/>
	</g>
	<g>
		<rect x="600" y="225" class="st2" width="25" height="25"/>
	</g>
	<g>
		<rect x="575" y="225" class="st5" width="25" height="25"/>
	</g>
	<g>
		<rect x="550" y="225" class="st13" width="25" height="25"/>
	</g>
	<g>
		<rect x="525" y="225" class="st10" width="25" height="25"/>
	</g>
	<g>
		<rect x="500" y="225" class="st11" width="25" height="25"/>
	</g>
	<g>
		<rect x="475" y="225" class="st11" width="25" height="25"/>
	</g>
	<g>
		<rect x="450" y="225" class="st12" width="25" height="25"/>
	</g>
	<g>
		<rect x="425" y="225" class="st13" width="25" height="25"/>
	</g>
	<g>
		<rect x="850" y="225" class="st2" width="25" height="25"/>
	</g>
	<g>
		<rect x="825" y="225" class="st1" width="25" height="25"/>
	</g>
	<g>
		<rect x="800" y="225" class="st0" width="25" height="25"/>
	</g>
	<g>
		<rect x="400" y="225" class="st2" width="25" height="25"/>
	</g>
	<g>
		<rect x="375" y="225" class="st1" width="25" height="25"/>
	</g>
	<g>
		<rect x="350" y="225" class="st2" width="25" height="25"/>
	</g>
	<g>
		<rect x="125" y="225" class="st8" width="25" height="25"/>
	</g>
	<g>
		<rect x="100" y="225" class="st9" width="25" height="25"/>
	</g>
	<g>
		<rect x="75" y="225" class="st9" width="25" height="25"/>
	</g>
	<g>
		<rect x="50" y="225" class="st2" width="25" height="25"/>
	</g>
	<g>
		<rect x="25" y="225" class="st1" width="25" height="25"/>
	</g>
	<g>
		<rect y="225" class="st0" width="25" height="25"/>
	</g>
	<g>
		<rect x="250" y="225" class="st0" width="25" height="25"/>
	</g>
	<g>
		<rect x="325" y="225" class="st13" width="25" height="25"/>
	</g>
	<g>
		<rect x="300" y="225" class="st2" width="25" height="25"/>
	</g>
	<g>
		<rect x="275" y="225" class="st1" width="25" height="25"/>
	</g>
	<g>
		<rect x="950" y="225" class="st4" width="25" height="25"/>
	</g>
	<g>
		<rect x="925" y="225" class="st8" width="25" height="25"/>
	</g>
	<g>
		<rect x="900" y="225" class="st14" width="25" height="25"/>
	</g>
	<g>
		<rect x="875" y="225" class="st9" width="25" height="25"/>
	</g>
	<g>
		<rect x="700" y="200" class="st8" width="25" height="25"/>
	</g>
	<g>
		<rect x="675" y="200" class="st3" width="25" height="25"/>
	</g>
	<g>
		<rect x="650" y="200" class="st3" width="25" height="25"/>
	</g>
	<g>
		<rect x="625" y="200" class="st13" width="25" height="25"/>
	</g>
	<g>
		<rect x="600" y="200" class="st2" width="25" height="25"/>
	</g>
	<g>
		<rect x="575" y="200" class="st5" width="25" height="25"/>
	</g>
	<g>
		<rect x="550" y="200" class="st2" width="25" height="25"/>
	</g>
	<g>
		<rect x="525" y="200" class="st13" width="25" height="25"/>
	</g>
	<g>
		<rect x="500" y="200" class="st12" width="25" height="25"/>
	</g>
	<g>
		<rect x="475" y="200" class="st11" width="25" height="25"/>
	</g>
	<g>
		<rect x="450" y="200" class="st10" width="25" height="25"/>
	</g>
	<g>
		<rect x="425" y="200" class="st13" width="25" height="25"/>
	</g>
	<g>
		<rect x="775" y="200" class="st0" width="25" height="25"/>
	</g>
	<g>
		<rect x="850" y="200" class="st9" width="25" height="25"/>
	</g>
	<g>
		<rect x="825" y="200" class="st2" width="25" height="25"/>
	</g>
	<g>
		<rect x="800" y="200" class="st1" width="25" height="25"/>
	</g>
	<g>
		<rect x="400" y="200" class="st2" width="25" height="25"/>
	</g>
	<g>
		<rect x="375" y="200" class="st8" width="25" height="25"/>
	</g>
	<g>
		<rect x="350" y="200" class="st13" width="25" height="25"/>
	</g>
	<g>
		<rect x="150" y="200" class="st8" width="25" height="25"/>
	</g>
	<g>
		<rect x="125" y="200" class="st15" width="25" height="25"/>
	</g>
	<g>
		<rect x="100" y="200" class="st14" width="25" height="25"/>
	</g>
	<g>
		<rect x="75" y="200" class="st9" width="25" height="25"/>
	</g>
	<g>
		<rect x="50" y="200" class="st2" width="25" height="25"/>
	</g>
	<g>
		<rect x="25" y="200" class="st1" width="25" height="25"/>
	</g>
	<g>
		<rect y="200" class="st0" width="25" height="25"/>
	</g>
	<g>
		<rect x="250" y="200" class="st1" width="25" height="25"/>
	</g>
	<g>
		<rect x="225" y="200" class="st0" width="25" height="25"/>
	</g>
	<g>
		<rect x="325" y="200" class="st3" width="25" height="25"/>
	</g>
	<g>
		<rect x="300" y="200" class="st13" width="25" height="25"/>
	</g>
	<g>
		<rect x="275" y="200" class="st2" width="25" height="25"/>
	</g>
	<g>
		<rect x="950" y="200" class="st4" width="25" height="25"/>
	</g>
	<g>
		<rect x="925" y="200" class="st8" width="25" height="25"/>
	</g>
	<g>
		<rect x="900" y="200" class="st14" width="25" height="25"/>
	</g>
	<g>
		<rect x="875" y="200" class="st9" width="25" height="25"/>
	</g>
	<g>
		<rect x="700" y="175" class="st8" width="25" height="25"/>
	</g>
	<g>
		<rect x="675" y="175" class="st3" width="25" height="25"/>
	</g>
	<g>
		<rect x="650" y="175" class="st16" width="25" height="25"/>
	</g>
	<g>
		<rect x="625" y="175" class="st16" width="25" height="25"/>
	</g>
	<g>
		<rect x="600" y="175" class="st13" width="25" height="25"/>
	</g>
	<g>
		<rect x="575" y="175" class="st2" width="25" height="25"/>
	</g>
	<g>
		<rect x="550" y="175" class="st13" width="25" height="25"/>
	</g>
	<g>
		<rect x="525" y="175" class="st3" width="25" height="25"/>
	</g>
	<g>
		<rect x="500" y="175" class="st11" width="25" height="25"/>
	</g>
	<g>
		<rect x="475" y="175" class="st12" width="25" height="25"/>
	</g>
	<g>
		<rect x="450" y="175" class="st3" width="25" height="25"/>
	</g>
	<g>
		<rect x="425" y="175" class="st3" width="25" height="25"/>
	</g>
	<g>
		<rect x="775" y="175" class="st0" width="25" height="25"/>
	</g>
	<g>
		<rect x="850" y="175" class="st9" width="25" height="25"/>
	</g>
	<g>
		<rect x="825" y="175" class="st2" width="25" height="25"/>
	</g>
	<g>
		<rect x="800" y="175" class="st1" width="25" height="25"/>
	</g>
	<g>
		<rect x="400" y="175" class="st13" width="25" height="25"/>
	</g>
	<g>
		<rect x="375" y="175" class="st3" width="25" height="25"/>
	</g>
	<g>
		<rect x="350" y="175" class="st16" width="25" height="25"/>
	</g>
	<g>
		<rect x="150" y="175" class="st8" width="25" height="25"/>
	</g>
	<g>
		<rect x="125" y="175" class="st15" width="25" height="25"/>
	</g>
	<g>
		<rect x="100" y="175" class="st14" width="25" height="25"/>
	</g>
	<g>
		<rect x="75" y="175" class="st9" width="25" height="25"/>
	</g>
	<g>
		<rect x="50" y="175" class="st2" width="25" height="25"/>
	</g>
	<g>
		<rect x="25" y="175" class="st1" width="25" height="25"/>
	</g>
	<g>
		<rect y="175" class="st0" width="25" height="25"/>
	</g>
	<g>
		<rect x="250" y="175" class="st1" width="25" height="25"/>
	</g>
	<g>
		<rect x="225" y="175" class="st0" width="25" height="25"/>
	</g>
	<g>
		<rect x="325" y="175" class="st3" width="25" height="25"/>
	</g>
	<g>
		<rect x="300" y="175" class="st13" width="25" height="25"/>
	</g>
	<g>
		<rect x="275" y="175" class="st2" width="25" height="25"/>
	</g>
	<g>
		<rect x="950" y="175" class="st4" width="25" height="25"/>
	</g>
	<g>
		<rect x="925" y="175" class="st8" width="25" height="25"/>
	</g>
	<g>
		<rect x="900" y="175" class="st15" width="25" height="25"/>
	</g>
	<g>
		<rect x="875" y="175" class="st14" width="25" height="25"/>
	</g>
	<g>
		<rect x="700" y="150" class="st3" width="25" height="25"/>
	</g>
	<g>
		<rect x="675" y="150" class="st16" width="25" height="25"/>
	</g>
	<g>
		<rect x="650" y="150" class="st17" width="25" height="25"/>
	</g>
	<g>
		<rect x="625" y="150" class="st17" width="25" height="25"/>
	</g>
	<g>
		<rect x="600" y="150" class="st18" width="25" height="25"/>
	</g>
	<g>
		<rect x="575" y="150" class="st3" width="25" height="25"/>
	</g>
	<g>
		<rect x="550" y="150" class="st3" width="25" height="25"/>
	</g>
	<g>
		<rect x="525" y="150" class="st19" width="25" height="25"/>
	</g>
	<g>
		<rect x="500" y="150" class="st19" width="25" height="25"/>
	</g>
	<g>
		<rect x="475" y="150" class="st19" width="25" height="25"/>
	</g>
	<g>
		<rect x="450" y="150" class="st19" width="25" height="25"/>
	</g>
	<g>
		<rect x="425" y="150" class="st3" width="25" height="25"/>
	</g>
	<g>
		<rect x="775" y="150" class="st1" width="25" height="25"/>
	</g>
	<g>
		<rect x="750" y="150" class="st0" width="25" height="25"/>
	</g>
	<g>
		<rect x="725" y="150" class="st8" width="25" height="25"/>
	</g>
	<g>
		<rect x="850" y="150" class="st9" width="25" height="25"/>
	</g>
	<g>
		<rect x="825" y="150" class="st9" width="25" height="25"/>
	</g>
	<g>
		<rect x="800" y="150" class="st2" width="25" height="25"/>
	</g>
	<g>
		<rect x="400" y="150" class="st3" width="25" height="25"/>
	</g>
	<g>
		<rect x="375" y="150" class="st16" width="25" height="25"/>
	</g>
	<g>
		<rect x="350" y="150" class="st17" width="25" height="25"/>
	</g>
	<g>
		<rect x="175" y="150" class="st8" width="25" height="25"/>
	</g>
	<g>
		<rect x="150" y="150" class="st3" width="25" height="25"/>
	</g>
	<g>
		<rect x="125" y="150" class="st15" width="25" height="25"/>
	</g>
	<g>
		<rect x="100" y="150" class="st14" width="25" height="25"/>
	</g>
	<g>
		<rect x="75" y="150" class="st9" width="25" height="25"/>
	</g>
	<g>
		<rect x="50" y="150" class="st9" width="25" height="25"/>
	</g>
	<g>
		<rect x="25" y="150" class="st2" width="25" height="25"/>
	</g>
	<g>
		<rect y="150" class="st1" width="25" height="25"/>
	</g>
	<g>
		<rect x="250" y="150" class="st2" width="25" height="25"/>
	</g>
	<g>
		<rect x="225" y="150" class="st1" width="25" height="25"/>
	</g>
	<g>
		<rect x="200" y="150" class="st0" width="25" height="25"/>
	</g>
	<g>
		<rect x="325" y="150" class="st18" width="25" height="25"/>
	</g>
	<g>
		<rect x="300" y="150" class="st3" width="25" height="25"/>
	</g>
	<g>
		<rect x="275" y="150" class="st13" width="25" height="25"/>
	</g>
	<g>
		<rect x="950" y="150" class="st8" width="25" height="25"/>
	</g>
	<g>
		<rect x="925" y="150" class="st3" width="25" height="25"/>
	</g>
	<g>
		<rect x="900" y="150" class="st15" width="25" height="25"/>
	</g>
	<g>
		<rect x="875" y="150" class="st14" width="25" height="25"/>
	</g>
	<g>
		<rect x="700" y="125" class="st16" width="25" height="25"/>
	</g>
	<g>
		<rect x="675" y="125" class="st17" width="25" height="25"/>
	</g>
	<g>
		<rect x="650" y="125" class="st18" width="25" height="25"/>
	</g>
	<g>
		<rect x="625" y="125" class="st18" width="25" height="25"/>
	</g>
	<g>
		<rect x="600" y="125" class="st3" width="25" height="25"/>
	</g>
	<g>
		<rect x="575" y="125" class="st3" width="25" height="25"/>
	</g>
	<g>
		<rect x="550" y="125" class="st19" width="25" height="25"/>
	</g>
	<g>
		<rect x="525" y="125" class="st19" width="25" height="25"/>
	</g>
	<g>
		<rect x="500" y="125" class="st19" width="25" height="25"/>
	</g>
	<g>
		<rect x="475" y="125" class="st19" width="25" height="25"/>
	</g>
	<g>
		<rect x="450" y="125" class="st19" width="25" height="25"/>
	</g>
	<g>
		<rect x="425" y="125" class="st19" width="25" height="25"/>
	</g>
	<g>
		<rect x="775" y="125" class="st1" width="25" height="25"/>
	</g>
	<g>
		<rect x="750" y="125" class="st8" width="25" height="25"/>
	</g>
	<g>
		<rect x="725" y="125" class="st3" width="25" height="25"/>
	</g>
	<g>
		<rect x="850" y="125" class="st14" width="25" height="25"/>
	</g>
	<g>
		<rect x="825" y="125" class="st9" width="25" height="25"/>
	</g>
	<g>
		<rect x="800" y="125" class="st2" width="25" height="25"/>
	</g>
	<g>
		<rect x="400" y="125" class="st3" width="25" height="25"/>
	</g>
	<g>
		<rect x="375" y="125" class="st17" width="25" height="25"/>
	</g>
	<g>
		<rect x="350" y="125" class="st16" width="25" height="25"/>
	</g>
	<g>
		<rect x="175" y="125" class="st8" width="25" height="25"/>
	</g>
	<g>
		<rect x="150" y="125" class="st3" width="25" height="25"/>
	</g>
	<g>
		<rect x="125" y="125" class="st3" width="25" height="25"/>
	</g>
	<g>
		<rect x="100" y="125" class="st15" width="25" height="25"/>
	</g>
	<g>
		<rect x="75" y="125" class="st14" width="25" height="25"/>
	</g>
	<g>
		<rect x="50" y="125" class="st9" width="25" height="25"/>
	</g>
	<g>
		<rect x="25" y="125" class="st2" width="25" height="25"/>
	</g>
	<g>
		<rect y="125" class="st1" width="25" height="25"/>
	</g>
	<g>
		<rect x="250" y="125" class="st13" width="25" height="25"/>
	</g>
	<g>
		<rect x="225" y="125" class="st2" width="25" height="25"/>
	</g>
	<g>
		<rect x="200" y="125" class="st1" width="25" height="25"/>
	</g>
	<g>
		<rect x="325" y="125" class="st17" width="25" height="25"/>
	</g>
	<g>
		<rect x="300" y="125" class="st17" width="25" height="25"/>
	</g>
	<g>
		<rect x="275" y="125" class="st3" width="25" height="25"/>
	</g>
	<g>
		<rect x="950" y="125" class="st8" width="25" height="25"/>
	</g>
	<g>
		<rect x="925" y="125" class="st3" width="25" height="25"/>
	</g>
	<g>
		<rect x="900" y="125" class="st3" width="25" height="25"/>
	</g>
	<g>
		<rect x="875" y="125" class="st15" width="25" height="25"/>
	</g>
	<g>
		<rect x="700" y="100" class="st17" width="25" height="25"/>
	</g>
	<g>
		<rect x="675" y="100" class="st17" width="25" height="25"/>
	</g>
	<g>
		<rect x="650" y="100" class="st17" width="25" height="25"/>
	</g>
	<g>
		<rect x="625" y="100" class="st3" width="25" height="25"/>
	</g>
	<g>
		<rect x="600" y="100" class="st3" width="25" height="25"/>
	</g>
	<g>
		<rect x="575" y="100" class="st19" width="25" height="25"/>
	</g>
	<g>
		<rect x="550" y="100" class="st19" width="25" height="25"/>
	</g>
	<g>
		<rect x="525" y="100" class="st19" width="25" height="25"/>
	</g>
	<g>
		<rect x="500" y="100" class="st19" width="25" height="25"/>
	</g>
	<g>
		<rect x="475" y="100" class="st19" width="25" height="25"/>
	</g>
	<g>
		<rect x="450" y="100" class="st19" width="25" height="25"/>
	</g>
	<g>
		<rect x="425" y="100" class="st19" width="25" height="25"/>
	</g>
	<g>
		<rect x="775" y="100" class="st2" width="25" height="25"/>
	</g>
	<g>
		<rect x="750" y="100" class="st3" width="25" height="25"/>
	</g>
	<g>
		<rect x="725" y="100" class="st16" width="25" height="25"/>
	</g>
	<g>
		<rect x="850" y="100" class="st15" width="25" height="25"/>
	</g>
	<g>
		<rect x="825" y="100" class="st14" width="25" height="25"/>
	</g>
	<g>
		<rect x="800" y="100" class="st9" width="25" height="25"/>
	</g>
	<g>
		<rect x="400" y="100" class="st19" width="25" height="25"/>
	</g>
	<g>
		<rect x="375" y="100" class="st3" width="25" height="25"/>
	</g>
	<g>
		<rect x="350" y="100" class="st16" width="25" height="25"/>
	</g>
	<g>
		<rect x="175" y="100" class="st13" width="25" height="25"/>
	</g>
	<g>
		<rect x="150" y="100" class="st3" width="25" height="25"/>
	</g>
	<g>
		<rect x="125" y="100" class="st3" width="25" height="25"/>
	</g>
	<g>
		<rect x="100" y="100" class="st15" width="25" height="25"/>
	</g>
	<g>
		<rect x="75" y="100" class="st14" width="25" height="25"/>
	</g>
	<g>
		<rect x="50" y="100" class="st9" width="25" height="25"/>
	</g>
	<g>
		<rect x="25" y="100" class="st2" width="25" height="25"/>
	</g>
	<g>
		<rect y="100" class="st1" width="25" height="25"/>
	</g>
	<g>
		<rect x="250" y="100" class="st3" width="25" height="25"/>
	</g>
	<g>
		<rect x="225" y="100" class="st13" width="25" height="25"/>
	</g>
	<g>
		<rect x="200" y="100" class="st2" width="25" height="25"/>
	</g>
	<g>
		<rect x="325" y="100" class="st17" width="25" height="25"/>
	</g>
	<g>
		<rect x="300" y="100" class="st17" width="25" height="25"/>
	</g>
	<g>
		<rect x="275" y="100" class="st18" width="25" height="25"/>
	</g>
	<g>
		<rect x="950" y="100" class="st8" width="25" height="25"/>
	</g>
	<g>
		<rect x="925" y="100" class="st3" width="25" height="25"/>
	</g>
	<g>
		<rect x="900" y="100" class="st3" width="25" height="25"/>
	</g>
	<g>
		<rect x="875" y="100" class="st3" width="25" height="25"/>
	</g>
	<g>
		<rect x="700" y="75" class="st17" width="25" height="25"/>
	</g>
	<g>
		<rect x="675" y="75" class="st18" width="25" height="25"/>
	</g>
	<g>
		<rect x="650" y="75" class="st3" width="25" height="25"/>
	</g>
	<g>
		<rect x="625" y="75" class="st3" width="25" height="25"/>
	</g>
	<g>
		<rect x="600" y="75" class="st19" width="25" height="25"/>
	</g>
	<g>
		<rect x="575" y="75" class="st19" width="25" height="25"/>
	</g>
	<g>
		<rect x="550" y="75" class="st19" width="25" height="25"/>
	</g>
	<g>
		<rect x="525" y="75" class="st19" width="25" height="25"/>
	</g>
	<g>
		<rect x="500" y="75" class="st19" width="25" height="25"/>
	</g>
	<g>
		<rect x="475" y="75" class="st19" width="25" height="25"/>
	</g>
	<g>
		<rect x="450" y="75" class="st19" width="25" height="25"/>
	</g>
	<g>
		<rect x="425" y="75" class="st19" width="25" height="25"/>
	</g>
	<g>
		<rect x="775" y="75" class="st15" width="25" height="25"/>
	</g>
	<g>
		<rect x="750" y="75" class="st16" width="25" height="25"/>
	</g>
	<g>
		<rect x="725" y="75" class="st17" width="25" height="25"/>
	</g>
	<g>
		<rect x="850" y="75" class="st3" width="25" height="25"/>
	</g>
	<g>
		<rect x="825" y="75" class="st15" width="25" height="25"/>
	</g>
	<g>
		<rect x="800" y="75" class="st14" width="25" height="25"/>
	</g>
	<g>
		<rect x="400" y="75" class="st19" width="25" height="25"/>
	</g>
	<g>
		<rect x="375" y="75" class="st19" width="25" height="25"/>
	</g>
	<g>
		<rect x="350" y="75" class="st2" width="25" height="25"/>
	</g>
	<g>
		<rect x="175" y="75" class="st3" width="25" height="25"/>
	</g>
	<g>
		<rect x="150" y="75" class="st3" width="25" height="25"/>
	</g>
	<g>
		<rect x="125" y="75" class="st3" width="25" height="25"/>
	</g>
	<g>
		<rect x="100" y="75" class="st15" width="25" height="25"/>
	</g>
	<g>
		<rect x="75" y="75" class="st14" width="25" height="25"/>
	</g>
	<g>
		<rect x="50" y="75" class="st9" width="25" height="25"/>
	</g>
	<g>
		<rect x="25" y="75" class="st2" width="25" height="25"/>
	</g>
	<g>
		<rect y="75" class="st1" width="25" height="25"/>
	</g>
	<g>
		<rect x="250" y="75" class="st18" width="25" height="25"/>
	</g>
	<g>
		<rect x="225" y="75" class="st3" width="25" height="25"/>
	</g>
	<g>
		<rect x="200" y="75" class="st13" width="25" height="25"/>
	</g>
	<g>
		<rect x="325" y="75" class="st16" width="25" height="25"/>
	</g>
	<g>
		<rect x="300" y="75" class="st17" width="25" height="25"/>
	</g>
	<g>
		<rect x="275" y="75" class="st17" width="25" height="25"/>
	</g>
	<g>
		<rect x="950" y="75" class="st8" width="25" height="25"/>
	</g>
	<g>
		<rect x="925" y="75" class="st3" width="25" height="25"/>
	</g>
	<g>
		<rect x="900" y="75" class="st3" width="25" height="25"/>
	</g>
	<g>
		<rect x="875" y="75" class="st13" width="25" height="25"/>
	</g>
	<g>
		<rect x="700" y="50" class="st18" width="25" height="25"/>
	</g>
	<g>
		<rect x="675" y="50" class="st3" width="25" height="25"/>
	</g>
	<g>
		<rect x="650" y="50" class="st2" width="25" height="25"/>
	</g>
	<g>
		<rect x="625" y="50" class="st8" width="25" height="25"/>
	</g>
	<g>
		<rect x="600" y="50" class="st8" width="25" height="25"/>
	</g>
	<g>
		<rect x="575" y="50" class="st19" width="25" height="25"/>
	</g>
	<g>
		<rect x="550" y="50" class="st20" width="25" height="25"/>
	</g>
	<g>
		<rect x="525" y="50" class="st20" width="25" height="25"/>
	</g>
	<g>
		<rect x="500" y="50" class="st20" width="25" height="25"/>
	</g>
	<g>
		<rect x="475" y="50" class="st20" width="25" height="25"/>
	</g>
	<g>
		<rect x="450" y="50" class="st20" width="25" height="25"/>
	</g>
	<g>
		<rect x="425" y="50" class="st20" width="25" height="25"/>
	</g>
	<g>
		<rect x="775" y="50" class="st3" width="25" height="25"/>
	</g>
	<g>
		<rect x="750" y="50" class="st17" width="25" height="25"/>
	</g>
	<g>
		<rect x="725" y="50" class="st17" width="25" height="25"/>
	</g>
	<g>
		<rect x="850" y="50" class="st13" width="25" height="25"/>
	</g>
	<g>
		<rect x="825" y="50" class="st3" width="25" height="25"/>
	</g>
	<g>
		<rect x="800" y="50" class="st15" width="25" height="25"/>
	</g>
	<g>
		<rect x="400" y="50" class="st20" width="25" height="25"/>
	</g>
	<g>
		<rect x="375" y="50" class="st2" width="25" height="25"/>
	</g>
	<g>
		<rect x="350" y="50" class="st1" width="25" height="25"/>
	</g>
	<g>
		<rect x="175" y="50" class="st3" width="25" height="25"/>
	</g>
	<g>
		<rect x="150" y="50" class="st3" width="25" height="25"/>
	</g>
	<g>
		<rect x="125" y="50" class="st3" width="25" height="25"/>
	</g>
	<g>
		<rect x="100" y="50" class="st3" width="25" height="25"/>
	</g>
	<g>
		<rect x="75" y="50" class="st15" width="25" height="25"/>
	</g>
	<g>
		<rect x="50" y="50" class="st14" width="25" height="25"/>
	</g>
	<g>
		<rect x="25" y="50" class="st15" width="25" height="25"/>
	</g>
	<g>
		<rect y="50" class="st2" width="25" height="25"/>
	</g>
	<g>
		<rect x="250" y="50" class="st17" width="25" height="25"/>
	</g>
	<g>
		<rect x="225" y="50" class="st17" width="25" height="25"/>
	</g>
	<g>
		<rect x="200" y="50" class="st18" width="25" height="25"/>
	</g>
	<g>
		<rect x="325" y="50" class="st8" width="25" height="25"/>
	</g>
	<g>
		<rect x="300" y="50" class="st3" width="25" height="25"/>
	</g>
	<g>
		<rect x="275" y="50" class="st16" width="25" height="25"/>
	</g>
	<g>
		<rect x="950" y="50" class="st21" width="25" height="25"/>
	</g>
	<g>
		<rect x="925" y="50" class="st3" width="25" height="25"/>
	</g>
	<g>
		<rect x="900" y="50" class="st13" width="25" height="25"/>
	</g>
	<g>
		<rect x="875" y="50" class="st2" width="25" height="25"/>
	</g>
	<g>
		<rect x="700" y="25" class="st3" width="25" height="25"/>
	</g>
	<g>
		<rect x="675" y="25" class="st2" width="25" height="25"/>
	</g>
	<g>
		<rect x="650" y="25" class="st1" width="25" height="25"/>
	</g>
	<g>
		<rect x="575" y="25" class="st8" width="25" height="25"/>
	</g>
	<g>
		<rect x="550" y="25" class="st20" width="25" height="25"/>
	</g>
	<g>
		<rect x="525" y="25" class="st20" width="25" height="25"/>
	</g>
	<g>
		<rect x="500" y="25" class="st20" width="25" height="25"/>
	</g>
	<g>
		<rect x="475" y="25" class="st20" width="25" height="25"/>
	</g>
	<g>
		<rect x="450" y="25" class="st20" width="25" height="25"/>
	</g>
	<g>
		<rect x="425" y="25" class="st20" width="25" height="25"/>
	</g>
	<g>
		<rect x="775" y="25" class="st3" width="25" height="25"/>
	</g>
	<g>
		<rect x="750" y="25" class="st17" width="25" height="25"/>
	</g>
	<g>
		<rect x="725" y="25" class="st18" width="25" height="25"/>
	</g>
	<g>
		<rect x="850" y="25" class="st8" width="25" height="25"/>
	</g>
	<g>
		<rect x="825" y="25" class="st8" width="25" height="25"/>
	</g>
	<g>
		<rect x="800" y="25" class="st8" width="25" height="25"/>
	</g>
	<g>
		<rect x="400" y="25" class="st2" width="25" height="25"/>
	</g>
	<g>
		<rect x="375" y="25" class="st1" width="25" height="25"/>
	</g>
	<g>
		<rect x="175" y="25" class="st18" width="25" height="25"/>
	</g>
	<g>
		<rect x="150" y="25" class="st8" width="25" height="25"/>
	</g>
	<g>
		<rect x="125" y="25" class="st8" width="25" height="25"/>
	</g>
	<g>
		<rect x="100" y="25" class="st8" width="25" height="25"/>
	</g>
	<g>
		<rect x="75" y="25" class="st8" width="25" height="25"/>
	</g>
	<g>
		<rect x="50" y="25" class="st15" width="25" height="25"/>
	</g>
	<g>
		<rect x="25" y="25" class="st3" width="25" height="25"/>
	</g>
	<g>
		<rect y="25" class="st2" width="25" height="25"/>
	</g>
	<g>
		<rect x="250" y="25" class="st16" width="25" height="25"/>
	</g>
	<g>
		<rect x="225" y="25" class="st17" width="25" height="25"/>
	</g>
	<g>
		<rect x="200" y="25" class="st17" width="25" height="25"/>
	</g>
	<g>
		<rect x="300" y="25" class="st8" width="25" height="25"/>
	</g>
	<g>
		<rect x="275" y="25" class="st3" width="25" height="25"/>
	</g>
	<g>
		<rect x="950" y="25" class="st21" width="25" height="25"/>
	</g>
	<g>
		<rect x="925" y="25" class="st13" width="25" height="25"/>
	</g>
	<g>
		<rect x="900" y="25" class="st2" width="25" height="25"/>
	</g>
	<g>
		<rect x="875" y="25" class="st1" width="25" height="25"/>
	</g>
	<g>
		<rect x="700" class="st2" width="25" height="25"/>
	</g>
	<g>
		<rect x="675" class="st1" width="25" height="25"/>
	</g>
	<g>
		<rect x="550" class="st1" width="25" height="25"/>
	</g>
	<g>
		<rect x="525" class="st20" width="25" height="25"/>
	</g>
	<g>
		<rect x="500" class="st20" width="25" height="25"/>
	</g>
	<g>
		<rect x="475" class="st20" width="25" height="25"/>
	</g>
	<g>
		<rect x="450" class="st2" width="25" height="25"/>
	</g>
	<g>
		<rect x="425" class="st2" width="25" height="25"/>
	</g>
	<g>
		<rect x="775" class="st8" width="25" height="25"/>
	</g>
	<g>
		<rect x="750" class="st22" width="25" height="25"/>
	</g>
	<g>
		<rect x="725" class="st2" width="25" height="25"/>
	</g>
	<g>
		<rect x="400" class="st1" width="25" height="25"/>
	</g>
	<g>
		<rect x="175" class="st8" width="25" height="25"/>
	</g>
	<g>
		<rect x="150" class="st1" width="25" height="25"/>
	</g>
	<g>
		<rect x="125" class="st1" width="25" height="25"/>
	</g>
	<g>
		<rect x="100" class="st1" width="25" height="25"/>
	</g>
	<g>
		<rect x="75" class="st1" width="25" height="25"/>
	</g>
	<g>
		<rect x="50" class="st8" width="25" height="25"/>
	</g>
	<g>
		<rect x="25" class="st21" width="25" height="25"/>
	</g>
	<g>
		<rect class="st2" width="25" height="25"/>
	</g>
	<g>
		<rect x="250" class="st22" width="25" height="25"/>
	</g>
	<g>
		<rect x="225" class="st22" width="25" height="25"/>
	</g>
	<g>
		<rect x="200" class="st22" width="25" height="25"/>
	</g>
	<g>
		<rect x="275" class="st8" width="25" height="25"/>
	</g>
	<g>
		<rect x="950" class="st21" width="25" height="25"/>
	</g>
	<g>
		<rect x="925" class="st2" width="25" height="25"/>
	</g>
	<g>
		<rect x="900" class="st1" width="25" height="25"/>
	</g>
	<g>
		<rect x="500" y="450" class="st6" width="25" height="25"/>
	</g>
	<g>
		<rect x="475" y="450" class="st6" width="25" height="25"/>
	</g>
	<g>
		<rect x="550" y="300" class="st7" width="25" height="25"/>
	</g>
	<g>
		<rect x="425" y="300" class="st7" width="25" height="25"/>
	</g>
	<g>
		<rect x="525" y="275" class="st7" width="25" height="25"/>
	</g>
	<g>
		<rect x="450" y="275" class="st7" width="25" height="25"/>
	</g>
	<rect x="435" y="327.2" class="st23" width="13" height="19.6"/>
	<rect x="526" y="327.2" class="st24" width="13" height="19.6"/>
	<rect x="513" y="327.2" class="st25" width="13" height="19.6"/>
	<rect x="500" y="327.2" class="st25" width="13" height="19.6"/>
	<rect x="448" y="327.2" class="st25" width="13" height="19.6"/>
	<rect x="487" y="327.2" class="st25" width="13" height="19.6"/>
	<rect x="461" y="327.2" class="st25" width="13" height="19.6"/>
	<rect x="474" y="327.2" class="st26" width="13" height="19.6"/>
	<rect x="539" y="327.2" class="st25" width="13" height="19.6"/>
	<rect x="552" y="327.2" class="st25" width="13" height="19.6"/>
	<rect x="474" y="307.6" class="st25" width="13" height="19.6"/>
	<rect x="513" y="288" class="st25" width="13" height="19.6"/>
	<rect x="461" y="307.6" class="st27" width="13" height="19.6"/>
	<rect x="474" y="288" class="st25" width="13" height="19.6"/>
	<rect x="461" y="288" class="st25" width="13" height="19.6"/>
	<rect x="513" y="307.6" class="st28" width="13" height="19.6"/>
	<rect x="526" y="307.6" class="st25" width="13" height="19.6"/>
	<rect x="526" y="288" class="st25" width="13" height="19.6"/>
	<rect x="487" y="307.6" class="st25" width="13" height="19.6"/>
	<rect x="500" y="307.6" class="st25" width="13" height="19.6"/>
	<rect x="435" y="346.8" class="st25" width="13" height="19.6"/>
	<rect x="448" y="346.8" class="st25" width="13" height="19.6"/>
	<rect x="461" y="346.8" class="st25" width="13" height="19.6"/>
	<rect x="474" y="346.8" class="st25" width="13" height="19.6"/>
	<rect x="487" y="346.8" class="st24" width="13" height="19.6"/>
	<rect x="500" y="346.8" class="st25" width="13" height="19.6"/>
	<rect x="513" y="346.8" class="st25" width="13" height="19.6"/>
	<rect x="526" y="346.8" class="st25" width="13" height="19.6"/>
	<rect x="461" y="366.4" class="st25" width="13" height="19.6"/>
	<rect x="474" y="366.4" class="st26" width="13" height="19.6"/>
	<rect x="487" y="366.4" class="st25" width="13" height="19.6"/>
	<rect x="500" y="366.4" class="st25" width="13" height="19.6"/>
	<rect x="513" y="366.4" class="st28" width="13" height="19.6"/>
	<rect x="526" y="366.4" class="st25" width="13" height="19.6"/>
	<rect x="539" y="346.8" class="st27" width="13" height="19.6"/>
	<rect x="552" y="346.8" class="st25" width="13" height="19.6"/>
	<rect x="468.43" y="293.88" class="st29" width="13" height="19.6"/>
	<rect x="516.71" y="293.88" class="st29" width="13" height="19.6"/>
	<rect x="439.9" y="342.88" width="117.67" height="5.39"/>
	<rect x="473" y="297.13" width="3.86" height="13.43"/>
	<rect x="516.71" y="296.5" width="4.29" height="13.43"/>
	<rect x="496.37" y="315.39" width="1.77" height="9.85"/>
	<rect x="501.65" y="314.15" width="1.77" height="9.85"/>
	<rect x="458.57" y="345.09" class="st30" width="9.85" height="19.35"/>
	<rect x="461" y="346.8" class="st31" width="6.37" height="13.72"/>
	<g class="st32">
		
			<linearGradient id="SVGID_1_" gradientUnits="userSpaceOnUse" x1="5093.2734" y1="-2986.0674" x2="5243.2734" y2="-2986.0674" gradientTransform="matrix(-1 0 0 -1 5671.2734 -2648.5674)">
			<stop  offset="0" style="stop-color:#CCE0F4"/>
			<stop  offset="0.0641" style="stop-color:#C3DCF2"/>
			<stop  offset="0.1706" style="stop-color:#A9D2EE"/>
			<stop  offset="0.3066" style="stop-color:#80C2E7"/>
			<stop  offset="0.4649" style="stop-color:#47ACDE"/>
			<stop  offset="0.5674" style="stop-color:#1E9CD7"/>
			<stop  offset="0.8652" style="stop-color:#0075BE"/>
			<stop  offset="0.9944" style="stop-color:#005B97"/>
		</linearGradient>
		<rect x="428" y="275" class="st33" width="150" height="125"/>
	</g>
	<g>
		<rect x="425" y="275" class="st13" width="25" height="25"/>
	</g>
	<g>
		<rect x="550" y="275" class="st3" width="25" height="25"/>
	</g>
	<g>
		<rect x="550" y="375" class="st6" width="25" height="25"/>
	</g>
	<g>
		<rect x="425" y="375" class="st6" width="25" height="25"/>
	</g>
</g>
</svg>
