<?xml version="1.0" encoding="utf-8"?>
<!-- Generator: Adobe Illustrator 27.1.1, SVG Export Plug-In . SVG Version: 6.00 Build 0)  -->
<svg version="1.1" id="Layer_1" xmlns="http://www.w3.org/2000/svg" xmlns:xlink="http://www.w3.org/1999/xlink" x="0px" y="0px"
	 viewBox="0 0 284.19 148" style="enable-background:new 0 0 284.19 148;" xml:space="preserve">
<style type="text/css">
	.st0{fill:#FCEE21;}
	.st1{fill:#F5F4BC;}
	.st2{fill:#F3C42D;}
	.st3{fill:#F1B52E;}
	.st4{fill:#C79B25;}
	.st5{fill:#F4C92C;}
	.st6{fill:#BA8822;}
</style>
<g id="gold">
	<rect x="99.39" y="20.05" class="st0" width="11.11" height="10"/>
	<rect x="110.51" y="20.05" class="st0" width="11.11" height="10"/>
	<rect x="121.62" y="20.05" class="st1" width="11.11" height="10"/>
	<rect x="132.73" y="20.05" class="st0" width="11.11" height="10"/>
	<rect x="143.84" y="20.05" class="st0" width="11.11" height="10"/>
	<rect x="154.95" y="20.05" class="st0" width="11.11" height="10"/>
	<rect x="166.06" y="20.05" class="st0" width="11.11" height="10"/>
	<rect x="99.39" y="30.05" class="st0" width="11.11" height="10"/>
	<rect x="110.51" y="30.05" class="st1" width="11.11" height="10"/>
	<rect x="121.62" y="30.05" class="st0" width="11.11" height="10"/>
	<rect x="132.73" y="30.05" class="st0" width="11.11" height="10"/>
	<rect x="143.84" y="30.05" class="st0" width="11.11" height="10"/>
	<rect x="154.95" y="30.05" class="st0" width="11.11" height="10"/>
	<rect x="166.06" y="30.05" class="st0" width="11.11" height="10"/>
	<rect x="177.17" y="30.05" class="st0" width="11.11" height="10"/>
	<rect x="188.28" y="30.05" class="st0" width="11.11" height="10"/>
	<rect x="99.39" y="40.05" class="st1" width="11.11" height="10"/>
	<rect x="110.51" y="40.05" class="st0" width="11.11" height="10"/>
	<rect x="121.62" y="40.05" class="st0" width="11.11" height="10"/>
	<rect x="132.73" y="40.05" class="st0" width="11.11" height="10"/>
	<rect x="143.84" y="40.05" class="st0" width="11.11" height="10"/>
	<rect x="154.95" y="40.05" class="st0" width="11.11" height="10"/>
	<rect x="166.06" y="40.05" class="st0" width="11.11" height="10"/>
	<rect x="177.17" y="40.05" class="st0" width="11.11" height="10"/>
	<rect x="188.28" y="40.05" class="st0" width="11.11" height="10"/>
	<rect x="99.39" y="50.05" class="st1" width="11.11" height="10"/>
	<rect x="110.51" y="50.05" class="st0" width="11.11" height="10"/>
	<rect x="121.62" y="50.05" class="st0" width="11.11" height="10"/>
	<rect x="132.73" y="50.05" class="st0" width="11.11" height="10"/>
	<rect x="143.84" y="50.05" class="st0" width="11.11" height="10"/>
	<rect x="154.95" y="50.05" class="st0" width="11.11" height="10"/>
	<rect x="166.06" y="50.05" class="st0" width="11.11" height="10"/>
	<rect x="177.17" y="50.05" class="st0" width="11.11" height="10"/>
	<rect x="188.28" y="50.05" class="st0" width="11.11" height="10"/>
	<rect x="99.39" y="60.05" class="st1" width="11.11" height="10"/>
	<rect x="110.51" y="60.05" class="st1" width="11.11" height="10"/>
	<rect x="121.62" y="60.05" class="st0" width="11.11" height="10"/>
	<rect x="132.73" y="60.05" class="st0" width="11.11" height="10"/>
	<rect x="143.84" y="60.05" class="st0" width="11.11" height="10"/>
	<rect x="154.95" y="60.05" class="st0" width="11.11" height="10"/>
	<rect x="166.06" y="60.05" class="st0" width="11.11" height="10"/>
	<rect x="177.17" y="60.05" class="st0" width="11.11" height="10"/>
	<rect x="188.28" y="60.05" class="st0" width="11.11" height="10"/>
	<rect x="99.48" y="69.81" class="st1" width="11.11" height="10"/>
	<rect x="110.59" y="69.81" class="st1" width="11.11" height="10"/>
	<rect x="121.7" y="69.81" class="st1" width="11.11" height="10"/>
	<rect x="132.82" y="69.81" class="st1" width="11.11" height="10"/>
	<rect x="143.93" y="69.81" class="st1" width="11.11" height="10"/>
	<rect x="155.04" y="69.81" class="st1" width="11.11" height="10"/>
	<rect x="166.15" y="69.81" class="st0" width="11.11" height="10"/>
	<rect x="177.26" y="69.81" class="st0" width="11.11" height="10"/>
	<rect x="188.37" y="69.81" class="st1" width="11.11" height="10"/>
	<rect x="99.48" y="79.81" class="st2" width="11.11" height="10"/>
	<rect x="110.59" y="79.81" class="st2" width="11.11" height="10"/>
	<rect x="121.7" y="79.81" class="st2" width="11.11" height="10"/>
	<rect x="132.82" y="79.81" class="st2" width="11.11" height="10"/>
	<rect x="143.93" y="79.81" class="st2" width="11.11" height="10"/>
	<rect x="155.04" y="79.81" class="st2" width="11.11" height="10"/>
	<rect x="166.15" y="79.81" class="st1" width="11.11" height="10"/>
	<rect x="177.26" y="79.81" class="st1" width="11.11" height="10"/>
	<rect x="188.37" y="79.81" class="st3" width="11.11" height="10"/>
	<rect x="99.48" y="89.81" class="st2" width="11.11" height="10"/>
	<rect x="110.59" y="89.81" class="st2" width="11.11" height="10"/>
	<rect x="121.7" y="89.81" class="st2" width="11.11" height="10"/>
	<rect x="132.82" y="89.81" class="st2" width="11.11" height="10"/>
	<rect x="143.93" y="89.81" class="st2" width="11.11" height="10"/>
	<rect x="155.04" y="89.81" class="st2" width="11.11" height="10"/>
	<rect x="166.15" y="89.81" class="st0" width="11.11" height="10"/>
	<rect x="177.26" y="89.81" class="st1" width="11.11" height="10"/>
	<rect x="188.37" y="89.81" class="st3" width="11.11" height="10"/>
	<rect x="99.48" y="99.81" class="st2" width="11.11" height="10"/>
	<rect x="110.59" y="99.81" class="st2" width="11.11" height="10"/>
	<rect x="121.7" y="99.81" class="st2" width="11.11" height="10"/>
	<rect x="132.82" y="99.81" class="st2" width="11.11" height="10"/>
	<rect x="143.93" y="99.81" class="st2" width="11.11" height="10"/>
	<rect x="155.04" y="99.81" class="st2" width="11.11" height="10"/>
	<rect x="166.15" y="99.81" class="st0" width="11.11" height="10"/>
	<rect x="177.26" y="99.81" class="st1" width="11.11" height="10"/>
	<rect x="188.37" y="99.81" class="st4" width="11.11" height="10"/>
	<rect x="99.48" y="109.81" class="st2" width="11.11" height="10"/>
	<rect x="110.59" y="109.81" class="st2" width="11.11" height="10"/>
	<rect x="121.7" y="109.81" class="st2" width="11.11" height="10"/>
	<rect x="132.82" y="109.81" class="st2" width="11.11" height="10"/>
	<rect x="143.93" y="109.81" class="st2" width="11.11" height="10"/>
	<rect x="155.04" y="109.81" class="st2" width="11.11" height="10"/>
	<rect x="166.15" y="109.81" class="st1" width="11.11" height="10"/>
	<rect x="32.95" y="19.65" class="st0" width="11.11" height="10"/>
	<rect x="44.07" y="19.65" class="st0" width="11.11" height="10"/>
	<rect x="55.18" y="19.65" class="st0" width="11.11" height="10"/>
	<rect x="66.29" y="19.65" class="st0" width="11.11" height="10"/>
	<rect x="77.4" y="19.65" class="st0" width="11.11" height="10"/>
	<rect x="88.51" y="19.65" class="st0" width="11.11" height="10"/>
	<rect x="21.84" y="29.65" class="st0" width="11.11" height="10"/>
	<rect x="32.95" y="29.65" class="st0" width="11.11" height="10"/>
	<rect x="44.07" y="29.65" class="st0" width="11.11" height="10"/>
	<rect x="55.18" y="29.65" class="st0" width="11.11" height="10"/>
	<rect x="66.29" y="29.65" class="st0" width="11.11" height="10"/>
	<rect x="77.4" y="29.65" class="st1" width="11.11" height="10"/>
	<rect x="88.51" y="29.65" class="st1" width="11.11" height="10"/>
	<rect x="10.73" y="39.65" class="st1" width="11.11" height="10"/>
	<rect x="21.84" y="39.65" class="st0" width="11.11" height="10"/>
	<rect x="32.95" y="39.65" class="st0" width="11.11" height="10"/>
	<rect x="44.07" y="39.65" class="st0" width="11.11" height="10"/>
	<rect x="55.18" y="39.65" class="st0" width="11.11" height="10"/>
	<rect x="66.29" y="39.65" class="st1" width="11.11" height="10"/>
	<rect x="77.4" y="39.65" class="st0" width="11.11" height="10"/>
	<rect x="88.51" y="39.65" class="st0" width="11.11" height="10"/>
	<rect x="10.73" y="49.65" class="st1" width="11.11" height="10"/>
	<rect x="21.84" y="49.65" class="st1" width="11.11" height="10"/>
	<rect x="32.95" y="49.65" class="st1" width="11.11" height="10"/>
	<rect x="44.07" y="49.65" class="st0" width="11.11" height="10"/>
	<rect x="55.18" y="49.65" class="st1" width="11.11" height="10"/>
	<rect x="66.29" y="49.65" class="st0" width="11.11" height="10"/>
	<rect x="77.4" y="49.65" class="st0" width="11.11" height="10"/>
	<rect x="88.51" y="49.65" class="st0" width="11.11" height="10"/>
	<rect x="10.73" y="59.65" class="st1" width="11.11" height="10"/>
	<rect x="21.84" y="59.65" class="st5" width="11.11" height="10"/>
	<rect x="32.95" y="59.65" class="st5" width="11.11" height="10"/>
	<rect x="44.07" y="59.65" class="st1" width="11.11" height="10"/>
	<rect x="55.18" y="59.65" class="st1" width="11.11" height="10"/>
	<rect x="66.29" y="59.65" class="st1" width="11.11" height="10"/>
	<rect x="77.4" y="59.65" class="st1" width="11.11" height="10"/>
	<rect x="88.51" y="59.65" class="st1" width="11.11" height="10"/>
	<rect y="69" class="st1" width="11.11" height="10"/>
	<rect x="11.11" y="69" class="st5" width="11.11" height="10"/>
	<rect x="22.22" y="69" class="st5" width="11.11" height="10"/>
	<rect x="33.33" y="69" class="st5" width="11.11" height="10"/>
	<rect x="44.44" y="69" class="st5" width="11.11" height="10"/>
	<rect x="55.56" y="69" class="st5" width="11.11" height="10"/>
	<rect x="66.67" y="69" class="st5" width="11.11" height="10"/>
	<rect x="77.78" y="69" class="st5" width="11.11" height="10"/>
	<rect x="88.89" y="69" class="st5" width="11.11" height="10"/>
	<rect y="79" class="st1" width="11.11" height="10"/>
	<rect x="11.11" y="79" class="st5" width="11.11" height="10"/>
	<rect x="22.22" y="79" class="st5" width="11.11" height="10"/>
	<rect x="33.33" y="79" class="st5" width="11.11" height="10"/>
	<rect x="44.44" y="79" class="st5" width="11.11" height="10"/>
	<rect x="55.56" y="79" class="st5" width="11.11" height="10"/>
	<rect x="66.67" y="79" class="st5" width="11.11" height="10"/>
	<rect x="77.78" y="79" class="st2" width="11.11" height="10"/>
	<rect x="88.89" y="79" class="st2" width="11.11" height="10"/>
	<rect y="89" class="st1" width="11.11" height="10"/>
	<rect x="11.11" y="89" class="st5" width="11.11" height="10"/>
	<rect x="22.22" y="89" class="st5" width="11.11" height="10"/>
	<rect x="33.33" y="89" class="st5" width="11.11" height="10"/>
	<rect x="44.44" y="89" class="st5" width="11.11" height="10"/>
	<rect x="55.56" y="89" class="st2" width="11.11" height="10"/>
	<rect x="66.67" y="89" class="st2" width="11.11" height="10"/>
	<rect x="77.78" y="89" class="st2" width="11.11" height="10"/>
	<rect x="88.89" y="89" class="st2" width="11.11" height="10"/>
	<rect y="99" class="st1" width="11.11" height="10"/>
	<rect x="11.11" y="99" class="st5" width="11.11" height="10"/>
	<rect x="22.22" y="99" class="st5" width="11.11" height="10"/>
	<rect x="33.33" y="99" class="st2" width="11.11" height="10"/>
	<rect x="44.44" y="99" class="st2" width="11.11" height="10"/>
	<rect x="55.56" y="99" class="st2" width="11.11" height="10"/>
	<rect x="66.67" y="99" class="st2" width="11.11" height="10"/>
	<rect x="77.78" y="99" class="st2" width="11.11" height="10"/>
	<rect x="88.89" y="99" class="st2" width="11.11" height="10"/>
	<rect x="11.11" y="109" class="st5" width="11.11" height="10"/>
	<rect x="22.22" y="109" class="st2" width="11.11" height="10"/>
	<rect x="33.33" y="109" class="st2" width="11.11" height="10"/>
	<rect x="44.44" y="109" class="st2" width="11.11" height="10"/>
	<rect x="55.56" y="109" class="st2" width="11.11" height="10"/>
	<rect x="66.67" y="109" class="st2" width="11.11" height="10"/>
	<rect x="77.78" y="109" class="st2" width="11.11" height="10"/>
	<rect x="88.89" y="109" class="st2" width="11.11" height="10"/>
	<rect x="44.33" y="119" class="st2" width="11.11" height="10"/>
	<rect x="55.44" y="119" class="st2" width="11.11" height="10"/>
	<rect x="66.56" y="119" class="st2" width="11.11" height="10"/>
	<rect x="77.33" y="119" class="st2" width="11.11" height="10"/>
	<rect x="88.44" y="119" class="st2" width="11.11" height="10"/>
	<rect x="99.56" y="119" class="st2" width="11.11" height="10"/>
	<rect x="77.33" y="129" class="st2" width="11.11" height="10"/>
	<rect x="88.44" y="129" class="st2" width="11.11" height="10"/>
	<rect x="99.56" y="129" class="st2" width="11.11" height="10"/>
	<rect x="110.33" y="138" class="st2" width="11.11" height="10"/>
	<rect x="121.44" y="138" class="st2" width="11.11" height="10"/>
	<rect x="132.56" y="138" class="st2" width="29.84" height="10"/>
	<rect x="110.33" y="119" class="st2" width="11.11" height="10"/>
	<rect x="121.44" y="119" class="st2" width="11.11" height="10"/>
	<rect x="132.56" y="119" class="st2" width="40.84" height="19.05"/>
	<rect x="110.33" y="128" class="st2" width="11.11" height="10"/>
	<rect x="121.44" y="128" class="st2" width="11.11" height="10"/>
	<rect x="55.33" y="10" class="st0" width="11.11" height="10"/>
	<rect x="66.44" y="10" class="st0" width="11.11" height="10"/>
	<rect x="77.56" y="10" class="st0" width="11.11" height="10"/>
	<rect x="87.22" class="st0" width="11.11" height="10"/>
	<rect x="98.33" class="st0" width="11.11" height="10"/>
	<rect x="109.44" class="st0" width="11.11" height="10"/>
	<rect x="120.56" class="st0" width="11.11" height="10"/>
	<rect x="131.67" class="st0" width="11.11" height="10"/>
	<rect x="87.22" y="10" class="st0" width="11.11" height="10"/>
	<rect x="98.33" y="10" class="st0" width="11.11" height="10"/>
	<rect x="109.44" y="10" class="st0" width="11.11" height="10"/>
	<rect x="120.56" y="10" class="st0" width="11.11" height="10"/>
	<rect x="131.67" y="10" class="st0" width="11.11" height="10"/>
	<rect x="142.33" y="10" class="st0" width="11.11" height="10"/>
	<rect x="153.44" y="10" class="st0" width="11.11" height="10"/>
	<rect x="164.56" y="10" class="st0" width="11.11" height="10"/>
	<rect x="171.77" y="19.53" class="st0" width="11.54" height="11.51"/>
	<rect x="183.31" y="19.53" class="st0" width="11.54" height="11.51"/>
	<rect x="194.85" y="19.53" class="st0" width="11.54" height="11.51"/>
	<rect x="199.39" y="26.44" class="st0" width="18.29" height="10"/>
	<rect x="217.68" y="26.44" class="st0" width="11.11" height="10"/>
	<rect x="228.79" y="26.44" class="st1" width="11.11" height="10"/>
	<rect x="239.56" y="36.55" class="st3" width="11.11" height="10"/>
	<rect x="250.67" y="36.55" class="st4" width="11.11" height="10"/>
	<rect x="262.12" y="46.55" class="st3" width="11.11" height="10"/>
	<rect x="273.08" y="56.95" class="st3" width="11.11" height="10"/>
	<rect x="273.08" y="66.95" class="st6" width="11.11" height="10"/>
	<rect x="273.08" y="76.95" class="st3" width="11.11" height="10"/>
	<rect x="250.52" y="86.95" class="st0" width="11.11" height="10"/>
	<rect x="261.63" y="86.95" class="st3" width="11.11" height="10"/>
	<rect x="216.97" y="96.95" class="st6" width="11.11" height="10"/>
	<rect x="228.08" y="96.95" class="st3" width="11.11" height="10"/>
	<rect x="239.19" y="96.95" class="st3" width="11.11" height="10"/>
	<rect x="183.97" y="106.95" class="st6" width="11.11" height="20.1"/>
	<rect x="195.08" y="106.95" class="st3" width="11.11" height="10"/>
	<rect x="206.19" y="106.95" class="st6" width="11.11" height="10"/>
	<rect x="172.79" y="107.07" class="st1" width="11.11" height="19.98"/>
	<rect x="162.28" y="125.58" class="st1" width="11.11" height="12.47"/>
	<rect x="197.26" y="32.14" class="st0" width="11.11" height="10"/>
	<rect x="197.26" y="42.14" class="st0" width="11.11" height="10"/>
	<rect x="197.26" y="52.14" class="st0" width="11.11" height="10"/>
	<rect x="197.26" y="62.14" class="st1" width="11.11" height="10"/>
	<rect x="197.35" y="71.9" class="st3" width="11.11" height="10"/>
	<rect x="197.35" y="81.9" class="st6" width="11.11" height="10"/>
	<rect x="197.35" y="91.9" class="st4" width="11.11" height="10"/>
	<rect x="197.35" y="101.9" class="st6" width="11.11" height="10"/>
	<rect x="206.26" y="32.14" class="st0" width="11.11" height="10"/>
	<rect x="206.26" y="42.14" class="st0" width="11.11" height="10"/>
	<rect x="206.26" y="52.14" class="st1" width="11.11" height="10"/>
	<rect x="206.26" y="62.14" class="st3" width="11.11" height="10"/>
	<rect x="206.35" y="71.9" class="st6" width="11.11" height="10"/>
	<rect x="206.35" y="81.9" class="st4" width="11.11" height="10"/>
	<rect x="206.35" y="91.9" class="st6" width="11.11" height="10"/>
	<rect x="206.35" y="101.9" class="st4" width="11.11" height="10"/>
	<rect x="217.26" y="34.14" class="st0" width="11.11" height="7.89"/>
	<rect x="217.26" y="42.03" class="st1" width="11.11" height="7.89"/>
	<rect x="217.26" y="49.91" class="st3" width="11.11" height="7.89"/>
	<rect x="217.26" y="57.8" class="st6" width="11.11" height="7.89"/>
	<rect x="217.35" y="65.5" class="st6" width="11.11" height="7.89"/>
	<rect x="217.35" y="73.39" class="st6" width="11.11" height="7.89"/>
	<rect x="217.35" y="81.27" class="st4" width="11.11" height="7.89"/>
	<rect x="217.35" y="89.16" class="st6" width="11.11" height="7.89"/>
	<rect x="228.26" y="35.14" class="st1" width="11.05" height="7.89"/>
	<rect x="228.26" y="43.03" class="st3" width="11.05" height="7.89"/>
	<rect x="228.26" y="50.91" class="st6" width="21.96" height="7.89"/>
	<rect x="228.26" y="58.8" class="st6" width="21.96" height="7.89"/>
	<rect x="228.43" y="66.5" class="st4" width="21.96" height="7.89"/>
	<rect x="228.43" y="74.39" class="st6" width="21.96" height="7.89"/>
	<rect x="228.43" y="82.27" class="st4" width="21.96" height="7.89"/>
	<rect x="228.43" y="90.16" class="st6" width="21.96" height="7.89"/>
	<rect x="261.89" y="56.28" class="st6" width="11.11" height="3.86"/>
	<rect x="261.89" y="60.14" class="st3" width="11.11" height="3.86"/>
	<rect x="261.89" y="64" class="st6" width="11.11" height="3.86"/>
	<rect x="261.89" y="67.85" class="st3" width="11.11" height="3.86"/>
	<rect x="261.98" y="71.62" class="st6" width="11.11" height="3.86"/>
	<rect x="261.98" y="75.48" class="st3" width="11.11" height="3.86"/>
	<rect x="261.98" y="79.33" class="st3" width="11.11" height="3.86"/>
	<rect x="261.98" y="83.19" class="st6" width="11.11" height="3.86"/>
	<rect x="237.39" y="46.28" class="st6" width="25.49" height="6.24"/>
	<rect x="237.39" y="52.52" class="st4" width="25.49" height="6.24"/>
	<rect x="237.39" y="58.76" class="st6" width="25.49" height="6.24"/>
	<rect x="237.39" y="65" class="st4" width="25.49" height="6.24"/>
	<rect x="237.6" y="71.09" class="st6" width="25.49" height="6.24"/>
	<rect x="237.6" y="77.33" class="st3" width="25.49" height="6.24"/>
	<rect x="237.6" y="83.57" class="st6" width="25.49" height="6.24"/>
	<rect x="237.6" y="89.81" class="st3" width="25.49" height="6.24"/>
</g>
</svg>
